STARTFONT 2.3
FONT -FontForge-Roboto Condensed-Book-R-Condensed---14-140-72-72-P-69-ISO10646-1
SIZE 14 72 72  2
FONTBOUNDINGBOX 25 20 -11 -4
COMMENT "Generated by fontforge, http://fontforge.sourceforge.net"
COMMENT "Copyright 2011 Google Inc. All Rights Reserved."
STARTPROPERTIES 42
FOUNDRY "FontForge"
FAMILY_NAME "Roboto Condensed"
WEIGHT_NAME "Book"
SLANT "R"
SETWIDTH_NAME "Condensed"
ADD_STYLE_NAME ""
PIXEL_SIZE 14
POINT_SIZE 140
RESOLUTION_X 72
RESOLUTION_Y 72
SPACING "P"
AVERAGE_WIDTH 69
CHARSET_REGISTRY "ISO10646"
CHARSET_ENCODING "1"
FONTNAME_REGISTRY ""
CHARSET_COLLECTIONS "ISO8859-2 ISO8859-5 ISO8859-7 ISO8859-9 ISO8859-4 ISO10646-1"
BITS_PER_PIXEL 2
FONT_NAME "RobotoCondensed-Regular"
FACE_NAME "Roboto Condensed"
COPYRIGHT "Copyright 2011 Google Inc. All Rights Reserved."
FONT_VERSION "2.137; 2017"
FONT_ASCENT 10
FONT_DESCENT 4
UNDERLINE_POSITION -1
UNDERLINE_THICKNESS 1
X_HEIGHT 7
CAP_HEIGHT 9
DEFAULT_CHAR 1
RAW_ASCENT 750
RAW_DESCENT 250
NORM_SPACE 3
RELATIVE_WEIGHT 40
RELATIVE_SETWIDTH 50
SUPERSCRIPT_X 0
SUPERSCRIPT_Y 6
SUPERSCRIPT_SIZE 9
SUBSCRIPT_X 0
SUBSCRIPT_Y 1
SUBSCRIPT_SIZE 9
FIGURE_WIDTH 7
AVG_LOWERCASE_WIDTH 68
AVG_UPPERCASE_WIDTH 80
ENDPROPERTIES
CHARS 1296
STARTCHAR uni0000
ENCODING 0
SWIDTH 0 0
DWIDTH 0 0
BBX 1 1 0 0
BITMAP
00
ENDCHAR
STARTCHAR uni0002
ENCODING 2
SWIDTH 0 0
DWIDTH 0 0
BBX 1 1 0 0
BITMAP
00
ENDCHAR
STARTCHAR uni000D
ENCODING 13
SWIDTH 229 0
DWIDTH 3 0
BBX 1 1 0 0
BITMAP
00
ENDCHAR
STARTCHAR space
ENCODING 32
SWIDTH 229 0
DWIDTH 3 0
BBX 1 1 0 0
BITMAP
00
ENDCHAR
STARTCHAR exclam
ENCODING 33
SWIDTH 245 0
DWIDTH 3 0
BBX 2 10 1 0
BITMAP
D0
D0
D0
D0
D0
D0
90
00
40
90
ENDCHAR
STARTCHAR quotedbl
ENCODING 34
SWIDTH 319 0
DWIDTH 4 0
BBX 3 4 1 7
BITMAP
D8
D8
98
98
ENDCHAR
STARTCHAR numbersign
ENCODING 35
SWIDTH 547 0
DWIDTH 8 0
BBX 7 10 1 0
BITMAP
0960
0850
0C90
BFF4
18C0
2580
FFF0
3240
3240
2300
ENDCHAR
STARTCHAR dollar
ENCODING 36
SWIDTH 493 0
DWIDTH 7 0
BBX 6 14 0 -2
BITMAP
0100
0300
0B80
28A0
3470
2810
1E40
02D0
0070
7030
38B0
1F90
0300
0100
ENDCHAR
STARTCHAR percent
ENCODING 37
SWIDTH 632 0
DWIDTH 9 0
BBX 9 10 0 0
BITMAP
2E0000
230800
626400
236000
2E9000
01AE00
027300
066240
083300
002E00
ENDCHAR
STARTCHAR ampersand
ENCODING 38
SWIDTH 543 0
DWIDTH 8 0
BBX 8 10 0 0
BITMAP
0B80
1890
2890
1DC0
0F40
2B48
31DC
70B8
3478
1B9D
ENDCHAR
STARTCHAR quotesingle
ENCODING 39
SWIDTH 174 0
DWIDTH 2 0
BBX 2 3 0 8
BITMAP
60
60
60
ENDCHAR
STARTCHAR parenleft
ENCODING 40
SWIDTH 313 0
DWIDTH 4 0
BBX 3 14 1 -3
BITMAP
08
24
30
A0
90
D0
C0
C0
D0
D0
A0
30
24
08
ENDCHAR
STARTCHAR parenright
ENCODING 41
SWIDTH 318 0
DWIDTH 4 0
BBX 4 14 0 -3
BITMAP
50
30
28
1C
0D
0D
09
09
09
0D
1C
28
20
50
ENDCHAR
STARTCHAR asterisk
ENCODING 42
SWIDTH 430 0
DWIDTH 6 0
BBX 6 6 0 4
BITMAP
0600
0600
BAE0
1F40
2A40
2080
ENDCHAR
STARTCHAR plus
ENCODING 43
SWIDTH 496 0
DWIDTH 7 0
BBX 7 8 0 0
BITMAP
0300
0300
0300
7FF4
1750
0300
0300
0100
ENDCHAR
STARTCHAR comma
ENCODING 44
SWIDTH 196 0
DWIDTH 3 0
BBX 2 4 0 -2
BITMAP
20
30
70
90
ENDCHAR
STARTCHAR hyphen
ENCODING 45
SWIDTH 248 0
DWIDTH 3 0
BBX 3 1 0 4
BITMAP
BC
ENDCHAR
STARTCHAR period
ENCODING 46
SWIDTH 263 0
DWIDTH 4 0
BBX 2 2 1 0
BITMAP
40
D0
ENDCHAR
STARTCHAR slash
ENCODING 47
SWIDTH 370 0
DWIDTH 5 0
BBX 5 11 0 -1
BITMAP
0180
0240
0300
0600
0900
0C00
1800
2400
3000
6000
9000
ENDCHAR
STARTCHAR zero
ENCODING 48
SWIDTH 493 0
DWIDTH 7 0
BBX 6 10 0 0
BITMAP
1B80
28A0
3070
7030
7030
7030
7030
3070
28A0
0B80
ENDCHAR
STARTCHAR one
ENCODING 49
SWIDTH 493 0
DWIDTH 7 0
BBX 4 10 1 0
BITMAP
19
ED
09
09
09
09
09
09
09
09
ENDCHAR
STARTCHAR two
ENCODING 50
SWIDTH 493 0
DWIDTH 7 0
BBX 7 10 0 0
BITMAP
1B80
34A0
7070
0070
0090
01C0
0740
0D00
2800
7FF4
ENDCHAR
STARTCHAR three
ENCODING 51
SWIDTH 493 0
DWIDTH 7 0
BBX 6 10 0 0
BITMAP
1B80
34A0
2070
00A0
0BC0
00A0
0070
6070
34A0
1F80
ENDCHAR
STARTCHAR four
ENCODING 52
SWIDTH 493 0
DWIDTH 7 0
BBX 7 10 0 0
BITMAP
00D0
02D0
07D0
0990
1C90
2490
7090
BFF4
00D0
0090
ENDCHAR
STARTCHAR five
ENCODING 53
SWIDTH 493 0
DWIDTH 7 0
BBX 6 10 1 0
BITMAP
7FC0
6540
A000
BF40
66C0
00D0
00D0
80D0
A2C0
2E40
ENDCHAR
STARTCHAR six
ENCODING 54
SWIDTH 493 0
DWIDTH 7 0
BBX 6 10 1 0
BITMAP
1B00
7400
A000
EE40
E280
D0C0
C0D0
D0C0
A280
2E00
ENDCHAR
STARTCHAR seven
ENCODING 55
SWIDTH 493 0
DWIDTH 7 0
BBX 7 10 0 0
BITMAP
7FF4
0070
00A0
00D0
01C0
0280
0300
0600
0D00
1C00
ENDCHAR
STARTCHAR eight
ENCODING 56
SWIDTH 493 0
DWIDTH 7 0
BBX 5 10 1 0
BITMAP
6E00
A280
D1C0
A280
3F00
A280
C1C0
C0C0
E280
6E00
ENDCHAR
STARTCHAR nine
ENCODING 57
SWIDTH 493 0
DWIDTH 7 0
BBX 6 10 0 0
BITMAP
0B80
28D0
3060
7070
7070
34B0
1FB0
00A0
01D0
0E40
ENDCHAR
STARTCHAR colon
ENCODING 58
SWIDTH 233 0
DWIDTH 3 0
BBX 2 8 1 0
BITMAP
40
D0
00
00
00
00
40
D0
ENDCHAR
STARTCHAR semicolon
ENCODING 59
SWIDTH 202 0
DWIDTH 3 0
BBX 3 10 0 -2
BITMAP
10
34
00
00
00
00
20
34
70
50
ENDCHAR
STARTCHAR less
ENCODING 60
SWIDTH 445 0
DWIDTH 6 0
BBX 6 6 0 2
BITMAP
0090
0B80
7800
7800
0B80
0090
ENDCHAR
STARTCHAR equal
ENCODING 61
SWIDTH 479 0
DWIDTH 7 0
BBX 5 4 1 3
BITMAP
FF80
0000
0000
FF80
ENDCHAR
STARTCHAR greater
ENCODING 62
SWIDTH 459 0
DWIDTH 6 0
BBX 5 6 1 2
BITMAP
9000
B900
0780
0780
B900
9000
ENDCHAR
STARTCHAR question
ENCODING 63
SWIDTH 421 0
DWIDTH 6 0
BBX 6 10 0 0
BITMAP
1F40
75C0
50D0
00C0
0280
0600
0900
0000
0400
0900
ENDCHAR
STARTCHAR at
ENCODING 64
SWIDTH 769 0
DWIDTH 11 0
BBX 10 13 0 -3
BITMAP
01BE00
064280
0C0090
247D20
30D920
318920
624920
224830
329D60
31E780
280000
0E0400
02F800
ENDCHAR
STARTCHAR A
ENCODING 65
SWIDTH 576 0
DWIDTH 8 0
BBX 8 10 0 0
BITMAP
0280
03C0
0690
0960
0C30
1C24
2FF8
341C
700D
A00A
ENDCHAR
STARTCHAR B
ENCODING 66
SWIDTH 545 0
DWIDTH 8 0
BBX 6 10 1 0
BITMAP
FF80
D1D0
D0A0
D0D0
FF80
D0D0
D060
D060
D1D0
FF80
ENDCHAR
STARTCHAR C
ENCODING 67
SWIDTH 566 0
DWIDTH 8 0
BBX 6 10 1 0
BITMAP
2F80
74A0
D030
D010
C000
C000
C010
D030
74A0
2F80
ENDCHAR
STARTCHAR D
ENCODING 68
SWIDTH 570 0
DWIDTH 8 0
BBX 6 10 1 0
BITMAP
FF40
D1D0
D070
D070
D030
D030
D070
D070
D1D0
FF40
ENDCHAR
STARTCHAR E
ENCODING 69
SWIDTH 496 0
DWIDTH 7 0
BBX 6 10 1 0
BITMAP
FFD0
D000
D000
D000
FFC0
D000
D000
D000
D000
FFD0
ENDCHAR
STARTCHAR F
ENCODING 70
SWIDTH 480 0
DWIDTH 7 0
BBX 6 10 1 0
BITMAP
FFD0
D000
D000
D000
FF80
D000
D000
D000
D000
D000
ENDCHAR
STARTCHAR G
ENCODING 71
SWIDTH 590 0
DWIDTH 8 0
BBX 7 10 1 0
BITMAP
2F80
B4B0
D034
C000
C000
C2F4
D034
D034
7474
2FD0
ENDCHAR
STARTCHAR H
ENCODING 72
SWIDTH 620 0
DWIDTH 9 0
BBX 7 10 1 0
BITMAP
D028
D028
D028
D028
FFF8
D028
D028
D028
D028
D028
ENDCHAR
STARTCHAR I
ENCODING 73
SWIDTH 250 0
DWIDTH 4 0
BBX 2 10 1 0
BITMAP
D0
D0
D0
D0
D0
D0
D0
D0
D0
D0
ENDCHAR
STARTCHAR J
ENCODING 74
SWIDTH 483 0
DWIDTH 7 0
BBX 6 10 0 0
BITMAP
00A0
00A0
00A0
00A0
00A0
00A0
00A0
60A0
75D0
1F80
ENDCHAR
STARTCHAR K
ENCODING 75
SWIDTH 544 0
DWIDTH 8 0
BBX 7 10 1 0
BITMAP
D0B0
D1D0
D340
DA00
ED00
FA00
D340
D1C0
D0A0
D074
ENDCHAR
STARTCHAR L
ENCODING 76
SWIDTH 475 0
DWIDTH 7 0
BBX 6 10 1 0
BITMAP
D000
D000
D000
D000
D000
D000
D000
D000
D000
FFD0
ENDCHAR
STARTCHAR M
ENCODING 77
SWIDTH 755 0
DWIDTH 11 0
BBX 9 10 1 0
BITMAP
F00780
F00B80
F40F80
E81E80
DC2A80
D93680
D67280
D3A280
D2D280
D1C280
ENDCHAR
STARTCHAR N
ENCODING 78
SWIDTH 619 0
DWIDTH 9 0
BBX 7 10 1 0
BITMAP
E028
F028
F828
DC28
DA28
D368
D2A8
D0F8
D078
D038
ENDCHAR
STARTCHAR O
ENCODING 79
SWIDTH 600 0
DWIDTH 8 0
BBX 7 10 1 0
BITMAP
2F80
75B0
D034
C024
C028
C028
C024
D034
75B0
2F80
ENDCHAR
STARTCHAR P
ENCODING 80
SWIDTH 554 0
DWIDTH 8 0
BBX 6 10 1 0
BITMAP
FF80
D0A0
D030
D030
D0B0
FF90
D000
D000
D000
D000
ENDCHAR
STARTCHAR Q
ENCODING 81
SWIDTH 600 0
DWIDTH 8 0
BBX 8 12 0 -2
BITMAP
0BE0
2D68
340D
3009
7009
7009
3009
340D
2D6C
0BF4
001D
0004
ENDCHAR
STARTCHAR R
ENCODING 82
SWIDTH 530 0
DWIDTH 7 0
BBX 6 10 1 0
BITMAP
FF80
D1D0
D0A0
D060
D1D0
FF80
D280
D1C0
D0A0
D070
ENDCHAR
STARTCHAR S
ENCODING 83
SWIDTH 518 0
DWIDTH 7 0
BBX 7 10 0 0
BITMAP
0BD0
3874
3028
3400
1E40
02E0
0038
7028
3874
1BE0
ENDCHAR
STARTCHAR T
ENCODING 84
SWIDTH 520 0
DWIDTH 7 0
BBX 7 10 0 0
BITMAP
BFFC
0340
0340
0340
0340
0340
0340
0340
0340
0340
ENDCHAR
STARTCHAR U
ENCODING 85
SWIDTH 561 0
DWIDTH 8 0
BBX 6 10 1 0
BITMAP
C070
C070
C070
C070
C070
C070
C070
D070
A0A0
2F80
ENDCHAR
STARTCHAR V
ENCODING 86
SWIDTH 560 0
DWIDTH 8 0
BBX 8 10 0 0
BITMAP
A00D
701C
3428
2824
1C34
0D70
09A0
06D0
03C0
0280
ENDCHAR
STARTCHAR W
ENCODING 87
SWIDTH 761 0
DWIDTH 11 0
BBX 11 10 0 0
BITMAP
607034
707470
34B460
24D8A0
28CC90
198CD0
1E49C0
0F4780
0B0380
0A0340
ENDCHAR
STARTCHAR X
ENCODING 88
SWIDTH 550 0
DWIDTH 8 0
BBX 7 10 0 0
BITMAP
741C
2834
1D70
0AD0
03C0
07C0
0AD0
1D70
2834
741C
ENDCHAR
STARTCHAR Y
ENCODING 89
SWIDTH 524 0
DWIDTH 7 0
BBX 7 10 0 0
BITMAP
A02C
3434
2870
1CA0
0AC0
0780
0340
0340
0340
0340
ENDCHAR
STARTCHAR Z
ENCODING 90
SWIDTH 522 0
DWIDTH 7 0
BBX 7 10 0 0
BITMAP
7FF8
0074
00A0
01C0
0280
0700
0D00
2800
3400
7FF8
ENDCHAR
STARTCHAR bracketleft
ENCODING 91
SWIDTH 250 0
DWIDTH 4 0
BBX 3 13 1 -2
BITMAP
F4
D0
C0
C0
C0
C0
C0
C0
C0
C0
C0
D0
F4
ENDCHAR
STARTCHAR backslash
ENCODING 92
SWIDTH 369 0
DWIDTH 5 0
BBX 5 11 0 -1
BITMAP
6000
7000
3400
2800
1C00
0D00
0A00
0700
0340
0280
0180
ENDCHAR
STARTCHAR bracketright
ENCODING 93
SWIDTH 250 0
DWIDTH 4 0
BBX 3 13 0 -2
BITMAP
B4
24
24
24
24
24
24
24
24
24
24
24
B4
ENDCHAR
STARTCHAR asciicircum
ENCODING 94
SWIDTH 371 0
DWIDTH 5 0
BBX 5 5 0 5
BITMAP
0D00
1E00
2700
3340
6280
ENDCHAR
STARTCHAR underscore
ENCODING 95
SWIDTH 404 0
DWIDTH 6 0
BBX 6 1 0 -1
BITMAP
BFE0
ENDCHAR
STARTCHAR grave
ENCODING 96
SWIDTH 309 0
DWIDTH 4 0
BBX 3 2 0 8
BITMAP
74
18
ENDCHAR
STARTCHAR a
ENCODING 97
SWIDTH 479 0
DWIDTH 7 0
BBX 6 8 0 0
BITMAP
1B80
34A0
0060
1BE0
3860
7060
35E0
1EB0
ENDCHAR
STARTCHAR b
ENCODING 98
SWIDTH 493 0
DWIDTH 7 0
BBX 6 11 1 0
BITMAP
C000
C000
C000
EF40
E2C0
C0C0
C0D0
C0D0
C0C0
E2C0
DF40
ENDCHAR
STARTCHAR c
ENCODING 99
SWIDTH 461 0
DWIDTH 6 0
BBX 6 8 0 0
BITMAP
1B80
34A0
7060
7000
7000
7020
34A0
1B80
ENDCHAR
STARTCHAR d
ENCODING 100
SWIDTH 496 0
DWIDTH 7 0
BBX 6 11 0 0
BITMAP
0070
0070
0070
1FB0
38B0
7070
7070
7070
7070
34B0
1FB0
ENDCHAR
STARTCHAR e
ENCODING 101
SWIDTH 468 0
DWIDTH 7 0
BBX 6 8 0 0
BITMAP
0B80
34A0
7070
7FF0
7000
7000
3860
1BD0
ENDCHAR
STARTCHAR f
ENCODING 102
SWIDTH 316 0
DWIDTH 4 0
BBX 5 11 0 0
BITMAP
0B40
1C00
2800
BF00
2800
2800
2800
2800
2800
2800
2800
ENDCHAR
STARTCHAR g
ENCODING 103
SWIDTH 492 0
DWIDTH 7 0
BBX 6 11 0 -3
BITMAP
1F70
38B0
7070
7070
7070
7070
34B0
1FB0
0070
24A0
1F80
ENDCHAR
STARTCHAR h
ENCODING 104
SWIDTH 482 0
DWIDTH 7 0
BBX 5 11 1 0
BITMAP
C000
C000
C000
EF40
E280
C180
C1C0
C1C0
C1C0
C1C0
C1C0
ENDCHAR
STARTCHAR i
ENCODING 105
SWIDTH 229 0
DWIDTH 3 0
BBX 2 11 1 0
BITMAP
40
D0
00
D0
D0
D0
D0
D0
D0
D0
D0
ENDCHAR
STARTCHAR j
ENCODING 106
SWIDTH 223 0
DWIDTH 3 0
BBX 2 14 0 -3
BITMAP
10
30
00
30
30
30
30
30
30
30
30
30
70
E0
ENDCHAR
STARTCHAR k
ENCODING 107
SWIDTH 450 0
DWIDTH 6 0
BBX 5 11 1 0
BITMAP
C000
C000
C000
C380
CA00
DC00
F800
ED00
CA00
C340
C2C0
ENDCHAR
STARTCHAR l
ENCODING 108
SWIDTH 229 0
DWIDTH 3 0
BBX 2 11 1 0
BITMAP
D0
D0
D0
D0
D0
D0
D0
D0
D0
D0
D0
ENDCHAR
STARTCHAR m
ENCODING 109
SWIDTH 752 0
DWIDTH 11 0
BBX 9 8 1 0
BITMAP
EF6E00
E2D340
C1C280
C1C280
C1C280
C1C280
C1C280
C1C280
ENDCHAR
STARTCHAR n
ENCODING 110
SWIDTH 483 0
DWIDTH 7 0
BBX 5 8 1 0
BITMAP
DF40
E280
C180
C1C0
C1C0
C1C0
C1C0
C1C0
ENDCHAR
STARTCHAR o
ENCODING 111
SWIDTH 501 0
DWIDTH 7 0
BBX 7 8 0 0
BITMAP
0B80
28B0
7034
7034
7034
7034
3870
0B80
ENDCHAR
STARTCHAR p
ENCODING 112
SWIDTH 493 0
DWIDTH 7 0
BBX 6 11 1 -3
BITMAP
DF40
E2C0
C0C0
C0D0
C0D0
C0C0
E2C0
EF40
C000
C000
C000
ENDCHAR
STARTCHAR q
ENCODING 113
SWIDTH 500 0
DWIDTH 7 0
BBX 6 11 0 -3
BITMAP
1FB0
34B0
7070
7070
7070
7070
34B0
1FB0
0070
0070
0070
ENDCHAR
STARTCHAR r
ENCODING 114
SWIDTH 304 0
DWIDTH 4 0
BBX 3 8 1 0
BITMAP
EC
E4
C0
C0
C0
C0
C0
C0
ENDCHAR
STARTCHAR s
ENCODING 115
SWIDTH 455 0
DWIDTH 6 0
BBX 5 8 1 0
BITMAP
7E00
D340
D140
B800
1B40
4280
D280
7E00
ENDCHAR
STARTCHAR t
ENCODING 116
SWIDTH 295 0
DWIDTH 4 0
BBX 4 10 0 0
BITMAP
24
24
FE
24
24
24
24
24
28
1E
ENDCHAR
STARTCHAR u
ENCODING 117
SWIDTH 483 0
DWIDTH 7 0
BBX 5 8 1 0
BITMAP
C1C0
C1C0
C1C0
C1C0
C1C0
C1C0
D2C0
7EC0
ENDCHAR
STARTCHAR v
ENCODING 118
SWIDTH 427 0
DWIDTH 6 0
BBX 6 8 0 0
BITMAP
A0A0
70D0
31C0
2580
1A40
0F00
0F00
0A00
ENDCHAR
STARTCHAR w
ENCODING 119
SWIDTH 649 0
DWIDTH 9 0
BBX 9 8 0 0
BITMAP
A0C280
71D240
32E340
367300
2B3600
1E2D00
1D1D00
0D0C00
ENDCHAR
STARTCHAR x
ENCODING 120
SWIDTH 438 0
DWIDTH 6 0
BBX 6 8 0 0
BITMAP
70D0
25C0
1E40
0B00
0F00
1E40
35C0
70D0
ENDCHAR
STARTCHAR y
ENCODING 121
SWIDTH 416 0
DWIDTH 6 0
BBX 6 11 0 -3
BITMAP
A0D0
70C0
31C0
2680
2A40
1F00
0E00
0A00
0900
1C00
7400
ENDCHAR
STARTCHAR z
ENCODING 122
SWIDTH 438 0
DWIDTH 6 0
BBX 6 8 0 0
BITMAP
7FD0
01C0
0280
0700
0D00
1C00
3400
7FE0
ENDCHAR
STARTCHAR braceleft
ENCODING 123
SWIDTH 306 0
DWIDTH 4 0
BBX 4 14 0 -3
BITMAP
06
0D
1C
1C
1C
28
B0
28
1C
1C
1C
1C
0D
06
ENDCHAR
STARTCHAR bar
ENCODING 124
SWIDTH 243 0
DWIDTH 3 0
BBX 2 12 1 -2
BITMAP
90
90
90
90
90
90
90
90
90
90
90
90
ENDCHAR
STARTCHAR braceright
ENCODING 125
SWIDTH 306 0
DWIDTH 4 0
BBX 4 14 0 -3
BITMAP
90
34
28
28
28
1C
0A
1C
28
28
28
24
30
90
ENDCHAR
STARTCHAR asciitilde
ENCODING 126
SWIDTH 589 0
DWIDTH 8 0
BBX 7 3 1 3
BITMAP
7C24
DA70
C2D0
ENDCHAR
STARTCHAR uni00A0
ENCODING 160
SWIDTH 229 0
DWIDTH 3 0
BBX 1 1 0 0
BITMAP
00
ENDCHAR
STARTCHAR exclamdown
ENCODING 161
SWIDTH 231 0
DWIDTH 3 0
BBX 2 10 1 -2
BITMAP
D0
40
00
D0
D0
D0
D0
D0
D0
D0
ENDCHAR
STARTCHAR cent
ENCODING 162
SWIDTH 479 0
DWIDTH 7 0
BBX 6 12 0 -2
BITMAP
0200
0300
0B80
28A0
3020
7000
7000
3010
28A0
0B80
0300
0200
ENDCHAR
STARTCHAR sterling
ENCODING 163
SWIDTH 510 0
DWIDTH 7 0
BBX 7 10 0 0
BITMAP
07E0
0D74
1814
2800
1800
7F80
1C00
1C00
2800
7FF8
ENDCHAR
STARTCHAR currency
ENCODING 164
SWIDTH 712 0
DWIDTH 10 0
BBX 8 9 1 0
BITMAP
DBE7
B96E
A00A
D007
C003
D007
A00A
B96E
9BE6
ENDCHAR
STARTCHAR yen
ENCODING 165
SWIDTH 463 0
DWIDTH 6 0
BBX 6 10 0 0
BITMAP
A070
74A0
28D0
1D80
0F40
3FE0
0700
3FE0
0700
0700
ENDCHAR
STARTCHAR brokenbar
ENCODING 166
SWIDTH 239 0
DWIDTH 3 0
BBX 2 12 1 -2
BITMAP
D0
D0
D0
D0
D0
00
D0
D0
D0
D0
D0
D0
ENDCHAR
STARTCHAR section
ENCODING 167
SWIDTH 537 0
DWIDTH 8 0
BBX 7 13 0 -3
BITMAP
1BD0
3874
3424
2800
2F90
71B4
7028
3928
0BF0
0074
6024
3474
1BD0
ENDCHAR
STARTCHAR dieresis
ENCODING 168
SWIDTH 417 0
DWIDTH 6 0
BBX 5 2 0 9
BITMAP
1040
71C0
ENDCHAR
STARTCHAR copyright
ENCODING 169
SWIDTH 785 0
DWIDTH 11 0
BBX 11 10 0 0
BITMAP
02FD00
0E0280
24B860
224A20
530024
530024
224A20
25B860
0E0280
02FE00
ENDCHAR
STARTCHAR ordfeminine
ENCODING 170
SWIDTH 395 0
DWIDTH 6 0
BBX 4 5 1 5
BITMAP
7C
49
BE
DA
BA
ENDCHAR
STARTCHAR guillemotleft
ENCODING 171
SWIDTH 417 0
DWIDTH 6 0
BBX 5 5 0 1
BITMAP
0880
2640
7700
2640
0880
ENDCHAR
STARTCHAR logicalnot
ENCODING 172
SWIDTH 487 0
DWIDTH 7 0
BBX 5 3 1 2
BITMAP
FF80
0280
0280
ENDCHAR
STARTCHAR uni00AD
ENCODING 173
SWIDTH 248 0
DWIDTH 3 0
BBX 3 1 0 4
BITMAP
BC
ENDCHAR
STARTCHAR registered
ENCODING 174
SWIDTH 786 0
DWIDTH 11 0
BBX 11 10 0 0
BITMAP
02FD00
0E0280
26F860
224A20
524924
52FC24
224920
264660
0E0280
02FE00
ENDCHAR
STARTCHAR macron
ENCODING 175
SWIDTH 414 0
DWIDTH 6 0
BBX 4 1 1 9
BITMAP
FF
ENDCHAR
STARTCHAR degree
ENCODING 176
SWIDTH 373 0
DWIDTH 5 0
BBX 4 4 1 6
BITMAP
78
C9
C9
78
ENDCHAR
STARTCHAR plusminus
ENCODING 177
SWIDTH 469 0
DWIDTH 7 0
BBX 6 9 0 0
BITMAP
0200
0300
0300
7FF0
0300
0300
0300
0000
3FE0
ENDCHAR
STARTCHAR uni00B2
ENCODING 178
SWIDTH 329 0
DWIDTH 5 0
BBX 4 5 0 5
BITMAP
2D
67
09
24
7F
ENDCHAR
STARTCHAR uni00B3
ENCODING 179
SWIDTH 329 0
DWIDTH 5 0
BBX 4 5 0 5
BITMAP
3D
57
1E
57
7E
ENDCHAR
STARTCHAR acute
ENCODING 180
SWIDTH 313 0
DWIDTH 4 0
BBX 3 2 1 8
BITMAP
74
90
ENDCHAR
STARTCHAR mu
ENCODING 181
SWIDTH 498 0
DWIDTH 7 0
BBX 5 11 1 -3
BITMAP
D1C0
D1C0
D1C0
D1C0
D1C0
D1C0
E2C0
EEC0
D000
D000
D000
ENDCHAR
STARTCHAR paragraph
ENCODING 182
SWIDTH 434 0
DWIDTH 6 0
BBX 5 10 0 0
BITMAP
1BC0
3FC0
7FC0
7FC0
7FC0
2FC0
06C0
01C0
01C0
01C0
ENDCHAR
STARTCHAR periodcentered
ENCODING 183
SWIDTH 243 0
DWIDTH 3 0
BBX 2 2 1 4
BITMAP
D0
40
ENDCHAR
STARTCHAR cedilla
ENCODING 184
SWIDTH 229 0
DWIDTH 3 0
BBX 2 3 1 -3
BITMAP
80
50
D0
ENDCHAR
STARTCHAR uni00B9
ENCODING 185
SWIDTH 329 0
DWIDTH 5 0
BBX 2 5 1 5
BITMAP
60
B0
30
30
30
ENDCHAR
STARTCHAR ordmasculine
ENCODING 186
SWIDTH 402 0
DWIDTH 6 0
BBX 5 5 0 5
BITMAP
1F40
3180
7180
3180
1F40
ENDCHAR
STARTCHAR guillemotright
ENCODING 187
SWIDTH 417 0
DWIDTH 6 0
BBX 5 5 1 1
BITMAP
8800
6600
3340
6600
8800
ENDCHAR
STARTCHAR onequarter
ENCODING 188
SWIDTH 637 0
DWIDTH 9 0
BBX 9 10 0 0
BITMAP
180000
680800
182400
186000
189000
018A00
021E00
062600
087F40
000600
ENDCHAR
STARTCHAR onehalf
ENCODING 189
SWIDTH 677 0
DWIDTH 9 0
BBX 9 10 0 0
BITMAP
180000
681400
182000
185000
188000
025F40
022680
090700
081900
002F80
ENDCHAR
STARTCHAR threequarters
ENCODING 190
SWIDTH 673 0
DWIDTH 9 0
BBX 8 10 1 0
BITMAP
B800
4C14
3820
4D90
B880
024D
022D
0959
08FF
0009
ENDCHAR
STARTCHAR questiondown
ENCODING 191
SWIDTH 421 0
DWIDTH 6 0
BBX 6 11 0 -3
BITMAP
0900
0400
0000
0A00
0D00
2800
3400
6000
60D0
75C0
2F40
ENDCHAR
STARTCHAR Agrave
ENCODING 192
SWIDTH 576 0
DWIDTH 8 0
BBX 8 13 0 0
BITMAP
0B00
0240
0000
0280
03C0
0690
0960
0C30
1C24
2FF8
341C
700D
A00A
ENDCHAR
STARTCHAR Aacute
ENCODING 193
SWIDTH 576 0
DWIDTH 8 0
BBX 8 13 0 0
BITMAP
00A0
0180
0000
0280
03C0
0690
0960
0C30
1C24
2FF8
341C
700D
A00A
ENDCHAR
STARTCHAR Acircumflex
ENCODING 194
SWIDTH 576 0
DWIDTH 8 0
BBX 8 13 0 0
BITMAP
0280
0660
0000
0280
03C0
0690
0960
0C30
1C24
2FF8
341C
700D
A00A
ENDCHAR
STARTCHAR Atilde
ENCODING 195
SWIDTH 576 0
DWIDTH 8 0
BBX 8 13 0 0
BITMAP
0B20
08E0
0000
0280
03C0
0690
0960
0C30
1C24
2FF8
341C
700D
A00A
ENDCHAR
STARTCHAR Adieresis
ENCODING 196
SWIDTH 576 0
DWIDTH 8 0
BBX 8 13 0 0
BITMAP
0410
0D34
0000
0280
03C0
0690
0960
0C30
1C24
2FF8
341C
700D
A00A
ENDCHAR
STARTCHAR Aring
ENCODING 197
SWIDTH 576 0
DWIDTH 8 0
BBX 8 14 0 0
BITMAP
0280
0550
0290
0000
0280
03C0
0690
0960
0C30
1C24
2FF8
341C
700D
A00A
ENDCHAR
STARTCHAR AE
ENCODING 198
SWIDTH 812 0
DWIDTH 11 0
BBX 11 10 0 0
BITMAP
007FF8
00B800
01D800
025800
071FF4
091C00
1FFC00
295C00
701C00
A01FFC
ENDCHAR
STARTCHAR Ccedilla
ENCODING 199
SWIDTH 566 0
DWIDTH 8 0
BBX 6 13 1 -3
BITMAP
2F80
74A0
D030
D010
C000
C000
C010
D030
74A0
2F80
0500
0200
0600
ENDCHAR
STARTCHAR Egrave
ENCODING 200
SWIDTH 496 0
DWIDTH 7 0
BBX 6 13 1 0
BITMAP
3800
1C00
0000
FFD0
D000
D000
D000
FFC0
D000
D000
D000
D000
FFD0
ENDCHAR
STARTCHAR Eacute
ENCODING 201
SWIDTH 496 0
DWIDTH 7 0
BBX 6 13 1 0
BITMAP
0740
0900
0000
FFD0
D000
D000
D000
FFC0
D000
D000
D000
D000
FFD0
ENDCHAR
STARTCHAR Ecircumflex
ENCODING 202
SWIDTH 496 0
DWIDTH 7 0
BBX 6 13 1 0
BITMAP
1E00
2640
0000
FFD0
D000
D000
D000
FFC0
D000
D000
D000
D000
FFD0
ENDCHAR
STARTCHAR Edieresis
ENCODING 203
SWIDTH 496 0
DWIDTH 7 0
BBX 6 13 1 0
BITMAP
1040
6180
0000
FFD0
D000
D000
D000
FFC0
D000
D000
D000
D000
FFD0
ENDCHAR
STARTCHAR Igrave
ENCODING 204
SWIDTH 250 0
DWIDTH 4 0
BBX 3 13 0 0
BITMAP
E0
24
00
34
34
34
34
34
34
34
34
34
34
ENDCHAR
STARTCHAR Iacute
ENCODING 205
SWIDTH 250 0
DWIDTH 4 0
BBX 3 13 1 0
BITMAP
34
A0
00
D0
D0
D0
D0
D0
D0
D0
D0
D0
D0
ENDCHAR
STARTCHAR Icircumflex
ENCODING 206
SWIDTH 250 0
DWIDTH 4 0
BBX 4 13 0 0
BITMAP
78
99
00
34
34
34
34
34
34
34
34
34
34
ENDCHAR
STARTCHAR Idieresis
ENCODING 207
SWIDTH 250 0
DWIDTH 4 0
BBX 5 13 -1 0
BITMAP
1040
7180
0000
0D00
0D00
0D00
0D00
0D00
0D00
0D00
0D00
0D00
0D00
ENDCHAR
STARTCHAR Eth
ENCODING 208
SWIDTH 585 0
DWIDTH 8 0
BBX 8 10 0 0
BITMAP
2FE0
2868
281C
280D
FE0D
280D
280D
281C
2878
2FE0
ENDCHAR
STARTCHAR Ntilde
ENCODING 209
SWIDTH 619 0
DWIDTH 9 0
BBX 7 13 1 0
BITMAP
1D90
2680
0000
E028
F028
F828
DC28
DA28
D368
D2A8
D0F8
D078
D038
ENDCHAR
STARTCHAR Ograve
ENCODING 210
SWIDTH 600 0
DWIDTH 8 0
BBX 7 13 1 0
BITMAP
1C00
0A00
0000
2F80
75B0
D034
C024
C028
C028
C024
D034
75B0
2F80
ENDCHAR
STARTCHAR Oacute
ENCODING 211
SWIDTH 600 0
DWIDTH 8 0
BBX 7 13 1 0
BITMAP
02C0
0600
0000
2F80
75B0
D034
C024
C028
C028
C024
D034
75B0
2F80
ENDCHAR
STARTCHAR Ocircumflex
ENCODING 212
SWIDTH 600 0
DWIDTH 8 0
BBX 7 13 1 0
BITMAP
0B00
1980
0000
2F80
75B0
D034
C024
C028
C028
C024
D034
75B0
2F80
ENDCHAR
STARTCHAR Otilde
ENCODING 213
SWIDTH 600 0
DWIDTH 8 0
BBX 7 13 1 0
BITMAP
1D90
2280
0000
2F80
75B0
D034
C024
C028
C028
C024
D034
75B0
2F80
ENDCHAR
STARTCHAR Odieresis
ENCODING 214
SWIDTH 600 0
DWIDTH 8 0
BBX 7 13 1 0
BITMAP
1040
24D0
0000
2F80
75B0
D034
C024
C028
C028
C024
D034
75B0
2F80
ENDCHAR
STARTCHAR multiply
ENCODING 215
SWIDTH 470 0
DWIDTH 7 0
BBX 5 7 1 1
BITMAP
8180
D340
7A00
2C00
7A00
E340
8140
ENDCHAR
STARTCHAR Oslash
ENCODING 216
SWIDTH 600 0
DWIDTH 8 0
BBX 8 12 0 -1
BITMAP
0001
07E9
1D6C
342D
3469
709A
718A
3209
3A0D
1D68
1BE0
1000
ENDCHAR
STARTCHAR Ugrave
ENCODING 217
SWIDTH 561 0
DWIDTH 8 0
BBX 6 13 1 0
BITMAP
2800
0900
0000
C070
C070
C070
C070
C070
C070
C070
D070
A0A0
2F80
ENDCHAR
STARTCHAR Uacute
ENCODING 218
SWIDTH 561 0
DWIDTH 8 0
BBX 6 13 1 0
BITMAP
0280
0600
0000
C070
C070
C070
C070
C070
C070
C070
D070
A0A0
2F80
ENDCHAR
STARTCHAR Ucircumflex
ENCODING 219
SWIDTH 561 0
DWIDTH 8 0
BBX 6 13 1 0
BITMAP
0A00
2640
0000
C070
C070
C070
C070
C070
C070
C070
D070
A0A0
2F80
ENDCHAR
STARTCHAR Udieresis
ENCODING 220
SWIDTH 561 0
DWIDTH 8 0
BBX 6 13 1 0
BITMAP
1040
31C0
0000
C070
C070
C070
C070
C070
C070
C070
D070
A0A0
2F80
ENDCHAR
STARTCHAR Yacute
ENCODING 221
SWIDTH 524 0
DWIDTH 7 0
BBX 7 13 0 0
BITMAP
01D0
0240
0000
A02C
3434
2870
1CA0
0AC0
0780
0340
0340
0340
0340
ENDCHAR
STARTCHAR Thorn
ENCODING 222
SWIDTH 515 0
DWIDTH 7 0
BBX 6 10 1 0
BITMAP
D000
D000
FF40
D1D0
D0A0
D0A0
D1D0
FF40
D000
D000
ENDCHAR
STARTCHAR germandbls
ENCODING 223
SWIDTH 521 0
DWIDTH 7 0
BBX 6 11 1 0
BITMAP
6E00
A340
C240
C340
C700
C700
C380
C1D0
C0A0
C4A0
DB80
ENDCHAR
STARTCHAR agrave
ENCODING 224
SWIDTH 479 0
DWIDTH 7 0
BBX 6 11 0 0
BITMAP
1D00
0600
0000
1B80
34A0
0060
1BE0
3860
7060
35E0
1EB0
ENDCHAR
STARTCHAR aacute
ENCODING 225
SWIDTH 479 0
DWIDTH 7 0
BBX 6 11 0 0
BITMAP
01D0
0240
0000
1B80
34A0
0060
1BE0
3860
7060
35E0
1EB0
ENDCHAR
STARTCHAR acircumflex
ENCODING 226
SWIDTH 479 0
DWIDTH 7 0
BBX 6 11 0 0
BITMAP
0740
0980
0000
1B80
34A0
0060
1BE0
3860
7060
35E0
1EB0
ENDCHAR
STARTCHAR atilde
ENCODING 227
SWIDTH 479 0
DWIDTH 7 0
BBX 6 11 0 0
BITMAP
1D50
26C0
0000
1B80
34A0
0060
1BE0
3860
7060
35E0
1EB0
ENDCHAR
STARTCHAR adieresis
ENCODING 228
SWIDTH 479 0
DWIDTH 7 0
BBX 6 11 0 0
BITMAP
1450
28A0
0000
1B80
34A0
0060
1BE0
3860
7060
35E0
1EB0
ENDCHAR
STARTCHAR aring
ENCODING 229
SWIDTH 479 0
DWIDTH 7 0
BBX 6 12 0 0
BITMAP
0640
0880
0A40
0000
1B80
34A0
0060
1BE0
3860
7060
35E0
1EB0
ENDCHAR
STARTCHAR ae
ENCODING 230
SWIDTH 728 0
DWIDTH 10 0
BBX 10 8 0 0
BITMAP
1F9F80
34F4D0
00A0A0
1FFFE0
74A000
60A000
71F450
2F5F90
ENDCHAR
STARTCHAR ccedilla
ENCODING 231
SWIDTH 461 0
DWIDTH 6 0
BBX 6 11 0 -3
BITMAP
1B80
34A0
7060
7000
7000
7020
34A0
1B80
0600
0240
0740
ENDCHAR
STARTCHAR egrave
ENCODING 232
SWIDTH 468 0
DWIDTH 7 0
BBX 6 11 0 0
BITMAP
1D00
0600
0000
0B80
34A0
7070
7FF0
7000
7000
3860
1BD0
ENDCHAR
STARTCHAR eacute
ENCODING 233
SWIDTH 468 0
DWIDTH 7 0
BBX 6 11 0 0
BITMAP
01C0
0240
0000
0B80
34A0
7070
7FF0
7000
7000
3860
1BD0
ENDCHAR
STARTCHAR ecircumflex
ENCODING 234
SWIDTH 468 0
DWIDTH 7 0
BBX 6 11 0 0
BITMAP
0740
0980
0000
0B80
34A0
7070
7FF0
7000
7000
3860
1BD0
ENDCHAR
STARTCHAR edieresis
ENCODING 235
SWIDTH 468 0
DWIDTH 7 0
BBX 6 11 0 0
BITMAP
1040
2890
0000
0B80
34A0
7070
7FF0
7000
7000
3860
1BD0
ENDCHAR
STARTCHAR igrave
ENCODING 236
SWIDTH 234 0
DWIDTH 3 0
BBX 3 11 0 0
BITMAP
D0
70
00
34
34
34
34
34
34
34
34
ENDCHAR
STARTCHAR iacute
ENCODING 237
SWIDTH 234 0
DWIDTH 3 0
BBX 3 11 1 0
BITMAP
74
90
00
D0
D0
D0
D0
D0
D0
D0
D0
ENDCHAR
STARTCHAR icircumflex
ENCODING 238
SWIDTH 234 0
DWIDTH 3 0
BBX 3 11 0 0
BITMAP
74
98
00
34
34
34
34
34
34
34
34
ENDCHAR
STARTCHAR idieresis
ENCODING 239
SWIDTH 234 0
DWIDTH 3 0
BBX 5 11 -1 0
BITMAP
1040
6180
0000
0D00
0D00
0D00
0D00
0D00
0D00
0D00
0D00
ENDCHAR
STARTCHAR eth
ENCODING 240
SWIDTH 513 0
DWIDTH 7 0
BBX 6 11 1 0
BITMAP
6440
2F40
1F40
1280
2EC0
A1D0
D0D0
C0D0
C0C0
A280
2E00
ENDCHAR
STARTCHAR ntilde
ENCODING 241
SWIDTH 483 0
DWIDTH 7 0
BBX 5 11 1 0
BITMAP
7540
9B00
0000
DF40
E280
C180
C1C0
C1C0
C1C0
C1C0
C1C0
ENDCHAR
STARTCHAR ograve
ENCODING 242
SWIDTH 501 0
DWIDTH 7 0
BBX 7 11 0 0
BITMAP
1D00
0600
0000
0B80
28B0
7034
7034
7034
7034
3870
0B80
ENDCHAR
STARTCHAR oacute
ENCODING 243
SWIDTH 501 0
DWIDTH 7 0
BBX 7 11 0 0
BITMAP
01D0
0240
0000
0B80
28B0
7034
7034
7034
7034
3870
0B80
ENDCHAR
STARTCHAR ocircumflex
ENCODING 244
SWIDTH 501 0
DWIDTH 7 0
BBX 7 11 0 0
BITMAP
0740
0980
0000
0B80
28B0
7034
7034
7034
7034
3870
0B80
ENDCHAR
STARTCHAR otilde
ENCODING 245
SWIDTH 501 0
DWIDTH 7 0
BBX 7 11 0 0
BITMAP
1D50
26C0
0000
0B80
28B0
7034
7034
7034
7034
3870
0B80
ENDCHAR
STARTCHAR odieresis
ENCODING 246
SWIDTH 501 0
DWIDTH 7 0
BBX 7 11 0 0
BITMAP
1440
28A0
0000
0B80
28B0
7034
7034
7034
7034
3870
0B80
ENDCHAR
STARTCHAR divide
ENCODING 247
SWIDTH 500 0
DWIDTH 7 0
BBX 7 7 0 1
BITMAP
0200
0100
0000
7FF4
1550
0100
0700
ENDCHAR
STARTCHAR oslash
ENCODING 248
SWIDTH 498 0
DWIDTH 7 0
BBX 7 10 0 -1
BITMAP
0020
0BD0
28E0
31B4
7234
7234
3930
2CA0
1F80
1000
ENDCHAR
STARTCHAR ugrave
ENCODING 249
SWIDTH 483 0
DWIDTH 7 0
BBX 5 11 1 0
BITMAP
7400
1800
0000
C1C0
C1C0
C1C0
C1C0
C1C0
C1C0
D2C0
7EC0
ENDCHAR
STARTCHAR uacute
ENCODING 250
SWIDTH 483 0
DWIDTH 7 0
BBX 5 11 1 0
BITMAP
0700
0900
0000
C1C0
C1C0
C1C0
C1C0
C1C0
C1C0
D2C0
7EC0
ENDCHAR
STARTCHAR ucircumflex
ENCODING 251
SWIDTH 483 0
DWIDTH 7 0
BBX 5 11 1 0
BITMAP
1D00
2600
0000
C1C0
C1C0
C1C0
C1C0
C1C0
C1C0
D2C0
7EC0
ENDCHAR
STARTCHAR udieresis
ENCODING 252
SWIDTH 483 0
DWIDTH 7 0
BBX 5 11 1 0
BITMAP
4100
A240
0000
C1C0
C1C0
C1C0
C1C0
C1C0
C1C0
D2C0
7EC0
ENDCHAR
STARTCHAR yacute
ENCODING 253
SWIDTH 416 0
DWIDTH 6 0
BBX 6 14 0 -3
BITMAP
0280
0600
0000
A0D0
70C0
31C0
2680
2A40
1F00
0E00
0A00
0900
1C00
7400
ENDCHAR
STARTCHAR thorn
ENCODING 254
SWIDTH 508 0
DWIDTH 7 0
BBX 6 14 1 -3
BITMAP
D000
D000
D000
EF40
E280
D0C0
D0D0
D0D0
D0C0
E280
EF40
D000
D000
D000
ENDCHAR
STARTCHAR ydieresis
ENCODING 255
SWIDTH 416 0
DWIDTH 6 0
BBX 6 14 0 -3
BITMAP
1040
34C0
0000
A0D0
70C0
31C0
2680
2A40
1F00
0E00
0A00
0900
1C00
7400
ENDCHAR
STARTCHAR Amacron
ENCODING 256
SWIDTH 576 0
DWIDTH 8 0
BBX 8 12 0 0
BITMAP
0FF0
0000
0280
03C0
0690
0960
0C30
1C24
2FF8
341C
700D
A00A
ENDCHAR
STARTCHAR amacron
ENCODING 257
SWIDTH 479 0
DWIDTH 7 0
BBX 6 10 0 0
BITMAP
1FE0
0000
1B80
34A0
0060
1BE0
3860
7060
35E0
1EB0
ENDCHAR
STARTCHAR Abreve
ENCODING 258
SWIDTH 576 0
DWIDTH 8 0
BBX 8 13 0 0
BITMAP
0D30
07D0
0000
0280
03C0
0690
0960
0C30
1C24
2FF8
341C
700D
A00A
ENDCHAR
STARTCHAR abreve
ENCODING 259
SWIDTH 479 0
DWIDTH 7 0
BBX 6 11 0 0
BITMAP
1890
0B80
0000
1B80
34A0
0060
1BE0
3860
7060
35E0
1EB0
ENDCHAR
STARTCHAR Aogonek
ENCODING 260
SWIDTH 576 0
DWIDTH 8 0
BBX 8 13 0 -3
BITMAP
0280
03C0
0690
0960
0C30
1C24
2FF8
341C
700D
A00A
0008
0018
001E
ENDCHAR
STARTCHAR aogonek
ENCODING 261
SWIDTH 479 0
DWIDTH 7 0
BBX 6 11 0 -3
BITMAP
1B80
34A0
0060
1BE0
3860
7060
35E0
1EB0
0090
01C0
00E0
ENDCHAR
STARTCHAR Cacute
ENCODING 262
SWIDTH 566 0
DWIDTH 8 0
BBX 6 13 1 0
BITMAP
0280
0600
0000
2F80
74A0
D030
D010
C000
C000
C010
D030
74A0
2F80
ENDCHAR
STARTCHAR cacute
ENCODING 263
SWIDTH 461 0
DWIDTH 6 0
BBX 6 11 0 0
BITMAP
0280
0600
0000
1B80
34A0
7060
7000
7000
7020
34A0
1B80
ENDCHAR
STARTCHAR Ccircumflex
ENCODING 264
SWIDTH 566 0
DWIDTH 8 0
BBX 6 13 1 0
BITMAP
0A00
1940
0000
2F80
74A0
D030
D010
C000
C000
C010
D030
74A0
2F80
ENDCHAR
STARTCHAR ccircumflex
ENCODING 265
SWIDTH 461 0
DWIDTH 6 0
BBX 6 11 0 0
BITMAP
0B00
1980
0000
1B80
34A0
7060
7000
7000
7020
34A0
1B80
ENDCHAR
STARTCHAR Cdotaccent
ENCODING 266
SWIDTH 566 0
DWIDTH 8 0
BBX 6 13 1 0
BITMAP
0500
0A00
0000
2F80
74A0
D030
D010
C000
C000
C010
D030
74A0
2F80
ENDCHAR
STARTCHAR cdotaccent
ENCODING 267
SWIDTH 461 0
DWIDTH 6 0
BBX 6 11 0 0
BITMAP
0100
0600
0000
1B80
34A0
7060
7000
7000
7020
34A0
1B80
ENDCHAR
STARTCHAR Ccaron
ENCODING 268
SWIDTH 566 0
DWIDTH 8 0
BBX 6 13 1 0
BITMAP
1980
0A00
0000
2F80
74A0
D030
D010
C000
C000
C010
D030
74A0
2F80
ENDCHAR
STARTCHAR ccaron
ENCODING 269
SWIDTH 461 0
DWIDTH 6 0
BBX 6 11 0 0
BITMAP
1980
0A00
0000
1B80
34A0
7060
7000
7000
7020
34A0
1B80
ENDCHAR
STARTCHAR Dcaron
ENCODING 270
SWIDTH 570 0
DWIDTH 8 0
BBX 6 13 1 0
BITMAP
2640
0D00
0000
FF40
D1D0
D070
D070
D030
D030
D070
D070
D1D0
FF40
ENDCHAR
STARTCHAR dcaron
ENCODING 271
SWIDTH 569 0
DWIDTH 8 0
BBX 8 11 0 0
BITMAP
0077
0076
0075
1FB0
38B0
7070
7070
7070
7070
34B0
1FB0
ENDCHAR
STARTCHAR Dcroat
ENCODING 272
SWIDTH 585 0
DWIDTH 8 0
BBX 8 10 0 0
BITMAP
2FE0
2868
281C
280D
FE0D
280D
280D
281C
2878
2FE0
ENDCHAR
STARTCHAR dcroat
ENCODING 273
SWIDTH 529 0
DWIDTH 7 0
BBX 7 11 0 0
BITMAP
0070
02FC
0070
1FB0
38B0
7070
7070
7070
7070
38B0
1FB0
ENDCHAR
STARTCHAR Emacron
ENCODING 274
SWIDTH 496 0
DWIDTH 7 0
BBX 6 12 1 0
BITMAP
7F80
0000
FFD0
D000
D000
D000
FFC0
D000
D000
D000
D000
FFD0
ENDCHAR
STARTCHAR emacron
ENCODING 275
SWIDTH 468 0
DWIDTH 7 0
BBX 6 10 0 0
BITMAP
2FD0
0000
0B80
34A0
7070
7FF0
7000
7000
3860
1BD0
ENDCHAR
STARTCHAR Ebreve
ENCODING 276
SWIDTH 496 0
DWIDTH 7 0
BBX 6 13 1 0
BITMAP
7180
2E00
0000
FFD0
D000
D000
D000
FFC0
D000
D000
D000
D000
FFD0
ENDCHAR
STARTCHAR ebreve
ENCODING 277
SWIDTH 468 0
DWIDTH 7 0
BBX 6 11 0 0
BITMAP
2890
0B80
0000
0B80
34A0
7070
7FF0
7000
7000
3860
1BD0
ENDCHAR
STARTCHAR Edotaccent
ENCODING 278
SWIDTH 496 0
DWIDTH 7 0
BBX 6 13 1 0
BITMAP
0400
0D00
0000
FFD0
D000
D000
D000
FFC0
D000
D000
D000
D000
FFD0
ENDCHAR
STARTCHAR edotaccent
ENCODING 279
SWIDTH 468 0
DWIDTH 7 0
BBX 6 11 0 0
BITMAP
0100
0700
0000
0B80
34A0
7070
7FF0
7000
7000
3860
1BD0
ENDCHAR
STARTCHAR Eogonek
ENCODING 280
SWIDTH 496 0
DWIDTH 7 0
BBX 6 13 1 -3
BITMAP
FFD0
D000
D000
D000
FFC0
D000
D000
D000
D000
FFD0
0280
0340
02C0
ENDCHAR
STARTCHAR eogonek
ENCODING 281
SWIDTH 468 0
DWIDTH 7 0
BBX 6 11 0 -3
BITMAP
0B80
34A0
7070
7FF0
7000
7000
3860
1BD0
0300
0700
0380
ENDCHAR
STARTCHAR Ecaron
ENCODING 282
SWIDTH 496 0
DWIDTH 7 0
BBX 6 13 1 0
BITMAP
2640
0D00
0000
FFD0
D000
D000
D000
FFC0
D000
D000
D000
D000
FFD0
ENDCHAR
STARTCHAR ecaron
ENCODING 283
SWIDTH 468 0
DWIDTH 7 0
BBX 6 11 0 0
BITMAP
1980
0740
0000
0B80
34A0
7070
7FF0
7000
7000
3860
1BD0
ENDCHAR
STARTCHAR Gcircumflex
ENCODING 284
SWIDTH 590 0
DWIDTH 8 0
BBX 7 13 1 0
BITMAP
0A00
1640
0000
2F80
B4B0
D034
C000
C000
C2F4
D034
D034
7474
2FD0
ENDCHAR
STARTCHAR gcircumflex
ENCODING 285
SWIDTH 492 0
DWIDTH 7 0
BBX 6 14 0 -3
BITMAP
0B40
1980
0000
1F70
38B0
7070
7070
7070
7070
34B0
1FB0
0070
24A0
1F80
ENDCHAR
STARTCHAR Gbreve
ENCODING 286
SWIDTH 590 0
DWIDTH 8 0
BBX 7 13 1 0
BITMAP
35C0
1F40
0000
2F80
B4B0
D034
C000
C000
C2F4
D034
D034
7474
2FD0
ENDCHAR
STARTCHAR gbreve
ENCODING 287
SWIDTH 492 0
DWIDTH 7 0
BBX 6 14 0 -3
BITMAP
2890
0B80
0000
1F70
38B0
7070
7070
7070
7070
34B0
1FB0
0070
24A0
1F80
ENDCHAR
STARTCHAR Gdotaccent
ENCODING 288
SWIDTH 590 0
DWIDTH 8 0
BBX 7 13 1 0
BITMAP
0500
0A00
0000
2F80
B4B0
D034
C000
C000
C2F4
D034
D034
7474
2FD0
ENDCHAR
STARTCHAR gdotaccent
ENCODING 289
SWIDTH 492 0
DWIDTH 7 0
BBX 6 14 0 -3
BITMAP
0100
0700
0000
1F70
38B0
7070
7070
7070
7070
34B0
1FB0
0070
24A0
1F80
ENDCHAR
STARTCHAR uni0122
ENCODING 290
SWIDTH 590 0
DWIDTH 8 0
BBX 7 14 1 -4
BITMAP
2F80
B4B0
D034
C000
C000
C2F4
D034
D034
7474
2FD0
0000
0700
0600
0500
ENDCHAR
STARTCHAR uni0123
ENCODING 291
SWIDTH 492 0
DWIDTH 7 0
BBX 6 15 0 -3
BITMAP
0200
0700
0700
0000
1F70
38B0
7070
7070
7070
7070
34B0
1FB0
0070
24A0
1F80
ENDCHAR
STARTCHAR Hcircumflex
ENCODING 292
SWIDTH 620 0
DWIDTH 9 0
BBX 7 13 1 0
BITMAP
0B00
1980
0000
D028
D028
D028
D028
FFF8
D028
D028
D028
D028
D028
ENDCHAR
STARTCHAR hcircumflex
ENCODING 293
SWIDTH 482 0
DWIDTH 7 0
BBX 5 14 1 0
BITMAP
2800
6500
0000
C000
C000
C000
EF40
E280
C180
C1C0
C1C0
C1C0
C1C0
C1C0
ENDCHAR
STARTCHAR Hbar
ENCODING 294
SWIDTH 611 0
DWIDTH 9 0
BBX 9 10 0 0
BITMAP
340A00
340A00
BFFF40
340A00
3FFE00
340A00
340A00
340A00
340A00
340A00
ENDCHAR
STARTCHAR hbar
ENCODING 295
SWIDTH 497 0
DWIDTH 7 0
BBX 6 11 0 0
BITMAP
3400
FE00
3400
3BD0
38B0
3430
3430
3430
3430
3430
3430
ENDCHAR
STARTCHAR Itilde
ENCODING 296
SWIDTH 250 0
DWIDTH 4 0
BBX 5 13 -1 0
BITMAP
2980
6740
0000
0D00
0D00
0D00
0D00
0D00
0D00
0D00
0D00
0D00
0D00
ENDCHAR
STARTCHAR itilde
ENCODING 297
SWIDTH 234 0
DWIDTH 3 0
BBX 5 11 -1 0
BITMAP
3980
5740
0000
0D00
0D00
0D00
0D00
0D00
0D00
0D00
0D00
ENDCHAR
STARTCHAR Imacron
ENCODING 298
SWIDTH 250 0
DWIDTH 4 0
BBX 5 12 -1 0
BITMAP
7F80
0000
0D00
0D00
0D00
0D00
0D00
0D00
0D00
0D00
0D00
0D00
ENDCHAR
STARTCHAR imacron
ENCODING 299
SWIDTH 234 0
DWIDTH 3 0
BBX 5 10 -1 0
BITMAP
7F80
0000
0D00
0D00
0D00
0D00
0D00
0D00
0D00
0D00
ENDCHAR
STARTCHAR Ibreve
ENCODING 300
SWIDTH 250 0
DWIDTH 4 0
BBX 5 13 -1 0
BITMAP
7180
2F40
0000
0D00
0D00
0D00
0D00
0D00
0D00
0D00
0D00
0D00
0D00
ENDCHAR
STARTCHAR ibreve
ENCODING 301
SWIDTH 234 0
DWIDTH 3 0
BBX 5 11 -1 0
BITMAP
6280
2E00
0000
0D00
0D00
0D00
0D00
0D00
0D00
0D00
0D00
ENDCHAR
STARTCHAR Iogonek
ENCODING 302
SWIDTH 250 0
DWIDTH 4 0
BBX 3 13 0 -3
BITMAP
34
34
34
34
34
34
34
34
34
34
60
90
74
ENDCHAR
STARTCHAR iogonek
ENCODING 303
SWIDTH 229 0
DWIDTH 3 0
BBX 3 14 0 -3
BITMAP
10
34
00
34
34
34
34
34
34
34
34
60
D0
B0
ENDCHAR
STARTCHAR Idotaccent
ENCODING 304
SWIDTH 250 0
DWIDTH 4 0
BBX 2 13 1 0
BITMAP
40
90
00
D0
D0
D0
D0
D0
D0
D0
D0
D0
D0
ENDCHAR
STARTCHAR dotlessi
ENCODING 305
SWIDTH 234 0
DWIDTH 3 0
BBX 2 8 1 0
BITMAP
D0
D0
D0
D0
D0
D0
D0
D0
ENDCHAR
STARTCHAR IJ
ENCODING 306
SWIDTH 733 0
DWIDTH 10 0
BBX 9 10 1 0
BITMAP
D00340
D00340
D00340
D00340
D00340
D00340
D00340
D34340
D28B00
D0B900
ENDCHAR
STARTCHAR ij
ENCODING 307
SWIDTH 452 0
DWIDTH 6 0
BBX 5 14 1 -3
BITMAP
4100
D240
0000
D340
D340
D340
D340
D340
D340
D340
D340
0340
0340
0E00
ENDCHAR
STARTCHAR Jcircumflex
ENCODING 308
SWIDTH 483 0
DWIDTH 7 0
BBX 7 13 0 0
BITMAP
00A0
0164
0000
00A0
00A0
00A0
00A0
00A0
00A0
00A0
60A0
75D0
1F80
ENDCHAR
STARTCHAR jcircumflex
ENCODING 309
SWIDTH 237 0
DWIDTH 3 0
BBX 4 14 0 -3
BITMAP
78
99
00
34
34
34
34
34
34
34
34
34
30
E0
ENDCHAR
STARTCHAR uni0136
ENCODING 310
SWIDTH 544 0
DWIDTH 8 0
BBX 7 14 1 -4
BITMAP
D0B0
D1D0
D340
DA00
ED00
FA00
D340
D1C0
D0A0
D074
0000
0A00
0900
0800
ENDCHAR
STARTCHAR uni0137
ENCODING 311
SWIDTH 450 0
DWIDTH 6 0
BBX 5 15 1 -4
BITMAP
C000
C000
C000
C380
CA00
DC00
F800
ED00
CA00
C340
C2C0
0000
1800
2800
2400
ENDCHAR
STARTCHAR kgreenlandic
ENCODING 312
SWIDTH 491 0
DWIDTH 7 0
BBX 5 8 1 0
BITMAP
D1C0
D340
DA00
DD00
FC00
DE00
D740
D1C0
ENDCHAR
STARTCHAR Lacute
ENCODING 313
SWIDTH 475 0
DWIDTH 7 0
BBX 6 13 1 0
BITMAP
7400
9000
0000
D000
D000
D000
D000
D000
D000
D000
D000
D000
FFD0
ENDCHAR
STARTCHAR lacute
ENCODING 314
SWIDTH 229 0
DWIDTH 3 0
BBX 3 14 1 0
BITMAP
74
90
00
D0
D0
D0
D0
D0
D0
D0
D0
D0
D0
D0
ENDCHAR
STARTCHAR uni013B
ENCODING 315
SWIDTH 475 0
DWIDTH 7 0
BBX 6 14 1 -4
BITMAP
D000
D000
D000
D000
D000
D000
D000
D000
D000
FFD0
0000
0D00
0C00
0800
ENDCHAR
STARTCHAR uni013C
ENCODING 316
SWIDTH 229 0
DWIDTH 3 0
BBX 3 15 0 -4
BITMAP
34
34
34
34
34
34
34
34
34
34
34
00
34
30
60
ENDCHAR
STARTCHAR Lcaron
ENCODING 317
SWIDTH 475 0
DWIDTH 7 0
BBX 6 10 1 0
BITMAP
D700
D600
D500
D000
D000
D000
D000
D000
D000
FFD0
ENDCHAR
STARTCHAR lcaron
ENCODING 318
SWIDTH 302 0
DWIDTH 4 0
BBX 4 11 1 0
BITMAP
DD
DC
D8
D0
D0
D0
D0
D0
D0
D0
D0
ENDCHAR
STARTCHAR Ldot
ENCODING 319
SWIDTH 475 0
DWIDTH 7 0
BBX 6 10 1 0
BITMAP
D000
D000
D000
D100
D600
D000
D000
D000
D000
FFD0
ENDCHAR
STARTCHAR ldot
ENCODING 320
SWIDTH 336 0
DWIDTH 5 0
BBX 4 11 1 0
BITMAP
D0
D0
D0
D0
D4
DD
D0
D0
D0
D0
D0
ENDCHAR
STARTCHAR Lslash
ENCODING 321
SWIDTH 475 0
DWIDTH 7 0
BBX 7 10 0 0
BITMAP
3400
3400
3400
3400
3A00
B800
3400
3400
3400
3FF4
ENDCHAR
STARTCHAR lslash
ENCODING 322
SWIDTH 250 0
DWIDTH 4 0
BBX 3 11 0 0
BITMAP
34
34
34
34
3C
B4
34
34
34
34
34
ENDCHAR
STARTCHAR Nacute
ENCODING 323
SWIDTH 619 0
DWIDTH 9 0
BBX 7 13 1 0
BITMAP
02C0
0200
0000
E028
F028
F828
DC28
DA28
D368
D2A8
D0F8
D078
D038
ENDCHAR
STARTCHAR nacute
ENCODING 324
SWIDTH 483 0
DWIDTH 7 0
BBX 5 11 1 0
BITMAP
0740
0900
0000
DF40
E280
C180
C1C0
C1C0
C1C0
C1C0
C1C0
ENDCHAR
STARTCHAR uni0145
ENCODING 325
SWIDTH 619 0
DWIDTH 9 0
BBX 7 14 1 -4
BITMAP
E028
F028
F828
DC28
DA28
D368
D2A8
D0F8
D078
D038
0000
0600
0600
0900
ENDCHAR
STARTCHAR uni0146
ENCODING 326
SWIDTH 483 0
DWIDTH 7 0
BBX 5 12 1 -4
BITMAP
DF40
E280
C180
C1C0
C1C0
C1C0
C1C0
C1C0
0000
1C00
1800
1400
ENDCHAR
STARTCHAR Ncaron
ENCODING 327
SWIDTH 619 0
DWIDTH 9 0
BBX 7 13 1 0
BITMAP
1980
0700
0000
E028
F028
F828
DC28
DA28
D368
D2A8
D0F8
D078
D038
ENDCHAR
STARTCHAR ncaron
ENCODING 328
SWIDTH 483 0
DWIDTH 7 0
BBX 5 11 1 0
BITMAP
2600
1D00
0000
DF40
E280
C180
C1C0
C1C0
C1C0
C1C0
C1C0
ENDCHAR
STARTCHAR napostrophe
ENCODING 329
SWIDTH 483 0
DWIDTH 7 0
BBX 6 10 0 0
BITMAP
D000
C000
B7D0
38A0
3060
3070
3070
3070
3070
3070
ENDCHAR
STARTCHAR Eng
ENCODING 330
SWIDTH 599 0
DWIDTH 8 0
BBX 7 13 1 -3
BITMAP
E034
F034
F834
DC34
DA34
D734
D2B4
D0F4
D0B4
D034
0034
0034
00E0
ENDCHAR
STARTCHAR eng
ENCODING 331
SWIDTH 498 0
DWIDTH 7 0
BBX 5 11 1 -3
BITMAP
DF40
E280
C1C0
C1C0
C1C0
C1C0
C1C0
C1C0
01C0
01C0
0740
ENDCHAR
STARTCHAR Omacron
ENCODING 332
SWIDTH 600 0
DWIDTH 8 0
BBX 7 12 1 0
BITMAP
2FD0
0000
2F80
75B0
D034
C024
C028
C028
C024
D034
75B0
2F80
ENDCHAR
STARTCHAR omacron
ENCODING 333
SWIDTH 501 0
DWIDTH 7 0
BBX 7 10 0 0
BITMAP
2FD0
0000
0B80
28B0
7034
7034
7034
7034
3870
0B80
ENDCHAR
STARTCHAR Obreve
ENCODING 334
SWIDTH 600 0
DWIDTH 8 0
BBX 7 13 1 0
BITMAP
24D0
1F80
0000
2F80
75B0
D034
C024
C028
C028
C024
D034
75B0
2F80
ENDCHAR
STARTCHAR obreve
ENCODING 335
SWIDTH 501 0
DWIDTH 7 0
BBX 7 11 0 0
BITMAP
2890
0B80
0000
0B80
28B0
7034
7034
7034
7034
3870
0B80
ENDCHAR
STARTCHAR Ohungarumlaut
ENCODING 336
SWIDTH 600 0
DWIDTH 8 0
BBX 7 13 1 0
BITMAP
0AA0
0980
0000
2F80
75B0
D034
C024
C028
C028
C024
D034
75B0
2F80
ENDCHAR
STARTCHAR ohungarumlaut
ENCODING 337
SWIDTH 501 0
DWIDTH 7 0
BBX 7 11 0 0
BITMAP
06A0
0980
0000
0B80
28B0
7034
7034
7034
7034
3870
0B80
ENDCHAR
STARTCHAR OE
ENCODING 338
SWIDTH 826 0
DWIDTH 12 0
BBX 11 10 0 0
BITMAP
0BFFF4
283400
343400
703400
703FF0
703400
703400
343400
283400
0BFFF4
ENDCHAR
STARTCHAR oe
ENCODING 339
SWIDTH 777 0
DWIDTH 11 0
BBX 11 8 0 0
BITMAP
0B87D0
28BD70
303434
703FF4
703400
303800
28BD20
0B87E0
ENDCHAR
STARTCHAR Racute
ENCODING 340
SWIDTH 530 0
DWIDTH 7 0
BBX 6 13 1 0
BITMAP
0740
0900
0000
FF80
D1D0
D0A0
D060
D1D0
FF80
D280
D1C0
D0A0
D070
ENDCHAR
STARTCHAR racute
ENCODING 341
SWIDTH 304 0
DWIDTH 4 0
BBX 4 11 1 0
BITMAP
1D
24
00
EC
E4
C0
C0
C0
C0
C0
C0
ENDCHAR
STARTCHAR uni0156
ENCODING 342
SWIDTH 530 0
DWIDTH 7 0
BBX 6 14 1 -4
BITMAP
FF80
D1D0
D0A0
D060
D1D0
FF80
D280
D1C0
D0A0
D070
0000
0D00
0C00
1800
ENDCHAR
STARTCHAR uni0157
ENCODING 343
SWIDTH 304 0
DWIDTH 4 0
BBX 4 12 0 -4
BITMAP
3B
39
30
30
30
30
30
30
00
30
30
60
ENDCHAR
STARTCHAR Rcaron
ENCODING 344
SWIDTH 530 0
DWIDTH 7 0
BBX 6 13 1 0
BITMAP
2640
0D00
0000
FF80
D1D0
D0A0
D060
D1D0
FF80
D280
D1C0
D0A0
D070
ENDCHAR
STARTCHAR rcaron
ENCODING 345
SWIDTH 304 0
DWIDTH 4 0
BBX 3 11 1 0
BITMAP
DC
74
00
EC
E4
C0
C0
C0
C0
C0
C0
ENDCHAR
STARTCHAR Sacute
ENCODING 346
SWIDTH 518 0
DWIDTH 7 0
BBX 7 13 0 0
BITMAP
01D0
0240
0000
0BD0
3874
3028
3400
1E40
02E0
0038
7028
3874
1BE0
ENDCHAR
STARTCHAR sacute
ENCODING 347
SWIDTH 455 0
DWIDTH 6 0
BBX 5 11 1 0
BITMAP
0740
0900
0000
7E00
D340
D140
B800
1B40
4280
D280
7E00
ENDCHAR
STARTCHAR Scircumflex
ENCODING 348
SWIDTH 518 0
DWIDTH 7 0
BBX 7 13 0 0
BITMAP
0780
0990
0000
0BD0
3874
3028
3400
1E40
02E0
0038
7028
3874
1BE0
ENDCHAR
STARTCHAR scircumflex
ENCODING 349
SWIDTH 455 0
DWIDTH 6 0
BBX 5 11 1 0
BITMAP
1D00
2600
0000
7E00
D340
D140
B800
1B40
4280
D280
7E00
ENDCHAR
STARTCHAR Scedilla
ENCODING 350
SWIDTH 518 0
DWIDTH 7 0
BBX 7 13 0 -3
BITMAP
0BD0
3874
3028
3400
1E40
02E0
0038
7028
3874
1BE0
0240
0080
0280
ENDCHAR
STARTCHAR scedilla
ENCODING 351
SWIDTH 455 0
DWIDTH 6 0
BBX 5 11 1 -3
BITMAP
7E00
D340
D140
B800
1B40
4280
D280
7E00
0800
0500
0D00
ENDCHAR
STARTCHAR Scaron
ENCODING 352
SWIDTH 518 0
DWIDTH 7 0
BBX 7 13 0 0
BITMAP
0990
0340
0000
0BD0
3874
3028
3400
1E40
02E0
0038
7028
3874
1BE0
ENDCHAR
STARTCHAR scaron
ENCODING 353
SWIDTH 455 0
DWIDTH 6 0
BBX 5 11 1 0
BITMAP
2600
1D00
0000
7E00
D340
D140
B800
1B40
4280
D280
7E00
ENDCHAR
STARTCHAR uni0162
ENCODING 354
SWIDTH 520 0
DWIDTH 7 0
BBX 7 13 0 -3
BITMAP
BFFC
0340
0340
0340
0340
0340
0340
0340
0340
0340
0200
0180
0380
ENDCHAR
STARTCHAR uni0163
ENCODING 355
SWIDTH 295 0
DWIDTH 4 0
BBX 4 13 0 -3
BITMAP
24
24
FE
24
24
24
24
24
28
1E
09
02
0A
ENDCHAR
STARTCHAR Tcaron
ENCODING 356
SWIDTH 520 0
DWIDTH 7 0
BBX 7 13 0 0
BITMAP
0990
0340
0000
BFFC
0340
0340
0340
0340
0340
0340
0340
0340
0340
ENDCHAR
STARTCHAR tcaron
ENCODING 357
SWIDTH 314 0
DWIDTH 4 0
BBX 5 11 0 0
BITMAP
0280
2640
2600
FE00
2400
2400
2400
2400
2400
2800
1E00
ENDCHAR
STARTCHAR Tbar
ENCODING 358
SWIDTH 520 0
DWIDTH 7 0
BBX 7 10 0 0
BITMAP
BFFC
0340
0340
0FE0
0340
0340
0340
0340
0340
0340
ENDCHAR
STARTCHAR tbar
ENCODING 359
SWIDTH 295 0
DWIDTH 4 0
BBX 4 10 0 0
BITMAP
24
24
FE
24
FE
28
24
24
28
1E
ENDCHAR
STARTCHAR Utilde
ENCODING 360
SWIDTH 561 0
DWIDTH 8 0
BBX 6 13 1 0
BITMAP
28C0
2780
0000
C070
C070
C070
C070
C070
C070
C070
D070
A0A0
2F80
ENDCHAR
STARTCHAR utilde
ENCODING 361
SWIDTH 483 0
DWIDTH 7 0
BBX 5 11 1 0
BITMAP
7540
9B00
0000
C1C0
C1C0
C1C0
C1C0
C1C0
C1C0
D2C0
7EC0
ENDCHAR
STARTCHAR Umacron
ENCODING 362
SWIDTH 561 0
DWIDTH 8 0
BBX 6 12 1 0
BITMAP
3FC0
0000
C070
C070
C070
C070
C070
C070
C070
D070
A0A0
2F80
ENDCHAR
STARTCHAR umacron
ENCODING 363
SWIDTH 483 0
DWIDTH 7 0
BBX 5 10 1 0
BITMAP
BF40
0000
C1C0
C1C0
C1C0
C1C0
C1C0
C1C0
D2C0
7EC0
ENDCHAR
STARTCHAR Ubreve
ENCODING 364
SWIDTH 561 0
DWIDTH 8 0
BBX 6 13 1 0
BITMAP
31C0
1F40
0000
C070
C070
C070
C070
C070
C070
C070
D070
A0A0
2F80
ENDCHAR
STARTCHAR ubreve
ENCODING 365
SWIDTH 483 0
DWIDTH 7 0
BBX 5 11 1 0
BITMAP
A240
2E00
0000
C1C0
C1C0
C1C0
C1C0
C1C0
C1C0
D2C0
7EC0
ENDCHAR
STARTCHAR Uring
ENCODING 366
SWIDTH 561 0
DWIDTH 8 0
BBX 6 14 1 0
BITMAP
0A00
1540
1A00
0000
C070
C070
C070
C070
C070
C070
C070
D070
A0A0
2F80
ENDCHAR
STARTCHAR uring
ENCODING 367
SWIDTH 483 0
DWIDTH 7 0
BBX 5 12 1 0
BITMAP
2900
2200
2900
0000
C1C0
C1C0
C1C0
C1C0
C1C0
C1C0
D2C0
7EC0
ENDCHAR
STARTCHAR Uhungarumlaut
ENCODING 368
SWIDTH 561 0
DWIDTH 8 0
BBX 6 13 1 0
BITMAP
0DD0
1A80
0000
C070
C070
C070
C070
C070
C070
C070
D070
A0A0
2F80
ENDCHAR
STARTCHAR uhungarumlaut
ENCODING 369
SWIDTH 483 0
DWIDTH 7 0
BBX 5 11 1 0
BITMAP
2A80
2600
0000
C1C0
C1C0
C1C0
C1C0
C1C0
C1C0
D2C0
7EC0
ENDCHAR
STARTCHAR Uogonek
ENCODING 370
SWIDTH 561 0
DWIDTH 8 0
BBX 6 13 1 -3
BITMAP
C070
C070
C070
C070
C070
C070
C070
D070
A0A0
2F80
0700
0600
0780
ENDCHAR
STARTCHAR uogonek
ENCODING 371
SWIDTH 483 0
DWIDTH 7 0
BBX 5 11 1 -3
BITMAP
C1C0
C1C0
C1C0
C1C0
C1C0
C1C0
D2C0
7EC0
0240
0300
0380
ENDCHAR
STARTCHAR Wcircumflex
ENCODING 372
SWIDTH 761 0
DWIDTH 11 0
BBX 11 13 0 0
BITMAP
007400
009800
000000
607034
707470
34B460
24D8A0
28CC90
198CD0
1E49C0
0F4780
0B0380
0A0340
ENDCHAR
STARTCHAR wcircumflex
ENCODING 373
SWIDTH 649 0
DWIDTH 9 0
BBX 9 11 0 0
BITMAP
01D000
026000
000000
A0C280
71D240
32E340
367300
2B3600
1E2D00
1D1D00
0D0C00
ENDCHAR
STARTCHAR Ycircumflex
ENCODING 374
SWIDTH 524 0
DWIDTH 7 0
BBX 7 13 0 0
BITMAP
0780
0990
0000
A02C
3434
2870
1CA0
0AC0
0780
0340
0340
0340
0340
ENDCHAR
STARTCHAR ycircumflex
ENCODING 375
SWIDTH 416 0
DWIDTH 6 0
BBX 6 14 0 -3
BITMAP
0A00
1940
0000
A0D0
70C0
31C0
2680
2A40
1F00
0E00
0A00
0900
1C00
7400
ENDCHAR
STARTCHAR Ydieresis
ENCODING 376
SWIDTH 524 0
DWIDTH 7 0
BBX 7 13 0 0
BITMAP
0410
1860
0000
A02C
3434
2870
1CA0
0AC0
0780
0340
0340
0340
0340
ENDCHAR
STARTCHAR Zacute
ENCODING 377
SWIDTH 522 0
DWIDTH 7 0
BBX 7 13 0 0
BITMAP
01D0
0240
0000
7FF8
0074
00A0
01C0
0280
0700
0D00
2800
3400
7FF8
ENDCHAR
STARTCHAR zacute
ENCODING 378
SWIDTH 438 0
DWIDTH 6 0
BBX 6 11 0 0
BITMAP
0280
0600
0000
7FD0
01C0
0280
0700
0D00
1C00
3400
7FE0
ENDCHAR
STARTCHAR Zdotaccent
ENCODING 379
SWIDTH 522 0
DWIDTH 7 0
BBX 7 13 0 0
BITMAP
0100
0340
0000
7FF8
0074
00A0
01C0
0280
0700
0D00
2800
3400
7FF8
ENDCHAR
STARTCHAR zdotaccent
ENCODING 380
SWIDTH 438 0
DWIDTH 6 0
BBX 6 11 0 0
BITMAP
0100
0A00
0000
7FD0
01C0
0280
0700
0D00
1C00
3400
7FE0
ENDCHAR
STARTCHAR Zcaron
ENCODING 381
SWIDTH 522 0
DWIDTH 7 0
BBX 7 13 0 0
BITMAP
0990
0340
0000
7FF8
0074
00A0
01C0
0280
0700
0D00
2800
3400
7FF8
ENDCHAR
STARTCHAR zcaron
ENCODING 382
SWIDTH 438 0
DWIDTH 6 0
BBX 6 11 0 0
BITMAP
1980
0A00
0000
7FD0
01C0
0280
0700
0D00
1C00
3400
7FE0
ENDCHAR
STARTCHAR longs
ENCODING 383
SWIDTH 234 0
DWIDTH 3 0
BBX 3 11 1 0
BITMAP
78
A0
D0
D0
D0
D0
D0
D0
D0
D0
D0
ENDCHAR
STARTCHAR uni018F
ENCODING 399
SWIDTH 597 0
DWIDTH 8 0
BBX 8 10 0 0
BITMAP
1BE0
1478
001D
000D
000A
7FFE
7009
300C
2968
0BE0
ENDCHAR
STARTCHAR florin
ENCODING 402
SWIDTH 309 0
DWIDTH 4 0
BBX 4 14 0 -3
BITMAP
0B
28
28
BE
28
28
28
28
28
28
28
28
24
E0
ENDCHAR
STARTCHAR Ohorn
ENCODING 416
SWIDTH 592 0
DWIDTH 8 0
BBX 9 11 0 0
BITMAP
000240
0BE300
2D6E00
341C00
700D00
700900
700900
700D00
341C00
2D6800
0BE000
ENDCHAR
STARTCHAR ohorn
ENCODING 417
SWIDTH 502 0
DWIDTH 7 0
BBX 7 9 0 0
BITMAP
0008
0B9C
28B8
3030
7034
7034
3034
28A0
0B80
ENDCHAR
STARTCHAR Uhorn
ENCODING 431
SWIDTH 608 0
DWIDTH 9 0
BBX 9 11 1 0
BITMAP
000340
C07700
C07D00
C07000
C07000
C07000
C07000
C07000
D07000
A1D000
2F8000
ENDCHAR
STARTCHAR uhorn
ENCODING 432
SWIDTH 549 0
DWIDTH 8 0
BBX 7 9 1 0
BITMAP
0004
C1D8
C1F0
C1C0
C1C0
C1C0
C1C0
D2C0
7EC0
ENDCHAR
STARTCHAR uni01F0
ENCODING 496
SWIDTH 237 0
DWIDTH 3 0
BBX 4 14 0 -3
BITMAP
99
34
00
34
34
34
34
34
34
34
34
34
30
E0
ENDCHAR
STARTCHAR Aringacute
ENCODING 506
SWIDTH 576 0
DWIDTH 8 0
BBX 8 13 0 0
BITMAP
00A0
0080
02C0
03C0
03C0
0690
0960
0C30
1C24
2FF8
341C
700D
A00A
ENDCHAR
STARTCHAR aringacute
ENCODING 507
SWIDTH 479 0
DWIDTH 7 0
BBX 6 11 0 0
BITMAP
01C0
0240
0740
1FC0
34A0
0060
1BE0
3860
7060
35E0
1EB0
ENDCHAR
STARTCHAR AEacute
ENCODING 508
SWIDTH 812 0
DWIDTH 11 0
BBX 11 13 0 0
BITMAP
001D00
002400
000000
007FF8
00B800
01D800
025800
071FF4
091C00
1FFC00
295C00
701C00
A01FFC
ENDCHAR
STARTCHAR aeacute
ENCODING 509
SWIDTH 728 0
DWIDTH 10 0
BBX 10 11 0 0
BITMAP
002800
006000
000000
1F9F80
34F4D0
00A0A0
1FFFE0
74A000
60A000
71F450
2F5F90
ENDCHAR
STARTCHAR Oslashacute
ENCODING 510
SWIDTH 600 0
DWIDTH 8 0
BBX 8 14 0 -1
BITMAP
00B0
0180
0001
07E9
1D6C
342D
3469
709A
718A
3209
3A0D
1D68
1BE0
1000
ENDCHAR
STARTCHAR oslashacute
ENCODING 511
SWIDTH 498 0
DWIDTH 7 0
BBX 7 12 0 -1
BITMAP
02C0
0600
0020
0BD0
28E0
31B4
7234
7234
3930
2CA0
1F80
1000
ENDCHAR
STARTCHAR uni0218
ENCODING 536
SWIDTH 518 0
DWIDTH 7 0
BBX 7 14 0 -4
BITMAP
0BD0
3874
3028
3400
1E40
02E0
0038
7028
3874
1BE0
0000
0340
0300
0200
ENDCHAR
STARTCHAR uni0219
ENCODING 537
SWIDTH 455 0
DWIDTH 6 0
BBX 5 12 1 -4
BITMAP
7E00
D340
D140
B800
1B40
4280
D280
7E00
0000
0C00
1800
1400
ENDCHAR
STARTCHAR uni021A
ENCODING 538
SWIDTH 520 0
DWIDTH 7 0
BBX 7 14 0 -4
BITMAP
BFFC
0340
0340
0340
0340
0340
0340
0340
0340
0340
0000
0340
0300
0200
ENDCHAR
STARTCHAR uni021B
ENCODING 539
SWIDTH 295 0
DWIDTH 4 0
BBX 4 14 0 -4
BITMAP
24
24
FE
24
24
24
24
24
28
1E
00
09
0D
08
ENDCHAR
STARTCHAR uni0237
ENCODING 567
SWIDTH 237 0
DWIDTH 3 0
BBX 3 11 0 -3
BITMAP
34
34
34
34
34
34
34
34
34
30
E0
ENDCHAR
STARTCHAR uni0259
ENCODING 601
SWIDTH 465 0
DWIDTH 7 0
BBX 6 8 0 0
BITMAP
1F80
25D0
00A0
0070
7FF0
7060
34D0
1F80
ENDCHAR
STARTCHAR uni02BC
ENCODING 700
SWIDTH 194 0
DWIDTH 3 0
BBX 2 4 0 7
BITMAP
30
30
70
50
ENDCHAR
STARTCHAR circumflex
ENCODING 710
SWIDTH 428 0
DWIDTH 6 0
BBX 4 2 1 9
BITMAP
28
99
ENDCHAR
STARTCHAR caron
ENCODING 711
SWIDTH 403 0
DWIDTH 6 0
BBX 4 2 1 9
BITMAP
99
38
ENDCHAR
STARTCHAR uni02C9
ENCODING 713
SWIDTH 414 0
DWIDTH 6 0
BBX 4 1 1 9
BITMAP
FF
ENDCHAR
STARTCHAR breve
ENCODING 728
SWIDTH 426 0
DWIDTH 6 0
BBX 4 2 1 8
BITMAP
C7
7D
ENDCHAR
STARTCHAR dotaccent
ENCODING 729
SWIDTH 242 0
DWIDTH 3 0
BBX 2 2 1 9
BITMAP
40
D0
ENDCHAR
STARTCHAR ring
ENCODING 730
SWIDTH 334 0
DWIDTH 5 0
BBX 3 3 1 8
BITMAP
A4
88
A4
ENDCHAR
STARTCHAR ogonek
ENCODING 731
SWIDTH 253 0
DWIDTH 4 0
BBX 3 3 0 -3
BITMAP
60
A0
74
ENDCHAR
STARTCHAR tilde
ENCODING 732
SWIDTH 427 0
DWIDTH 6 0
BBX 4 2 1 9
BITMAP
A3
9E
ENDCHAR
STARTCHAR hungarumlaut
ENCODING 733
SWIDTH 331 0
DWIDTH 5 0
BBX 4 2 1 8
BITMAP
A9
98
ENDCHAR
STARTCHAR uni02F3
ENCODING 755
SWIDTH 263 0
DWIDTH 4 0
BBX 3 3 0 -4
BITMAP
28
58
38
ENDCHAR
STARTCHAR gravecomb
ENCODING 768
SWIDTH 0 0
DWIDTH 0 0
BBX 3 2 -5 8
BITMAP
B0
24
ENDCHAR
STARTCHAR acutecomb
ENCODING 769
SWIDTH 0 0
DWIDTH 0 0
BBX 3 2 -4 8
BITMAP
34
60
ENDCHAR
STARTCHAR tildecomb
ENCODING 771
SWIDTH 0 0
DWIDTH 0 0
BBX 4 2 -5 9
BITMAP
B2
8E
ENDCHAR
STARTCHAR hookabovecomb
ENCODING 777
SWIDTH 0 0
DWIDTH 0 0
BBX 2 3 -4 8
BITMAP
A0
30
90
ENDCHAR
STARTCHAR uni030F
ENCODING 783
SWIDTH 0 0
DWIDTH 0 0
BBX 4 2 -5 9
BITMAP
DC
7A
ENDCHAR
STARTCHAR dotbelowcomb
ENCODING 803
SWIDTH 0 0
DWIDTH 0 0
BBX 2 2 -5 -3
BITMAP
90
40
ENDCHAR
STARTCHAR tonos
ENCODING 900
SWIDTH 256 0
DWIDTH 4 0
BBX 2 2 1 9
BITMAP
A0
90
ENDCHAR
STARTCHAR dieresistonos
ENCODING 901
SWIDTH 452 0
DWIDTH 6 0
BBX 6 3 0 9
BITMAP
0700
1640
7090
ENDCHAR
STARTCHAR Alphatonos
ENCODING 902
SWIDTH 576 0
DWIDTH 8 0
BBX 8 11 0 0
BITMAP
2400
2280
03C0
0690
0960
0C30
1C24
2FF8
341C
700D
A00A
ENDCHAR
STARTCHAR anoteleia
ENCODING 903
SWIDTH 243 0
DWIDTH 3 0
BBX 2 2 1 4
BITMAP
D0
40
ENDCHAR
STARTCHAR Epsilontonos
ENCODING 904
SWIDTH 496 0
DWIDTH 7 0
BBX 8 11 -1 0
BITMAP
C000
8FFD
0D00
0D00
0D00
0FFC
0D00
0D00
0D00
0D00
0FFD
ENDCHAR
STARTCHAR Etatonos
ENCODING 905
SWIDTH 620 0
DWIDTH 9 0
BBX 9 11 -1 0
BITMAP
D00000
8D0280
0D0280
0D0280
0D0280
0FFF80
0D0280
0D0280
0D0280
0D0280
0D0280
ENDCHAR
STARTCHAR Iotatonos
ENCODING 906
SWIDTH 250 0
DWIDTH 4 0
BBX 4 11 -1 0
BITMAP
D0
8D
0D
0D
0D
0D
0D
0D
0D
0D
0D
ENDCHAR
STARTCHAR Omicrontonos
ENCODING 908
SWIDTH 610 0
DWIDTH 9 0
BBX 8 11 0 0
BITMAP
D000
87E4
1D6C
2809
340A
340A
340A
340A
2809
1D2C
07E4
ENDCHAR
STARTCHAR Upsilontonos
ENCODING 910
SWIDTH 573 0
DWIDTH 8 0
BBX 10 11 -2 0
BITMAP
300000
6380A0
01C1C0
00D280
00A340
003A00
002D00
001C00
001C00
001C00
001C00
ENDCHAR
STARTCHAR Omegatonos
ENCODING 911
SWIDTH 591 0
DWIDTH 8 0
BBX 8 11 0 0
BITMAP
D000
87E0
1D68
241C
340D
340D
340D
340D
281C
1D24
3FBD
ENDCHAR
STARTCHAR iotadieresistonos
ENCODING 912
SWIDTH 299 0
DWIDTH 4 0
BBX 6 12 -1 0
BITMAP
0600
1540
60D0
0000
0900
0900
0900
0900
0900
0900
0A00
0780
ENDCHAR
STARTCHAR Alpha
ENCODING 913
SWIDTH 576 0
DWIDTH 8 0
BBX 8 10 0 0
BITMAP
0280
03C0
0690
0960
0C30
1C24
2FF8
341C
700D
A00A
ENDCHAR
STARTCHAR Beta
ENCODING 914
SWIDTH 545 0
DWIDTH 8 0
BBX 6 10 1 0
BITMAP
FF80
D1D0
D0A0
D0D0
FF80
D0D0
D060
D060
D1D0
FF80
ENDCHAR
STARTCHAR Gamma
ENCODING 915
SWIDTH 487 0
DWIDTH 7 0
BBX 6 10 1 0
BITMAP
FFD0
D000
D000
D000
D000
D000
D000
D000
D000
D000
ENDCHAR
STARTCHAR Delta.dup1
ENCODING 916
SWIDTH 614 0
DWIDTH 9 0
BBX 8 10 0 0
BITMAP
01C0
02D0
03A0
0630
0924
0C28
181C
340D
740A
BFFF
ENDCHAR
STARTCHAR Epsilon
ENCODING 917
SWIDTH 496 0
DWIDTH 7 0
BBX 6 10 1 0
BITMAP
FFD0
D000
D000
D000
FFC0
D000
D000
D000
D000
FFD0
ENDCHAR
STARTCHAR Zeta
ENCODING 918
SWIDTH 522 0
DWIDTH 7 0
BBX 7 10 0 0
BITMAP
7FF8
0074
00A0
01C0
0280
0700
0D00
2800
3400
7FF8
ENDCHAR
STARTCHAR Eta
ENCODING 919
SWIDTH 620 0
DWIDTH 9 0
BBX 7 10 1 0
BITMAP
D028
D028
D028
D028
FFF8
D028
D028
D028
D028
D028
ENDCHAR
STARTCHAR Theta
ENCODING 920
SWIDTH 593 0
DWIDTH 8 0
BBX 8 10 0 0
BITMAP
07E0
1D68
340C
700D
77E9
7009
700D
340C
1D68
07E0
ENDCHAR
STARTCHAR Iota
ENCODING 921
SWIDTH 250 0
DWIDTH 4 0
BBX 2 10 1 0
BITMAP
D0
D0
D0
D0
D0
D0
D0
D0
D0
D0
ENDCHAR
STARTCHAR Kappa
ENCODING 922
SWIDTH 544 0
DWIDTH 8 0
BBX 7 10 1 0
BITMAP
D0B0
D1D0
D340
DA00
ED00
FA00
D340
D1C0
D0A0
D074
ENDCHAR
STARTCHAR Lambda
ENCODING 923
SWIDTH 572 0
DWIDTH 8 0
BBX 8 10 0 0
BITMAP
0280
03C0
07D0
0AA0
0D70
1C34
2828
3428
301C
700D
ENDCHAR
STARTCHAR Mu
ENCODING 924
SWIDTH 755 0
DWIDTH 11 0
BBX 9 10 1 0
BITMAP
F00780
F00B80
F40F80
E81E80
DC2A80
D93680
D67280
D3A280
D2D280
D1C280
ENDCHAR
STARTCHAR Nu
ENCODING 925
SWIDTH 619 0
DWIDTH 9 0
BBX 7 10 1 0
BITMAP
E028
F028
F828
DC28
DA28
D368
D2A8
D0F8
D078
D038
ENDCHAR
STARTCHAR Xi
ENCODING 926
SWIDTH 502 0
DWIDTH 7 0
BBX 7 10 0 0
BITMAP
3FF4
0000
0000
0000
2FE0
0000
0000
0000
0000
7FF4
ENDCHAR
STARTCHAR Omicron
ENCODING 927
SWIDTH 600 0
DWIDTH 8 0
BBX 7 10 1 0
BITMAP
2F80
75B0
D034
C024
C028
C028
C024
D034
75B0
2F80
ENDCHAR
STARTCHAR Pi
ENCODING 928
SWIDTH 620 0
DWIDTH 9 0
BBX 7 10 1 0
BITMAP
FFF8
D028
D028
D028
D028
D028
D028
D028
D028
D028
ENDCHAR
STARTCHAR Rho
ENCODING 929
SWIDTH 554 0
DWIDTH 8 0
BBX 6 10 1 0
BITMAP
FF80
D0A0
D030
D030
D0B0
FF90
D000
D000
D000
D000
ENDCHAR
STARTCHAR Sigma
ENCODING 931
SWIDTH 502 0
DWIDTH 7 0
BBX 7 10 0 0
BITMAP
7FF4
3400
1C00
0A00
0340
0340
0A00
1C00
3400
7FF4
ENDCHAR
STARTCHAR Tau
ENCODING 932
SWIDTH 520 0
DWIDTH 7 0
BBX 7 10 0 0
BITMAP
BFFC
0340
0340
0340
0340
0340
0340
0340
0340
0340
ENDCHAR
STARTCHAR Upsilon
ENCODING 933
SWIDTH 524 0
DWIDTH 7 0
BBX 7 10 0 0
BITMAP
A02C
3434
2870
1CA0
0AC0
0780
0340
0340
0340
0340
ENDCHAR
STARTCHAR Phi
ENCODING 934
SWIDTH 621 0
DWIDTH 9 0
BBX 8 10 0 0
BITMAP
01C0
0BF8
29DD
71C7
71C3
71C3
71C7
29CA
0BF8
01C0
ENDCHAR
STARTCHAR Chi
ENCODING 935
SWIDTH 550 0
DWIDTH 8 0
BBX 7 10 0 0
BITMAP
741C
2834
1D70
0AD0
03C0
07C0
0AD0
1D70
2834
741C
ENDCHAR
STARTCHAR Psi
ENCODING 936
SWIDTH 600 0
DWIDTH 8 0
BBX 8 10 0 0
BITMAP
628A
628A
628A
728A
728A
3A9D
0BF4
0280
0280
0280
ENDCHAR
STARTCHAR Omega.dup2
ENCODING 937
SWIDTH 581 0
DWIDTH 8 0
BBX 8 10 0 0
BITMAP
0BE0
2D74
341C
300C
700D
700D
300C
2418
1D74
7EBD
ENDCHAR
STARTCHAR Iotadieresis
ENCODING 938
SWIDTH 250 0
DWIDTH 4 0
BBX 5 13 -1 0
BITMAP
1040
7180
0000
0D00
0D00
0D00
0D00
0D00
0D00
0D00
0D00
0D00
0D00
ENDCHAR
STARTCHAR Upsilondieresis
ENCODING 939
SWIDTH 524 0
DWIDTH 7 0
BBX 7 13 0 0
BITMAP
0410
1860
0000
A02C
3434
2870
1CA0
0AC0
0780
0340
0340
0340
0340
ENDCHAR
STARTCHAR alphatonos
ENCODING 940
SWIDTH 494 0
DWIDTH 7 0
BBX 7 11 0 0
BITMAP
0280
0240
0000
1F70
28B0
3070
7070
7070
7070
38B0
1F68
ENDCHAR
STARTCHAR epsilontonos
ENCODING 941
SWIDTH 470 0
DWIDTH 7 0
BBX 6 11 0 0
BITMAP
0340
0200
0000
1F80
34A0
3060
3400
1F40
7410
74A0
1F80
ENDCHAR
STARTCHAR etatonos
ENCODING 942
SWIDTH 498 0
DWIDTH 7 0
BBX 5 14 1 -3
BITMAP
0900
0800
0000
DF40
E280
C1C0
C1C0
C1C0
C1C0
C1C0
C1C0
01C0
01C0
01C0
ENDCHAR
STARTCHAR iotatonos
ENCODING 943
SWIDTH 299 0
DWIDTH 4 0
BBX 3 11 1 0
BITMAP
60
50
00
90
90
90
90
90
90
A0
78
ENDCHAR
STARTCHAR upsilondieresistonos
ENCODING 944
SWIDTH 480 0
DWIDTH 7 0
BBX 5 12 1 0
BITMAP
0C00
4900
C240
0000
C280
C180
C1C0
C1C0
C1C0
D180
A340
6E00
ENDCHAR
STARTCHAR alpha
ENCODING 945
SWIDTH 494 0
DWIDTH 7 0
BBX 7 8 0 0
BITMAP
1F70
28B0
3070
7070
7070
7070
38B0
1F68
ENDCHAR
STARTCHAR beta
ENCODING 946
SWIDTH 517 0
DWIDTH 7 0
BBX 6 13 1 -3
BITMAP
2E40
A2C0
D0C0
D1C0
DF40
D1C0
D090
D090
E1C0
EF40
D000
D000
D000
ENDCHAR
STARTCHAR gamma
ENCODING 947
SWIDTH 444 0
DWIDTH 6 0
BBX 6 11 0 -3
BITMAP
6060
3090
34D0
29C0
1E80
0F40
0B00
0600
0600
0600
0600
ENDCHAR
STARTCHAR delta
ENCODING 948
SWIDTH 498 0
DWIDTH 7 0
BBX 7 11 0 0
BITMAP
0BC0
1C40
2800
0E40
0BD0
38B0
7034
7034
3030
28A0
0B80
ENDCHAR
STARTCHAR epsilon
ENCODING 949
SWIDTH 470 0
DWIDTH 7 0
BBX 6 8 0 0
BITMAP
1F80
34A0
3060
3400
1F40
7410
74A0
1F80
ENDCHAR
STARTCHAR zeta
ENCODING 950
SWIDTH 462 0
DWIDTH 6 0
BBX 5 13 1 -3
BITMAP
FF80
0340
0A00
1C00
3400
7000
A000
9000
A000
2E00
0740
0240
0200
ENDCHAR
STARTCHAR eta
ENCODING 951
SWIDTH 498 0
DWIDTH 7 0
BBX 5 11 1 -3
BITMAP
DF40
E280
C1C0
C1C0
C1C0
C1C0
C1C0
C1C0
01C0
01C0
01C0
ENDCHAR
STARTCHAR theta
ENCODING 952
SWIDTH 496 0
DWIDTH 7 0
BBX 6 10 0 0
BITMAP
0B80
28A0
3070
3030
7FF0
7030
3030
3470
28A0
0B80
ENDCHAR
STARTCHAR iota
ENCODING 953
SWIDTH 299 0
DWIDTH 4 0
BBX 3 8 1 0
BITMAP
90
90
90
90
90
90
A0
78
ENDCHAR
STARTCHAR kappa
ENCODING 954
SWIDTH 491 0
DWIDTH 7 0
BBX 5 8 1 0
BITMAP
D1C0
D340
DA00
DD00
FC00
DE00
D740
D1C0
ENDCHAR
STARTCHAR lambda
ENCODING 955
SWIDTH 485 0
DWIDTH 7 0
BBX 7 10 0 0
BITMAP
3800
1D00
0A00
0B00
0F40
1E80
29C0
34D0
70A0
A074
ENDCHAR
STARTCHAR uni03BC
ENCODING 956
SWIDTH 498 0
DWIDTH 7 0
BBX 5 11 1 -3
BITMAP
D1C0
D1C0
D1C0
D1C0
D1C0
D1C0
E2C0
EEC0
D000
D000
D000
ENDCHAR
STARTCHAR nu
ENCODING 957
SWIDTH 427 0
DWIDTH 6 0
BBX 6 8 0 0
BITMAP
A0A0
70D0
31C0
2580
1A40
0F00
0F00
0A00
ENDCHAR
STARTCHAR xi
ENCODING 958
SWIDTH 431 0
DWIDTH 6 0
BBX 6 13 0 -3
BITMAP
0BD0
2800
3400
2800
0FC0
2800
7000
7000
3400
1E40
01D0
0090
0080
ENDCHAR
STARTCHAR omicron
ENCODING 959
SWIDTH 501 0
DWIDTH 7 0
BBX 7 8 0 0
BITMAP
0B80
28B0
7034
7034
7034
7034
3870
0B80
ENDCHAR
STARTCHAR pi
ENCODING 960
SWIDTH 520 0
DWIDTH 7 0
BBX 7 8 0 0
BITMAP
BFF8
2870
2870
2870
2870
2870
2870
282C
ENDCHAR
STARTCHAR rho
ENCODING 961
SWIDTH 498 0
DWIDTH 7 0
BBX 6 11 1 -3
BITMAP
2E00
A280
D0C0
D0D0
C0D0
C0C0
E280
EF40
C000
C000
C000
ENDCHAR
STARTCHAR sigma1
ENCODING 962
SWIDTH 472 0
DWIDTH 7 0
BBX 6 11 0 -3
BITMAP
0B80
28A0
3060
7000
7000
3400
2D00
0B80
0090
0090
0080
ENDCHAR
STARTCHAR sigma
ENCODING 963
SWIDTH 498 0
DWIDTH 7 0
BBX 7 8 0 0
BITMAP
0BF8
28A0
3030
7034
7034
3030
28A0
0B80
ENDCHAR
STARTCHAR tau
ENCODING 964
SWIDTH 460 0
DWIDTH 6 0
BBX 6 8 0 0
BITMAP
7FE0
0600
0600
0600
0600
0600
0700
03C0
ENDCHAR
STARTCHAR upsilon
ENCODING 965
SWIDTH 480 0
DWIDTH 7 0
BBX 5 8 1 0
BITMAP
C280
C180
C1C0
C1C0
C1C0
D180
A340
6E00
ENDCHAR
STARTCHAR phi
ENCODING 966
SWIDTH 617 0
DWIDTH 9 0
BBX 8 11 0 -3
BITMAP
14B8
35DD
71C7
71C7
71C7
31C6
29DD
0BE4
01C0
01C0
01C0
ENDCHAR
STARTCHAR chi
ENCODING 967
SWIDTH 438 0
DWIDTH 6 0
BBX 7 11 0 -3
BITMAP
B0A0
28D0
1DC0
0F80
0B40
0700
0B40
1E80
29C0
3490
7074
ENDCHAR
STARTCHAR psi
ENCODING 968
SWIDTH 612 0
DWIDTH 9 0
BBX 8 11 0 -3
BITMAP
7189
718A
7187
7187
7187
318A
2A9D
0BE4
0180
0180
0180
ENDCHAR
STARTCHAR omega
ENCODING 969
SWIDTH 711 0
DWIDTH 10 0
BBX 8 8 1 0
BITMAP
A00A
D006
D147
C283
C283
C287
A7DA
7D7C
ENDCHAR
STARTCHAR iotadieresis
ENCODING 970
SWIDTH 299 0
DWIDTH 4 0
BBX 4 11 0 0
BITMAP
41
C7
00
24
24
24
24
24
24
28
1E
ENDCHAR
STARTCHAR upsilondieresis
ENCODING 971
SWIDTH 480 0
DWIDTH 7 0
BBX 5 11 1 0
BITMAP
4100
9240
0000
C280
C180
C1C0
C1C0
C1C0
D180
A340
6E00
ENDCHAR
STARTCHAR omicrontonos
ENCODING 972
SWIDTH 501 0
DWIDTH 7 0
BBX 7 11 0 0
BITMAP
0240
0200
0000
0B80
28B0
7034
7034
7034
7034
3870
0B80
ENDCHAR
STARTCHAR upsilontonos
ENCODING 973
SWIDTH 480 0
DWIDTH 7 0
BBX 5 11 1 0
BITMAP
0C00
0800
0000
C280
C180
C1C0
C1C0
C1C0
D180
A340
6E00
ENDCHAR
STARTCHAR omegatonos
ENCODING 974
SWIDTH 711 0
DWIDTH 10 0
BBX 8 11 1 0
BITMAP
01C0
0140
0000
A00A
D006
D147
C283
C283
C287
A7DA
7D7C
ENDCHAR
STARTCHAR theta1
ENCODING 977
SWIDTH 507 0
DWIDTH 7 0
BBX 7 10 0 0
BITMAP
07D0
0DA0
0D70
0D70
1770
71F8
7070
3070
38A0
1B80
ENDCHAR
STARTCHAR Upsilon1
ENCODING 978
SWIDTH 465 0
DWIDTH 7 0
BBX 7 10 0 0
BITMAP
E034
70A0
24D0
1DC0
0F80
0B00
0700
0700
0700
0700
ENDCHAR
STARTCHAR omega1
ENCODING 982
SWIDTH 678 0
DWIDTH 10 0
BBX 9 8 0 0
BITMAP
7FFFC0
340340
340280
309280
309280
34D280
29A340
1F6E00
ENDCHAR
STARTCHAR uni0400
ENCODING 1024
SWIDTH 496 0
DWIDTH 7 0
BBX 6 13 1 0
BITMAP
3800
1C00
0000
FFD0
D000
D000
D000
FFC0
D000
D000
D000
D000
FFD0
ENDCHAR
STARTCHAR uni0401
ENCODING 1025
SWIDTH 496 0
DWIDTH 7 0
BBX 6 13 1 0
BITMAP
1040
6180
0000
FFD0
D000
D000
D000
FFC0
D000
D000
D000
D000
FFD0
ENDCHAR
STARTCHAR uni0402
ENCODING 1026
SWIDTH 650 0
DWIDTH 9 0
BBX 9 10 0 0
BITMAP
BFFC00
070000
070000
070000
07FD00
075740
070240
070240
070740
071D00
ENDCHAR
STARTCHAR uni0403
ENCODING 1027
SWIDTH 487 0
DWIDTH 7 0
BBX 6 13 1 0
BITMAP
0340
0A00
0000
FFD0
D000
D000
D000
D000
D000
D000
D000
D000
D000
ENDCHAR
STARTCHAR uni0404
ENCODING 1028
SWIDTH 589 0
DWIDTH 8 0
BBX 7 10 1 0
BITMAP
1F80
74A0
D030
C010
FF40
D000
D010
D034
74A0
1F80
ENDCHAR
STARTCHAR uni0405
ENCODING 1029
SWIDTH 518 0
DWIDTH 7 0
BBX 7 10 0 0
BITMAP
0BD0
3874
3028
3400
1E40
02E0
0038
7028
3874
1BE0
ENDCHAR
STARTCHAR uni0406
ENCODING 1030
SWIDTH 250 0
DWIDTH 4 0
BBX 2 10 1 0
BITMAP
D0
D0
D0
D0
D0
D0
D0
D0
D0
D0
ENDCHAR
STARTCHAR uni0407
ENCODING 1031
SWIDTH 250 0
DWIDTH 4 0
BBX 5 13 -1 0
BITMAP
1040
7180
0000
0D00
0D00
0D00
0D00
0D00
0D00
0D00
0D00
0D00
0D00
ENDCHAR
STARTCHAR uni0408
ENCODING 1032
SWIDTH 483 0
DWIDTH 7 0
BBX 6 10 0 0
BITMAP
00A0
00A0
00A0
00A0
00A0
00A0
00A0
60A0
75D0
1F80
ENDCHAR
STARTCHAR uni0409
ENCODING 1033
SWIDTH 923 0
DWIDTH 13 0
BBX 13 10 0 0
BITMAP
0BFE0000
0D0A0000
0D0A0000
0D0A0000
0D0BF900
0D0A0B00
0D0A0340
1C0A0340
280A0B00
B40BF900
ENDCHAR
STARTCHAR uni040A
ENCODING 1034
SWIDTH 927 0
DWIDTH 13 0
BBX 12 10 1 0
BITMAP
D02800
D02800
D02800
D02800
FFFFE4
D0281C
D0280D
D0280D
D0282C
D02FE4
ENDCHAR
STARTCHAR uni040B
ENCODING 1035
SWIDTH 705 0
DWIDTH 10 0
BBX 9 10 0 0
BITMAP
7FFC00
070000
070000
070000
07FE00
074740
070280
070280
070280
070280
ENDCHAR
STARTCHAR uni040C
ENCODING 1036
SWIDTH 544 0
DWIDTH 8 0
BBX 7 13 1 0
BITMAP
0740
0900
0000
D0B0
D1D0
D340
DA00
ED00
FA00
D340
D1C0
D0A0
D074
ENDCHAR
STARTCHAR uni040D
ENCODING 1037
SWIDTH 619 0
DWIDTH 9 0
BBX 7 13 1 0
BITMAP
1D00
0600
0000
D038
D078
D0F8
D1A8
D328
DA28
DC28
F828
F028
E028
ENDCHAR
STARTCHAR uni040E
ENCODING 1038
SWIDTH 547 0
DWIDTH 8 0
BBX 7 13 0 0
BITMAP
0C60
07D0
0000
741C
2828
1C34
0D70
0AA0
07D0
03C0
0280
0740
1E00
ENDCHAR
STARTCHAR uni040F
ENCODING 1039
SWIDTH 621 0
DWIDTH 9 0
BBX 7 12 1 -2
BITMAP
D028
D028
D028
D028
D028
D028
D028
D028
D028
FFF8
0700
0700
ENDCHAR
STARTCHAR uni0410
ENCODING 1040
SWIDTH 576 0
DWIDTH 8 0
BBX 8 10 0 0
BITMAP
0280
03C0
0690
0960
0C30
1C24
2FF8
341C
700D
A00A
ENDCHAR
STARTCHAR uni0411
ENCODING 1041
SWIDTH 549 0
DWIDTH 8 0
BBX 6 10 1 0
BITMAP
FFD0
D000
D000
D000
FF80
D0A0
D030
D070
D0A0
FF80
ENDCHAR
STARTCHAR uni0412
ENCODING 1042
SWIDTH 545 0
DWIDTH 8 0
BBX 6 10 1 0
BITMAP
FF80
D1D0
D0A0
D0D0
FF80
D0D0
D060
D060
D1D0
FF80
ENDCHAR
STARTCHAR uni0413
ENCODING 1043
SWIDTH 487 0
DWIDTH 7 0
BBX 6 10 1 0
BITMAP
FFD0
D000
D000
D000
D000
D000
D000
D000
D000
D000
ENDCHAR
STARTCHAR uni0414
ENCODING 1044
SWIDTH 660 0
DWIDTH 9 0
BBX 9 12 0 -2
BITMAP
0BFE00
0A0A00
0A0A00
0A0A00
0A0A00
0D0A00
0D0A00
1C0A00
280A00
BFFF80
A00180
A00180
ENDCHAR
STARTCHAR uni0415
ENCODING 1045
SWIDTH 496 0
DWIDTH 7 0
BBX 6 10 1 0
BITMAP
FFD0
D000
D000
D000
FFC0
D000
D000
D000
D000
FFD0
ENDCHAR
STARTCHAR uni0416
ENCODING 1046
SWIDTH 791 0
DWIDTH 11 0
BBX 11 10 0 0
BITMAP
743434
2834A0
0D34D0
063680
03FF40
0B3680
0D35D0
1C34A0
383470
703438
ENDCHAR
STARTCHAR uni0417
ENCODING 1047
SWIDTH 517 0
DWIDTH 7 0
BBX 7 10 0 0
BITMAP
1BD0
3874
2024
0074
07E0
0074
0028
6028
3474
1BD0
ENDCHAR
STARTCHAR uni0418
ENCODING 1048
SWIDTH 619 0
DWIDTH 9 0
BBX 7 10 1 0
BITMAP
D038
D078
D0F8
D1A8
D328
DA28
DC28
F828
F028
E028
ENDCHAR
STARTCHAR uni0419
ENCODING 1049
SWIDTH 619 0
DWIDTH 9 0
BBX 7 13 1 0
BITMAP
2890
0B80
0000
D038
D078
D0F8
D1A8
D328
DA28
DC28
F828
F028
E028
ENDCHAR
STARTCHAR uni041A
ENCODING 1050
SWIDTH 560 0
DWIDTH 8 0
BBX 7 10 1 0
BITMAP
D074
D0D0
D280
D700
FE00
D700
D280
D1D0
D0A0
D034
ENDCHAR
STARTCHAR uni041B
ENCODING 1051
SWIDTH 615 0
DWIDTH 9 0
BBX 8 10 0 0
BITMAP
0BFD
0909
0D09
0D09
0D09
0D09
0D09
1C09
2809
B409
ENDCHAR
STARTCHAR uni041C
ENCODING 1052
SWIDTH 755 0
DWIDTH 11 0
BBX 9 10 1 0
BITMAP
F00780
F00B80
F40F80
E81E80
DC2A80
D93680
D67280
D3A280
D2D280
D1C280
ENDCHAR
STARTCHAR uni041D
ENCODING 1053
SWIDTH 620 0
DWIDTH 9 0
BBX 7 10 1 0
BITMAP
D028
D028
D028
D028
FFF8
D028
D028
D028
D028
D028
ENDCHAR
STARTCHAR uni041E
ENCODING 1054
SWIDTH 600 0
DWIDTH 8 0
BBX 7 10 1 0
BITMAP
2F80
75B0
D034
C024
C028
C028
C024
D034
75B0
2F80
ENDCHAR
STARTCHAR uni041F
ENCODING 1055
SWIDTH 620 0
DWIDTH 9 0
BBX 7 10 1 0
BITMAP
FFF8
D028
D028
D028
D028
D028
D028
D028
D028
D028
ENDCHAR
STARTCHAR uni0420
ENCODING 1056
SWIDTH 554 0
DWIDTH 8 0
BBX 6 10 1 0
BITMAP
FF80
D0A0
D030
D030
D0B0
FF90
D000
D000
D000
D000
ENDCHAR
STARTCHAR uni0421
ENCODING 1057
SWIDTH 566 0
DWIDTH 8 0
BBX 6 10 1 0
BITMAP
2F80
74A0
D030
D010
C000
C000
C010
D030
74A0
2F80
ENDCHAR
STARTCHAR uni0422
ENCODING 1058
SWIDTH 520 0
DWIDTH 7 0
BBX 7 10 0 0
BITMAP
BFFC
0340
0340
0340
0340
0340
0340
0340
0340
0340
ENDCHAR
STARTCHAR uni0423
ENCODING 1059
SWIDTH 547 0
DWIDTH 8 0
BBX 7 10 0 0
BITMAP
741C
2828
1C34
0D70
0AA0
07D0
03C0
0280
0740
1E00
ENDCHAR
STARTCHAR uni0424
ENCODING 1060
SWIDTH 676 0
DWIDTH 9 0
BBX 9 10 0 0
BITMAP
009000
0BF900
28D740
309280
7091C0
7091C0
309280
28D740
0BF900
009000
ENDCHAR
STARTCHAR uni0425
ENCODING 1061
SWIDTH 550 0
DWIDTH 8 0
BBX 7 10 0 0
BITMAP
741C
2834
1D70
0AD0
03C0
07C0
0AD0
1D70
2834
741C
ENDCHAR
STARTCHAR uni0426
ENCODING 1062
SWIDTH 639 0
DWIDTH 9 0
BBX 8 12 1 -2
BITMAP
D028
D028
D028
D028
D028
D028
D028
D028
D028
FFFD
0009
0009
ENDCHAR
STARTCHAR uni0427
ENCODING 1063
SWIDTH 600 0
DWIDTH 8 0
BBX 7 10 1 0
BITMAP
D034
D034
D034
D034
A074
6FF4
0034
0034
0034
0034
ENDCHAR
STARTCHAR uni0428
ENCODING 1064
SWIDTH 814 0
DWIDTH 11 0
BBX 10 10 1 0
BITMAP
D0D0D0
D0D0D0
D0D0D0
D0D0D0
D0D0D0
D0D0D0
D0D0D0
D0D0D0
D0D0D0
FFFFD0
ENDCHAR
STARTCHAR uni0429
ENCODING 1065
SWIDTH 841 0
DWIDTH 12 0
BBX 10 12 1 -2
BITMAP
D0D0D0
D0D0D0
D0D0D0
D0D0D0
D0D0D0
D0D0D0
D0D0D0
D0D0D0
D0D0D0
FFFFF0
000030
000030
ENDCHAR
STARTCHAR uni042A
ENCODING 1066
SWIDTH 651 0
DWIDTH 9 0
BBX 9 10 0 0
BITMAP
BE0000
0A0000
0A0000
0A0000
0BFD00
0A0740
0A0280
0A0280
0A0740
0BFD00
ENDCHAR
STARTCHAR uni042B
ENCODING 1067
SWIDTH 755 0
DWIDTH 11 0
BBX 9 10 1 0
BITMAP
D00340
D00340
D00340
D00340
FF9340
D0B340
D03740
D03740
D0B340
FF9340
ENDCHAR
STARTCHAR uni042C
ENCODING 1068
SWIDTH 551 0
DWIDTH 8 0
BBX 6 10 1 0
BITMAP
D000
D000
D000
D000
FF80
D0A0
D030
D070
D0A0
FF80
ENDCHAR
STARTCHAR uni042D
ENCODING 1069
SWIDTH 589 0
DWIDTH 8 0
BBX 7 10 1 0
BITMAP
2F80
75A0
D034
4024
0FF4
0028
4034
D034
75A0
2F80
ENDCHAR
STARTCHAR uni042E
ENCODING 1070
SWIDTH 765 0
DWIDTH 11 0
BBX 10 10 1 0
BITMAP
D1BE00
D39780
D701C0
D600C0
FE00D0
D600D0
D600C0
D701C0
D29780
D0BE00
ENDCHAR
STARTCHAR uni042F
ENCODING 1071
SWIDTH 562 0
DWIDTH 8 0
BBX 6 10 1 0
BITMAP
2FE0
A4A0
D0A0
D0A0
A0A0
2FE0
28A0
70A0
A0A0
D0A0
ENDCHAR
STARTCHAR uni0430
ENCODING 1072
SWIDTH 479 0
DWIDTH 7 0
BBX 6 8 0 0
BITMAP
1B80
34A0
0060
1BE0
3860
7060
35E0
1EB0
ENDCHAR
STARTCHAR uni0431
ENCODING 1073
SWIDTH 484 0
DWIDTH 7 0
BBX 7 11 0 0
BITMAP
0060
06D0
1E40
2400
3B90
78B0
7030
7034
3030
28A0
0B80
ENDCHAR
STARTCHAR uni0432
ENCODING 1074
SWIDTH 503 0
DWIDTH 7 0
BBX 6 8 1 0
BITMAP
FF40
D1C0
D1C0
FF40
D1C0
D0D0
D1C0
FF40
ENDCHAR
STARTCHAR uni0433
ENCODING 1075
SWIDTH 371 0
DWIDTH 5 0
BBX 4 8 1 0
BITMAP
FF
D0
D0
D0
D0
D0
D0
D0
ENDCHAR
STARTCHAR uni0434
ENCODING 1076
SWIDTH 536 0
DWIDTH 8 0
BBX 7 10 0 -2
BITMAP
0FF0
0D70
0C30
0C30
1C30
1830
2434
BFFC
A01C
A01C
ENDCHAR
STARTCHAR uni0435
ENCODING 1077
SWIDTH 468 0
DWIDTH 7 0
BBX 6 8 0 0
BITMAP
0B80
34A0
7070
7FF0
7000
7000
3860
1BD0
ENDCHAR
STARTCHAR uni0436
ENCODING 1078
SWIDTH 662 0
DWIDTH 9 0
BBX 9 8 0 0
BITMAP
70D280
34D700
18DA00
0CDD00
0BFC00
1DDD00
28D700
70D280
ENDCHAR
STARTCHAR uni0437
ENCODING 1079
SWIDTH 446 0
DWIDTH 6 0
BBX 6 8 0 0
BITMAP
1F80
34D0
10D0
0F80
00D0
10A0
74D0
1F80
ENDCHAR
STARTCHAR uni0438
ENCODING 1080
SWIDTH 509 0
DWIDTH 7 0
BBX 5 8 1 0
BITMAP
D1C0
D2C0
D7C0
D9C0
D8C0
F4C0
F0C0
D0C0
ENDCHAR
STARTCHAR uni0439
ENCODING 1081
SWIDTH 509 0
DWIDTH 7 0
BBX 5 11 1 0
BITMAP
6280
2E00
0000
D1C0
D2C0
D7C0
D9C0
D8C0
F4C0
F0C0
D0C0
ENDCHAR
STARTCHAR uni043A
ENCODING 1082
SWIDTH 479 0
DWIDTH 7 0
BBX 5 8 1 0
BITMAP
D1C0
D340
D700
DD00
FC00
DA00
D340
D1C0
ENDCHAR
STARTCHAR uni043B
ENCODING 1083
SWIDTH 509 0
DWIDTH 7 0
BBX 6 8 0 0
BITMAP
1FF0
1C30
1C30
1C30
1830
1830
2430
A030
ENDCHAR
STARTCHAR uni043C
ENCODING 1084
SWIDTH 645 0
DWIDTH 9 0
BBX 7 8 1 0
BITMAP
E02C
F03C
F47C
E8AC
DCDC
DA9C
D75C
D31C
ENDCHAR
STARTCHAR uni043D
ENCODING 1085
SWIDTH 508 0
DWIDTH 7 0
BBX 5 8 1 0
BITMAP
D0C0
D0C0
D0C0
D0C0
FFC0
D0C0
D0C0
D0C0
ENDCHAR
STARTCHAR uni043E
ENCODING 1086
SWIDTH 501 0
DWIDTH 7 0
BBX 7 8 0 0
BITMAP
0B80
28B0
7034
7034
7034
7034
3870
0B80
ENDCHAR
STARTCHAR uni043F
ENCODING 1087
SWIDTH 509 0
DWIDTH 7 0
BBX 5 8 1 0
BITMAP
FFC0
D0C0
D0C0
D0C0
D0C0
D0C0
D0C0
D0C0
ENDCHAR
STARTCHAR uni0440
ENCODING 1088
SWIDTH 493 0
DWIDTH 7 0
BBX 6 11 1 -3
BITMAP
DF40
E2C0
C0C0
C0D0
C0D0
C0C0
E2C0
EF40
C000
C000
C000
ENDCHAR
STARTCHAR uni0441
ENCODING 1089
SWIDTH 461 0
DWIDTH 6 0
BBX 6 8 0 0
BITMAP
1B80
34A0
7020
7000
7000
7010
34A0
1B80
ENDCHAR
STARTCHAR uni0442
ENCODING 1090
SWIDTH 424 0
DWIDTH 6 0
BBX 6 8 0 0
BITMAP
BFE0
0A00
0A00
0A00
0A00
0A00
0A00
0A00
ENDCHAR
STARTCHAR uni0443
ENCODING 1091
SWIDTH 416 0
DWIDTH 6 0
BBX 6 11 0 -3
BITMAP
A0D0
70C0
31C0
2680
2A40
1F00
0E00
0A00
0900
1C00
7400
ENDCHAR
STARTCHAR uni0444
ENCODING 1092
SWIDTH 628 0
DWIDTH 9 0
BBX 8 14 0 -3
BITMAP
01C0
01C0
01C0
1FF8
39CA
31C7
71C3
71C3
71C7
35CA
1FF8
01C0
01C0
01C0
ENDCHAR
STARTCHAR uni0445
ENCODING 1093
SWIDTH 438 0
DWIDTH 6 0
BBX 6 8 0 0
BITMAP
70D0
25C0
1E40
0B00
0F00
1E40
35C0
70D0
ENDCHAR
STARTCHAR uni0446
ENCODING 1094
SWIDTH 524 0
DWIDTH 7 0
BBX 6 10 1 -2
BITMAP
D0C0
D0C0
D0C0
D0C0
D0C0
D0C0
D0C0
FFF0
0060
0060
ENDCHAR
STARTCHAR uni0447
ENCODING 1095
SWIDTH 479 0
DWIDTH 7 0
BBX 6 8 0 0
BITMAP
70A0
70A0
70A0
34A0
1FE0
00A0
00A0
00A0
ENDCHAR
STARTCHAR uni0448
ENCODING 1096
SWIDTH 703 0
DWIDTH 10 0
BBX 8 8 1 0
BITMAP
D286
D286
D286
D286
D286
D286
D286
FFFE
ENDCHAR
STARTCHAR uni0449
ENCODING 1097
SWIDTH 722 0
DWIDTH 10 0
BBX 9 10 1 -2
BITMAP
C24600
C24600
C24600
C24600
C24600
C24600
D24600
FFFF80
000280
000280
ENDCHAR
STARTCHAR uni044A
ENCODING 1098
SWIDTH 538 0
DWIDTH 8 0
BBX 7 8 0 0
BITMAP
BD00
0D00
0D00
0FF4
0D1C
0D0C
0D1C
0FF4
ENDCHAR
STARTCHAR uni044B
ENCODING 1099
SWIDTH 679 0
DWIDTH 10 0
BBX 8 8 1 0
BITMAP
D00D
D00D
D00D
FF4D
D2CD
D1CD
D1CD
FF4D
ENDCHAR
STARTCHAR uni044C
ENCODING 1100
SWIDTH 478 0
DWIDTH 7 0
BBX 5 8 1 0
BITMAP
D000
D000
D000
FF40
D2C0
D1C0
D1C0
FF40
ENDCHAR
STARTCHAR uni044D
ENCODING 1101
SWIDTH 472 0
DWIDTH 7 0
BBX 6 8 0 0
BITMAP
1F40
34D0
1060
0BE0
0060
60A0
35D0
1F40
ENDCHAR
STARTCHAR uni044E
ENCODING 1102
SWIDTH 706 0
DWIDTH 10 0
BBX 9 8 1 0
BITMAP
D0B800
D28A00
D30300
D70340
FE0340
D70300
D38A00
D1B800
ENDCHAR
STARTCHAR uni044F
ENCODING 1103
SWIDTH 482 0
DWIDTH 7 0
BBX 6 8 0 0
BITMAP
1FE0
3460
7060
3460
2FE0
1C60
3460
7060
ENDCHAR
STARTCHAR uni0450
ENCODING 1104
SWIDTH 468 0
DWIDTH 7 0
BBX 6 11 0 0
BITMAP
1D00
0600
0000
0B80
34A0
7070
7FF0
7000
7000
3860
1BD0
ENDCHAR
STARTCHAR uni0451
ENCODING 1105
SWIDTH 468 0
DWIDTH 7 0
BBX 6 11 0 0
BITMAP
1040
2890
0000
0B80
34A0
7070
7FF0
7000
7000
3860
1BD0
ENDCHAR
STARTCHAR uni0452
ENCODING 1106
SWIDTH 482 0
DWIDTH 7 0
BBX 6 14 0 -3
BITMAP
3000
FE00
3000
3BD0
38A0
3060
3070
3070
3070
3070
3070
0070
00A0
02D0
ENDCHAR
STARTCHAR uni0453
ENCODING 1107
SWIDTH 371 0
DWIDTH 5 0
BBX 4 11 1 0
BITMAP
1D
24
00
FF
D0
D0
D0
D0
D0
D0
D0
ENDCHAR
STARTCHAR uni0454
ENCODING 1108
SWIDTH 472 0
DWIDTH 7 0
BBX 6 8 0 0
BITMAP
0B80
28A0
3020
7F00
7000
3020
28A0
0B80
ENDCHAR
STARTCHAR uni0455
ENCODING 1109
SWIDTH 455 0
DWIDTH 6 0
BBX 5 8 1 0
BITMAP
7E00
D340
D140
B800
1B40
4280
D280
7E00
ENDCHAR
STARTCHAR uni0456
ENCODING 1110
SWIDTH 229 0
DWIDTH 3 0
BBX 2 11 1 0
BITMAP
40
D0
00
D0
D0
D0
D0
D0
D0
D0
D0
ENDCHAR
STARTCHAR uni0457
ENCODING 1111
SWIDTH 234 0
DWIDTH 3 0
BBX 5 11 -1 0
BITMAP
1040
6180
0000
0D00
0D00
0D00
0D00
0D00
0D00
0D00
0D00
ENDCHAR
STARTCHAR uni0458
ENCODING 1112
SWIDTH 223 0
DWIDTH 3 0
BBX 2 14 0 -3
BITMAP
10
30
00
30
30
30
30
30
30
30
30
30
70
E0
ENDCHAR
STARTCHAR uni0459
ENCODING 1113
SWIDTH 729 0
DWIDTH 10 0
BBX 10 8 0 0
BITMAP
1FF000
1C7000
1C7000
187F80
1870A0
1870A0
2470A0
A07F80
ENDCHAR
STARTCHAR uni045A
ENCODING 1114
SWIDTH 743 0
DWIDTH 10 0
BBX 9 8 1 0
BITMAP
D0C000
D0C000
D0C000
FFFE00
D0C280
D0C1C0
D0C280
D0FE00
ENDCHAR
STARTCHAR uni045B
ENCODING 1115
SWIDTH 499 0
DWIDTH 7 0
BBX 6 11 0 0
BITMAP
3000
FF00
3000
3BD0
38A0
3060
3070
3070
3070
3070
3070
ENDCHAR
STARTCHAR uni045C
ENCODING 1116
SWIDTH 479 0
DWIDTH 7 0
BBX 5 11 1 0
BITMAP
0B00
1800
0000
D1C0
D340
D700
DD00
FC00
DA00
D340
D1C0
ENDCHAR
STARTCHAR uni045D
ENCODING 1117
SWIDTH 509 0
DWIDTH 7 0
BBX 5 11 1 0
BITMAP
7400
1800
0000
D1C0
D2C0
D7C0
D9C0
D8C0
F4C0
F0C0
D0C0
ENDCHAR
STARTCHAR uni045E
ENCODING 1118
SWIDTH 416 0
DWIDTH 6 0
BBX 6 14 0 -3
BITMAP
34C0
1F40
0000
A0D0
70C0
31C0
2680
2A40
1F00
0E00
0A00
0900
1C00
7400
ENDCHAR
STARTCHAR uni045F
ENCODING 1119
SWIDTH 509 0
DWIDTH 7 0
BBX 5 10 1 -2
BITMAP
D0C0
D0C0
D0C0
D0C0
D0C0
D0C0
D0C0
FFC0
0D00
0D00
ENDCHAR
STARTCHAR uni0460
ENCODING 1120
SWIDTH 754 0
DWIDTH 11 0
BBX 9 10 1 0
BITMAP
D1C280
D1C280
D1C280
D1C280
D1C280
D1C280
D1C280
D1C280
A2D740
2E7E00
ENDCHAR
STARTCHAR uni0461
ENCODING 1121
SWIDTH 650 0
DWIDTH 9 0
BBX 9 8 0 0
BITMAP
70D340
70D340
70D340
70D340
70D340
30D340
35E700
1F6D00
ENDCHAR
STARTCHAR uni0462
ENCODING 1122
SWIDTH 551 0
DWIDTH 8 0
BBX 8 10 -1 0
BITMAP
0D00
7F80
0D00
0D00
0FF8
0D0A
0D03
0D07
0D0A
0FF8
ENDCHAR
STARTCHAR uni0463
ENCODING 1123
SWIDTH 477 0
DWIDTH 7 0
BBX 6 11 0 0
BITMAP
3400
3400
FF00
3400
3400
3400
3FD0
34B0
3470
3470
3FD0
ENDCHAR
STARTCHAR uni0464
ENCODING 1124
SWIDTH 772 0
DWIDTH 11 0
BBX 9 10 1 0
BITMAP
D0BD00
D38740
D70280
DA0040
FFF800
DA0000
D60040
D70180
D28740
D0BD00
ENDCHAR
STARTCHAR uni0465
ENCODING 1125
SWIDTH 646 0
DWIDTH 9 0
BBX 8 8 1 0
BITMAP
D2F4
D75C
D909
FFE0
D900
DA05
D75D
D1F4
ENDCHAR
STARTCHAR uni0466
ENCODING 1126
SWIDTH 526 0
DWIDTH 7 0
BBX 8 10 0 0
BITMAP
0280
03C0
07D0
0A90
0D60
1C70
2FF4
36A8
725C
624D
ENDCHAR
STARTCHAR uni0467
ENCODING 1127
SWIDTH 470 0
DWIDTH 7 0
BBX 6 8 0 0
BITMAP
0700
0B40
0E80
19C0
28D0
3FD0
7760
A730
ENDCHAR
STARTCHAR uni0468
ENCODING 1128
SWIDTH 759 0
DWIDTH 11 0
BBX 10 10 1 0
BITMAP
A02800
A03C00
A07D00
A0AA00
A0D600
A1C300
BFFF40
A36A80
A329C0
A728D0
ENDCHAR
STARTCHAR uni0469
ENCODING 1129
SWIDTH 654 0
DWIDTH 9 0
BBX 8 8 1 0
BITMAP
90D0
90E0
91B0
9264
9328
BFFC
9A9D
9D9A
ENDCHAR
STARTCHAR uni046A
ENCODING 1130
SWIDTH 747 0
DWIDTH 10 0
BBX 9 10 1 0
BITMAP
3FFE00
1C1C00
0A3400
07A000
2FFD00
A1C740
D1C240
D1C280
D1C280
D1C280
ENDCHAR
STARTCHAR uni046B
ENCODING 1131
SWIDTH 645 0
DWIDTH 9 0
BBX 7 8 1 0
BITMAP
3FF0
28A0
1CD0
0AC0
6FE4
A368
D31C
D30C
ENDCHAR
STARTCHAR uni046C
ENCODING 1132
SWIDTH 980 0
DWIDTH 14 0
BBX 12 10 1 0
BITMAP
D0BFF8
D03474
D028A0
D00EC0
FFFFF8
D2D75D
D2830A
D24306
D24306
D24306
ENDCHAR
STARTCHAR uni046D
ENCODING 1133
SWIDTH 856 0
DWIDTH 12 0
BBX 10 8 1 0
BITMAP
D0FFC0
D0A280
D07340
D03B00
FFFF90
D39CA0
D34C70
D30C70
ENDCHAR
STARTCHAR uni046E
ENCODING 1134
SWIDTH 454 0
DWIDTH 6 0
BBX 6 16 0 -3
BITMAP
1980
0B00
0000
3E40
01C0
00D0
01C0
1F40
01C0
00D0
00D0
01C0
2F40
6000
7000
2400
ENDCHAR
STARTCHAR uni046F
ENCODING 1135
SWIDTH 423 0
DWIDTH 6 0
BBX 6 14 0 -3
BITMAP
2640
0E00
0000
3F40
01C0
01C0
1F40
01C0
00D0
01C0
2F40
6000
7000
2400
ENDCHAR
STARTCHAR uni0470
ENCODING 1136
SWIDTH 600 0
DWIDTH 8 0
BBX 8 10 0 0
BITMAP
628A
628A
628A
728A
728A
3A9D
0BF4
0280
0280
0280
ENDCHAR
STARTCHAR uni0471
ENCODING 1137
SWIDTH 612 0
DWIDTH 9 0
BBX 8 11 0 -3
BITMAP
7189
718A
7187
7187
7187
318A
2A9D
0BE4
0180
0180
0180
ENDCHAR
STARTCHAR uni0472
ENCODING 1138
SWIDTH 593 0
DWIDTH 8 0
BBX 8 10 0 0
BITMAP
07E0
1D68
340C
7009
7FFD
7009
700D
341C
1D68
07E0
ENDCHAR
STARTCHAR uni0473
ENCODING 1139
SWIDTH 497 0
DWIDTH 7 0
BBX 7 8 0 0
BITMAP
0B80
28A0
3030
7FF4
7034
3030
28A0
0B80
ENDCHAR
STARTCHAR uni0474
ENCODING 1140
SWIDTH 553 0
DWIDTH 8 0
BBX 8 10 0 0
BITMAP
A00D
7028
3424
2830
1860
0CA0
0D90
0AC0
0780
0340
ENDCHAR
STARTCHAR uni0475
ENCODING 1141
SWIDTH 443 0
DWIDTH 6 0
BBX 6 8 0 0
BITMAP
6070
70D0
35C0
2580
1A40
0E40
0B00
0A00
ENDCHAR
STARTCHAR uni0476
ENCODING 1142
SWIDTH 553 0
DWIDTH 8 0
BBX 8 13 0 0
BITMAP
2B40
0D80
0000
A00D
7028
3424
2830
1860
0CA0
0D90
0AC0
0780
0340
ENDCHAR
STARTCHAR uni0477
ENCODING 1143
SWIDTH 443 0
DWIDTH 6 0
BBX 6 11 0 0
BITMAP
7A00
2A40
0000
6070
70D0
35C0
2580
1A40
0E40
0B00
0A00
ENDCHAR
STARTCHAR uni0478
ENCODING 1144
SWIDTH 1017 0
DWIDTH 14 0
BBX 13 13 1 -3
BITMAP
2F800000
75B00000
D035C1C0
C024D280
C028A340
C0286300
C0243600
D0343D00
75B02D00
2F801C00
00001800
00002400
0000E000
ENDCHAR
STARTCHAR uni0479
ENCODING 1145
SWIDTH 918 0
DWIDTH 13 0
BBX 13 11 0 -3
BITMAP
0B828240
28B1C340
7034D700
70349A00
70346900
70347C00
38703800
0B802800
00002400
00007000
0001D000
ENDCHAR
STARTCHAR uni047A
ENCODING 1146
SWIDTH 593 0
DWIDTH 8 0
BBX 8 12 0 -1
BITMAP
0180
0BE0
1EA8
340C
700D
7009
7009
700D
340C
1EA8
0BE0
0180
ENDCHAR
STARTCHAR uni047B
ENCODING 1147
SWIDTH 498 0
DWIDTH 7 0
BBX 7 10 0 -1
BITMAP
0200
0B80
2AA0
3034
7034
7034
3034
2AA0
0B80
0200
ENDCHAR
STARTCHAR uni047C
ENCODING 1148
SWIDTH 752 0
DWIDTH 11 0
BBX 9 13 1 0
BITMAP
079000
096800
00C000
258A00
A00740
D00280
D00280
D18280
D1C280
D1C280
D1C280
A2D740
2E7E00
ENDCHAR
STARTCHAR uni047D
ENCODING 1149
SWIDTH 654 0
DWIDTH 9 0
BBX 9 11 0 0
BITMAP
02E000
022D00
00A000
189900
340700
300340
704240
70D240
30D340
35E700
1F6D00
ENDCHAR
STARTCHAR uni047E
ENCODING 1150
SWIDTH 754 0
DWIDTH 11 0
BBX 9 13 1 0
BITMAP
0FF800
01C000
000000
D1C280
D1C280
D1C280
D1C280
D1C280
D1C280
D1C280
D1C280
A2D740
2E7E00
ENDCHAR
STARTCHAR uni047F
ENCODING 1151
SWIDTH 650 0
DWIDTH 9 0
BBX 9 11 0 0
BITMAP
0BFC00
00C000
000000
70D340
70D340
70D340
70D340
70D340
30D340
35E700
1F6D00
ENDCHAR
STARTCHAR uni0480
ENCODING 1152
SWIDTH 570 0
DWIDTH 8 0
BBX 7 13 0 -3
BITMAP
0BE0
1D68
341C
3004
7000
7000
3000
3400
2D00
0B80
0280
0280
0280
ENDCHAR
STARTCHAR uni0481
ENCODING 1153
SWIDTH 472 0
DWIDTH 7 0
BBX 6 11 0 -3
BITMAP
0B80
28A0
3060
7000
7000
3000
2800
0B00
0300
0300
0300
ENDCHAR
STARTCHAR uni0482
ENCODING 1154
SWIDTH 547 0
DWIDTH 8 0
BBX 6 9 1 0
BITMAP
0090
1580
0B40
07D0
4910
AC00
2D00
3200
9000
ENDCHAR
STARTCHAR uni0483
ENCODING 1155
SWIDTH 0 0
DWIDTH 0 0
BBX 5 3 -6 8
BITMAP
0080
7FC0
6000
ENDCHAR
STARTCHAR uni0484
ENCODING 1156
SWIDTH 0 0
DWIDTH 0 0
BBX 5 2 -5 9
BITMAP
1E00
E240
ENDCHAR
STARTCHAR uni0485
ENCODING 1157
SWIDTH 0 0
DWIDTH 0 0
BBX 2 2 -4 9
BITMAP
90
60
ENDCHAR
STARTCHAR uni0486
ENCODING 1158
SWIDTH 0 0
DWIDTH 0 0
BBX 2 2 -4 9
BITMAP
30
60
ENDCHAR
STARTCHAR uni0488
ENCODING 1160
SWIDTH 0 0
DWIDTH 0 0
BBX 14 13 -11 -3
BITMAP
000B4000
00094000
0B400B40
08400940
00000000
2C0001D0
55000220
00000000
00000000
0B400B40
09400540
000B4000
00094000
ENDCHAR
STARTCHAR uni0489
ENCODING 1161
SWIDTH 0 0
DWIDTH 0 0
BBX 13 13 -10 -3
BITMAP
00080000
04180000
09141800
04006000
00000000
00000000
A0000A00
10000140
00000000
05001000
28042000
00181400
00140000
ENDCHAR
STARTCHAR uni048A
ENCODING 1162
SWIDTH 666 0
DWIDTH 9 0
BBX 8 15 1 -2
BITMAP
1CA0
0B80
0000
D038
D078
D0F8
D1A8
D328
DA28
DC28
F828
F029
E02E
000A
0008
ENDCHAR
STARTCHAR uni048B
ENCODING 1163
SWIDTH 550 0
DWIDTH 8 0
BBX 7 13 1 -2
BITMAP
31C0
1F40
0000
D1C0
D2C0
D7C0
D9C0
D8C0
F4C0
F0E4
D0F4
0034
0060
ENDCHAR
STARTCHAR uni048C
ENCODING 1164
SWIDTH 551 0
DWIDTH 8 0
BBX 8 10 -1 0
BITMAP
0D00
7F80
0D00
0D00
0FF8
0D0A
0D03
0D07
0D0A
0FF8
ENDCHAR
STARTCHAR uni048D
ENCODING 1165
SWIDTH 477 0
DWIDTH 7 0
BBX 6 12 0 0
BITMAP
1000
3400
FF00
3400
3400
3400
3400
3FD0
34B0
3470
3470
3FD0
ENDCHAR
STARTCHAR uni048E
ENCODING 1166
SWIDTH 557 0
DWIDTH 8 0
BBX 6 10 1 0
BITMAP
FF80
D0A0
D030
D070
D1F0
FFF0
D010
D000
D000
D000
ENDCHAR
STARTCHAR uni048F
ENCODING 1167
SWIDTH 496 0
DWIDTH 7 0
BBX 6 11 1 -3
BITMAP
EF40
E280
C0C0
C0D0
C0D0
C2C0
E380
EFC0
C040
C000
C000
ENDCHAR
STARTCHAR uni0490
ENCODING 1168
SWIDTH 479 0
DWIDTH 7 0
BBX 6 13 1 0
BITMAP
0040
00D0
00D0
FFD0
D000
D000
D000
D000
D000
D000
D000
D000
D000
ENDCHAR
STARTCHAR uni0491
ENCODING 1169
SWIDTH 395 0
DWIDTH 6 0
BBX 4 10 1 0
BITMAP
07
07
FF
D0
C0
C0
C0
C0
C0
C0
ENDCHAR
STARTCHAR uni0492
ENCODING 1170
SWIDTH 487 0
DWIDTH 7 0
BBX 7 10 0 0
BITMAP
3FF4
3400
3400
3400
FE00
3400
3400
3400
3400
3400
ENDCHAR
STARTCHAR uni0493
ENCODING 1171
SWIDTH 371 0
DWIDTH 5 0
BBX 5 8 0 0
BITMAP
3FC0
3400
3400
FE00
3400
3400
3400
3400
ENDCHAR
STARTCHAR uni0494
ENCODING 1172
SWIDTH 539 0
DWIDTH 8 0
BBX 6 12 1 -2
BITMAP
FFD0
D000
D000
D000
FE40
D1C0
D0A0
D060
D060
D0A0
00D0
0380
ENDCHAR
STARTCHAR uni0495
ENCODING 1173
SWIDTH 443 0
DWIDTH 6 0
BBX 5 10 1 -2
BITMAP
FF00
D000
C000
FD00
D700
C280
C280
C280
0700
0900
ENDCHAR
STARTCHAR uni0496
ENCODING 1174
SWIDTH 833 0
DWIDTH 12 0
BBX 12 13 0 -3
BITMAP
743434
2834A0
0D34D0
063680
03FF40
0B3680
0D35D0
1C34A0
383470
70343D
000009
000009
000009
ENDCHAR
STARTCHAR uni0497
ENCODING 1175
SWIDTH 696 0
DWIDTH 10 0
BBX 10 11 0 -3
BITMAP
70D280
34D700
18DA00
0CDD00
0BFC00
1DDD00
28D700
70D2D0
000090
000090
000090
ENDCHAR
STARTCHAR uni0498
ENCODING 1176
SWIDTH 517 0
DWIDTH 7 0
BBX 7 13 0 -3
BITMAP
1BD0
3874
2024
0074
07E0
0074
0028
6028
3474
1BD0
0340
0340
0340
ENDCHAR
STARTCHAR uni0499
ENCODING 1177
SWIDTH 446 0
DWIDTH 6 0
BBX 6 11 0 -3
BITMAP
1F80
34D0
10D0
0F80
00D0
10A0
74D0
1F80
0600
0600
0600
ENDCHAR
STARTCHAR uni049A
ENCODING 1178
SWIDTH 617 0
DWIDTH 9 0
BBX 7 13 1 -3
BITMAP
D074
D0D0
D280
D700
FE00
D700
D280
D1D0
D0A0
D03C
001C
001C
001C
ENDCHAR
STARTCHAR uni049B
ENCODING 1179
SWIDTH 524 0
DWIDTH 7 0
BBX 6 11 1 -3
BITMAP
D1C0
D340
D700
DD00
FC00
DA00
D340
D1F0
0070
0070
0070
ENDCHAR
STARTCHAR uni049C
ENCODING 1180
SWIDTH 553 0
DWIDTH 8 0
BBX 7 10 1 0
BITMAP
D070
D0A0
D9C0
EA40
FF40
EA80
D9C0
D0D0
D0B0
D074
ENDCHAR
STARTCHAR uni049D
ENCODING 1181
SWIDTH 498 0
DWIDTH 7 0
BBX 6 8 1 0
BITMAP
D0D0
D1C0
D680
EB00
FF00
EB40
D5C0
D0E0
ENDCHAR
STARTCHAR uni049E
ENCODING 1182
SWIDTH 570 0
DWIDTH 8 0
BBX 8 10 0 0
BITMAP
281D
2838
FEA0
29D0
2F80
29C0
28A0
2834
282C
280E
ENDCHAR
STARTCHAR uni049F
ENCODING 1183
SWIDTH 462 0
DWIDTH 6 0
BBX 7 11 -1 0
BITMAP
0D00
7F40
0D00
0D28
0D70
0DA0
0FC0
0DA0
0D70
0D28
0D1C
ENDCHAR
STARTCHAR uni04A0
ENCODING 1184
SWIDTH 710 0
DWIDTH 10 0
BBX 10 10 0 0
BITMAP
BF41D0
024380
024A00
025C00
02F800
029C00
024A00
024740
0242C0
0240E0
ENDCHAR
STARTCHAR uni04A1
ENCODING 1185
SWIDTH 607 0
DWIDTH 9 0
BBX 8 8 0 0
BITMAP
7F0B
030D
0328
0374
03F0
0378
031D
030B
ENDCHAR
STARTCHAR uni04A2
ENCODING 1186
SWIDTH 662 0
DWIDTH 9 0
BBX 8 13 1 -3
BITMAP
D028
D028
D028
D028
FFF8
D028
D028
D028
D028
D02E
000A
000A
000A
ENDCHAR
STARTCHAR uni04A3
ENCODING 1187
SWIDTH 541 0
DWIDTH 8 0
BBX 6 11 1 -3
BITMAP
D0C0
D0C0
D0C0
D0C0
FFC0
D0C0
D0C0
D0F0
0030
0030
0030
ENDCHAR
STARTCHAR uni04A4
ENCODING 1188
SWIDTH 829 0
DWIDTH 12 0
BBX 10 10 1 0
BITMAP
D02FF0
D02800
D02800
D02800
FFF800
D02800
D02800
D02800
D02800
D02800
ENDCHAR
STARTCHAR uni04A5
ENCODING 1189
SWIDTH 614 0
DWIDTH 9 0
BBX 7 8 1 0
BITMAP
C1FC
C1C0
C1C0
C1C0
FFC0
D1C0
C1C0
C1C0
ENDCHAR
STARTCHAR uni04A6
ENCODING 1190
SWIDTH 880 0
DWIDTH 12 0
BBX 11 12 1 -2
BITMAP
FFF800
D02800
D02800
D02800
D02F80
D029B0
D02834
D02828
D02828
D02824
000070
0000D0
ENDCHAR
STARTCHAR uni04A7
ENCODING 1191
SWIDTH 755 0
DWIDTH 11 0
BBX 9 10 1 -2
BITMAP
FFC000
D1C000
C1C000
C1FE00
C1C780
C1C1C0
C1C1C0
C1C1C0
000240
000600
ENDCHAR
STARTCHAR uni04A8
ENCODING 1192
SWIDTH 641 0
DWIDTH 9 0
BBX 9 10 0 0
BITMAP
097D00
28DB00
35C340
71C340
718340
71C340
31C340
34D700
1D7900
07FF40
ENDCHAR
STARTCHAR uni04A9
ENCODING 1193
SWIDTH 528 0
DWIDTH 7 0
BBX 7 8 0 0
BITMAP
19E0
3664
3368
7368
7368
3664
29F4
0BFC
ENDCHAR
STARTCHAR uni04AA
ENCODING 1194
SWIDTH 566 0
DWIDTH 8 0
BBX 6 13 1 -3
BITMAP
2F80
74A0
D030
D010
C000
C000
C010
D030
74A0
2F80
0A00
0A00
0A00
ENDCHAR
STARTCHAR uni04AB
ENCODING 1195
SWIDTH 461 0
DWIDTH 6 0
BBX 6 11 0 -3
BITMAP
1B80
34A0
7060
7000
7000
7020
34A0
1F80
0600
0600
0600
ENDCHAR
STARTCHAR uni04AC
ENCODING 1196
SWIDTH 520 0
DWIDTH 7 0
BBX 7 13 0 -3
BITMAP
BFFC
0340
0340
0340
0340
0340
0340
0340
0340
03D0
00D0
00D0
00D0
ENDCHAR
STARTCHAR uni04AD
ENCODING 1197
SWIDTH 424 0
DWIDTH 6 0
BBX 6 11 0 -3
BITMAP
BFE0
0A00
0A00
0A00
0A00
0A00
0A00
0B80
0280
0280
0280
ENDCHAR
STARTCHAR uni04AE
ENCODING 1198
SWIDTH 524 0
DWIDTH 7 0
BBX 7 10 0 0
BITMAP
A02C
3434
2870
1CA0
0AC0
0780
0340
0340
0340
0340
ENDCHAR
STARTCHAR uni04AF
ENCODING 1199
SWIDTH 444 0
DWIDTH 6 0
BBX 6 11 0 -3
BITMAP
6060
3090
34D0
29C0
1E80
0F40
0B00
0600
0600
0600
0600
ENDCHAR
STARTCHAR uni04B0
ENCODING 1200
SWIDTH 524 0
DWIDTH 7 0
BBX 7 10 0 0
BITMAP
A02C
3434
2870
0C90
0AC0
0FE0
0340
0340
0340
0340
ENDCHAR
STARTCHAR uni04B1
ENCODING 1201
SWIDTH 444 0
DWIDTH 6 0
BBX 6 11 0 -3
BITMAP
6060
3090
34D0
29C0
1E80
0F40
0B00
2FC0
0600
0600
0600
ENDCHAR
STARTCHAR uni04B2
ENCODING 1202
SWIDTH 559 0
DWIDTH 8 0
BBX 8 13 0 -3
BITMAP
741C
2834
1D70
0AD0
03C0
07C0
0AD0
1D70
2834
741E
000A
000A
000A
ENDCHAR
STARTCHAR uni04B3
ENCODING 1203
SWIDTH 465 0
DWIDTH 7 0
BBX 6 11 0 -3
BITMAP
70D0
25C0
1E40
0B00
0F00
1E40
35C0
70F0
0030
0030
0030
ENDCHAR
STARTCHAR uni04B4
ENCODING 1204
SWIDTH 781 0
DWIDTH 11 0
BBX 10 12 0 -2
BITMAP
BFF1C0
0701C0
0601C0
0601C0
0601C0
0601C0
0601C0
0601C0
0701C0
07FFF0
000060
000060
ENDCHAR
STARTCHAR uni04B5
ENCODING 1205
SWIDTH 587 0
DWIDTH 8 0
BBX 8 10 0 -2
BITMAP
BF5C
1C1C
0C1C
0C1C
0C1C
0C1C
0C1C
0FFE
0006
0006
ENDCHAR
STARTCHAR uni04B6
ENCODING 1206
SWIDTH 638 0
DWIDTH 9 0
BBX 8 13 1 -3
BITMAP
D034
D034
D034
D034
A074
6FF4
0034
0034
0034
003D
000D
000D
000D
ENDCHAR
STARTCHAR uni04B7
ENCODING 1207
SWIDTH 512 0
DWIDTH 7 0
BBX 7 11 0 -3
BITMAP
70A0
70A0
70A0
34A0
1FE0
00A0
00A0
00B8
0018
0018
0018
ENDCHAR
STARTCHAR uni04B8
ENCODING 1208
SWIDTH 595 0
DWIDTH 8 0
BBX 7 10 1 0
BITMAP
D034
D034
D034
D634
A674
7FF4
0634
0234
0034
0034
ENDCHAR
STARTCHAR uni04B9
ENCODING 1209
SWIDTH 483 0
DWIDTH 7 0
BBX 5 8 1 0
BITMAP
C180
C180
C980
DD80
7F80
0D80
0180
0180
ENDCHAR
STARTCHAR uni04BA
ENCODING 1210
SWIDTH 595 0
DWIDTH 8 0
BBX 7 10 1 0
BITMAP
C000
C000
C000
C000
EF90
D0B0
C030
C034
C034
C034
ENDCHAR
STARTCHAR uni04BB
ENCODING 1211
SWIDTH 482 0
DWIDTH 7 0
BBX 5 11 1 0
BITMAP
C000
C000
C000
EF40
E280
C180
C1C0
C1C0
C1C0
C1C0
C1C0
ENDCHAR
STARTCHAR uni04BC
ENCODING 1212
SWIDTH 674 0
DWIDTH 9 0
BBX 9 10 0 0
BITMAP
00BD00
038700
570240
7A0280
2FFF80
0A0000
060000
070000
029100
00BE00
ENDCHAR
STARTCHAR uni04BD
ENCODING 1213
SWIDTH 518 0
DWIDTH 7 0
BBX 7 8 0 0
BITMAP
07D0
5D74
E828
7FF8
2800
1800
0D24
07E0
ENDCHAR
STARTCHAR uni04BE
ENCODING 1214
SWIDTH 674 0
DWIDTH 9 0
BBX 9 13 0 -3
BITMAP
00BD00
038700
570240
7A0280
2FFF80
0A0000
060000
070000
029100
00BE00
002400
002400
002400
ENDCHAR
STARTCHAR uni04BF
ENCODING 1215
SWIDTH 518 0
DWIDTH 7 0
BBX 7 11 0 -3
BITMAP
07D0
5D74
E828
7FF8
2800
1800
0D24
07E0
01C0
01C0
01C0
ENDCHAR
STARTCHAR uni04C0
ENCODING 1216
SWIDTH 250 0
DWIDTH 4 0
BBX 2 10 1 0
BITMAP
D0
D0
D0
D0
D0
D0
D0
D0
D0
D0
ENDCHAR
STARTCHAR uni04C1
ENCODING 1217
SWIDTH 791 0
DWIDTH 11 0
BBX 11 13 0 0
BITMAP
018A00
00B800
000000
743434
2834A0
0D34D0
063680
03FF40
0B3680
0D35D0
1C34A0
383470
703438
ENDCHAR
STARTCHAR uni04C2
ENCODING 1218
SWIDTH 662 0
DWIDTH 9 0
BBX 9 11 0 0
BITMAP
062800
02E000
000000
70D280
34D700
18DA00
0CDD00
0BFC00
1DDD00
28D700
70D280
ENDCHAR
STARTCHAR uni04C3
ENCODING 1219
SWIDTH 553 0
DWIDTH 8 0
BBX 7 12 1 -2
BITMAP
D0B0
D1D0
D340
DA00
FF40
D1E0
D070
D030
D034
D070
00A0
0280
ENDCHAR
STARTCHAR uni04C4
ENCODING 1220
SWIDTH 481 0
DWIDTH 7 0
BBX 5 10 1 -2
BITMAP
D1C0
D340
DA00
DD00
FE00
D280
D0C0
D0C0
0280
0600
ENDCHAR
STARTCHAR uni04C5
ENCODING 1221
SWIDTH 662 0
DWIDTH 9 0
BBX 9 12 0 -2
BITMAP
0BFD00
090900
0D0900
0D0900
0D0900
0D0900
0D0900
1C0900
280A40
B40B80
000280
000200
ENDCHAR
STARTCHAR uni04C6
ENCODING 1222
SWIDTH 551 0
DWIDTH 8 0
BBX 8 10 0 -2
BITMAP
1FF0
1C30
1C30
1C30
1830
1830
2439
A03D
000D
0018
ENDCHAR
STARTCHAR uni04C7
ENCODING 1223
SWIDTH 620 0
DWIDTH 9 0
BBX 7 13 1 -3
BITMAP
D028
D028
D028
D028
FFF8
D028
D028
D028
D028
D028
0028
0034
00E0
ENDCHAR
STARTCHAR uni04C8
ENCODING 1224
SWIDTH 498 0
DWIDTH 7 0
BBX 5 11 1 -3
BITMAP
C1C0
C1C0
C1C0
FFC0
D1C0
C1C0
C1C0
C1C0
01C0
01C0
0740
ENDCHAR
STARTCHAR uni04C9
ENCODING 1225
SWIDTH 671 0
DWIDTH 9 0
BBX 8 12 1 -2
BITMAP
D028
D028
D028
D028
FFF8
D028
D028
D028
D029
D02F
000A
0008
ENDCHAR
STARTCHAR uni04CA
ENCODING 1226
SWIDTH 550 0
DWIDTH 8 0
BBX 7 10 1 -2
BITMAP
D0C0
D0C0
D0C0
D0C0
FFC0
D0C0
D0E4
D0F4
0034
0060
ENDCHAR
STARTCHAR uni04CB
ENCODING 1227
SWIDTH 600 0
DWIDTH 8 0
BBX 7 13 1 -3
BITMAP
D034
D034
D034
D034
A074
6FF4
0034
0034
0034
00F4
00D0
00D0
00D0
ENDCHAR
STARTCHAR uni04CC
ENCODING 1228
SWIDTH 479 0
DWIDTH 7 0
BBX 6 11 0 -3
BITMAP
70A0
70A0
70A0
34A0
1FE0
00A0
00A0
02E0
0280
0280
0280
ENDCHAR
STARTCHAR uni04CD
ENCODING 1229
SWIDTH 801 0
DWIDTH 11 0
BBX 10 12 1 -2
BITMAP
F00780
F00B80
F40F80
E81E80
DC2A80
D93680
D67280
D3A280
D2D290
D1C2E0
000090
000080
ENDCHAR
STARTCHAR uni04CE
ENCODING 1230
SWIDTH 687 0
DWIDTH 10 0
BBX 9 10 1 -2
BITMAP
E02C00
F03C00
F47C00
E8AC00
DCDC00
DA9C00
D75D00
D31F40
000300
000600
ENDCHAR
STARTCHAR uni04CF
ENCODING 1231
SWIDTH 250 0
DWIDTH 4 0
BBX 2 10 1 0
BITMAP
D0
D0
D0
D0
D0
D0
D0
D0
D0
D0
ENDCHAR
STARTCHAR uni04D0
ENCODING 1232
SWIDTH 576 0
DWIDTH 8 0
BBX 8 13 0 0
BITMAP
0D30
07D0
0000
0280
03C0
0690
0960
0C30
1C24
2FF8
341C
700D
A00A
ENDCHAR
STARTCHAR uni04D1
ENCODING 1233
SWIDTH 479 0
DWIDTH 7 0
BBX 6 11 0 0
BITMAP
1890
0B80
0000
1B80
34A0
0060
1BE0
3860
7060
35E0
1EB0
ENDCHAR
STARTCHAR uni04D2
ENCODING 1234
SWIDTH 576 0
DWIDTH 8 0
BBX 8 13 0 0
BITMAP
0410
0D34
0000
0280
03C0
0690
0960
0C30
1C24
2FF8
341C
700D
A00A
ENDCHAR
STARTCHAR uni04D3
ENCODING 1235
SWIDTH 479 0
DWIDTH 7 0
BBX 6 11 0 0
BITMAP
1450
28A0
0000
1B80
34A0
0060
1BE0
3860
7060
35E0
1EB0
ENDCHAR
STARTCHAR uni04D4
ENCODING 1236
SWIDTH 812 0
DWIDTH 11 0
BBX 11 10 0 0
BITMAP
007FF8
00B800
01D800
025800
071FF4
091C00
1FFC00
295C00
701C00
A01FFC
ENDCHAR
STARTCHAR uni04D5
ENCODING 1237
SWIDTH 728 0
DWIDTH 10 0
BBX 10 8 0 0
BITMAP
1F9F80
34F4D0
00A0A0
1FFFE0
74A000
60A000
71F450
2F5F90
ENDCHAR
STARTCHAR uni04D6
ENCODING 1238
SWIDTH 496 0
DWIDTH 7 0
BBX 6 13 1 0
BITMAP
7180
2E00
0000
FFD0
D000
D000
D000
FFC0
D000
D000
D000
D000
FFD0
ENDCHAR
STARTCHAR uni04D7
ENCODING 1239
SWIDTH 468 0
DWIDTH 7 0
BBX 6 11 0 0
BITMAP
2890
0B80
0000
0B80
34A0
7070
7FF0
7000
7000
3860
1BD0
ENDCHAR
STARTCHAR uni04D8
ENCODING 1240
SWIDTH 597 0
DWIDTH 8 0
BBX 8 10 0 0
BITMAP
1BE0
1478
001D
000D
000A
7FFE
7009
300C
2968
0BE0
ENDCHAR
STARTCHAR uni04D9
ENCODING 1241
SWIDTH 465 0
DWIDTH 7 0
BBX 6 8 0 0
BITMAP
1F80
25D0
00A0
0070
7FF0
7060
34D0
1F80
ENDCHAR
STARTCHAR uni04DA
ENCODING 1242
SWIDTH 597 0
DWIDTH 8 0
BBX 8 13 0 0
BITMAP
0410
1C60
0000
1BE0
1478
001D
000D
000A
7FFE
7009
300C
2968
0BE0
ENDCHAR
STARTCHAR uni04DB
ENCODING 1243
SWIDTH 465 0
DWIDTH 7 0
BBX 6 11 0 0
BITMAP
1040
2490
0000
1F80
25D0
00A0
0070
7FF0
7060
34D0
1F80
ENDCHAR
STARTCHAR uni04DC
ENCODING 1244
SWIDTH 791 0
DWIDTH 11 0
BBX 11 13 0 0
BITMAP
004500
018A00
000000
743434
2834A0
0D34D0
063680
03FF40
0B3680
0D35D0
1C34A0
383470
703438
ENDCHAR
STARTCHAR uni04DD
ENCODING 1245
SWIDTH 662 0
DWIDTH 9 0
BBX 9 11 0 0
BITMAP
010400
062800
000000
70D280
34D700
18DA00
0CDD00
0BFC00
1DDD00
28D700
70D280
ENDCHAR
STARTCHAR uni04DE
ENCODING 1246
SWIDTH 517 0
DWIDTH 7 0
BBX 7 13 0 0
BITMAP
0410
18A0
0000
1BD0
3874
2024
0074
07E0
0074
0028
6028
3474
1BD0
ENDCHAR
STARTCHAR uni04DF
ENCODING 1247
SWIDTH 446 0
DWIDTH 6 0
BBX 6 11 0 0
BITMAP
1040
34D0
0000
1F80
34D0
10D0
0F80
00D0
10A0
74D0
1F80
ENDCHAR
STARTCHAR uni04E0
ENCODING 1248
SWIDTH 510 0
DWIDTH 7 0
BBX 7 10 0 0
BITMAP
3FF0
00A0
0180
0700
0B90
00B0
0034
7034
38B0
1B90
ENDCHAR
STARTCHAR uni04E1
ENCODING 1249
SWIDTH 510 0
DWIDTH 7 0
BBX 7 11 0 -3
BITMAP
3FF0
00A0
01C0
0280
0700
0B90
0070
0034
7034
38B0
1B90
ENDCHAR
STARTCHAR uni04E2
ENCODING 1250
SWIDTH 619 0
DWIDTH 9 0
BBX 7 12 1 0
BITMAP
2FD0
0000
D038
D078
D0F8
D1A8
D328
DA28
DC28
F828
F028
E028
ENDCHAR
STARTCHAR uni04E3
ENCODING 1251
SWIDTH 509 0
DWIDTH 7 0
BBX 5 10 1 0
BITMAP
7F80
0000
D1C0
D2C0
D7C0
D9C0
D8C0
F4C0
F0C0
D0C0
ENDCHAR
STARTCHAR uni04E4
ENCODING 1252
SWIDTH 619 0
DWIDTH 9 0
BBX 7 13 1 0
BITMAP
1040
2490
0000
D038
D078
D0F8
D1A8
D328
DA28
DC28
F828
F028
E028
ENDCHAR
STARTCHAR uni04E5
ENCODING 1253
SWIDTH 509 0
DWIDTH 7 0
BBX 5 11 1 0
BITMAP
1140
6280
0000
D1C0
D2C0
D7C0
D9C0
D8C0
F4C0
F0C0
D0C0
ENDCHAR
STARTCHAR uni04E6
ENCODING 1254
SWIDTH 600 0
DWIDTH 8 0
BBX 7 13 1 0
BITMAP
1040
24D0
0000
2F80
75B0
D034
C024
C028
C028
C024
D034
75B0
2F80
ENDCHAR
STARTCHAR uni04E7
ENCODING 1255
SWIDTH 501 0
DWIDTH 7 0
BBX 7 11 0 0
BITMAP
1440
28A0
0000
0B80
28B0
7034
7034
7034
7034
3870
0B80
ENDCHAR
STARTCHAR uni04E8
ENCODING 1256
SWIDTH 593 0
DWIDTH 8 0
BBX 8 10 0 0
BITMAP
07E0
1D68
340C
7009
7FFD
7009
700D
341C
1D68
07E0
ENDCHAR
STARTCHAR uni04E9
ENCODING 1257
SWIDTH 497 0
DWIDTH 7 0
BBX 7 8 0 0
BITMAP
0B80
28A0
3030
7FF4
7034
3030
28A0
0B80
ENDCHAR
STARTCHAR uni04EA
ENCODING 1258
SWIDTH 593 0
DWIDTH 8 0
BBX 8 13 0 0
BITMAP
0410
0924
0000
07E0
1D68
340C
7009
7FFD
7009
700D
341C
1D68
07E0
ENDCHAR
STARTCHAR uni04EB
ENCODING 1259
SWIDTH 497 0
DWIDTH 7 0
BBX 7 11 0 0
BITMAP
1040
2490
0000
0B80
28A0
3030
7FF4
7034
3030
28A0
0B80
ENDCHAR
STARTCHAR uni04EC
ENCODING 1260
SWIDTH 589 0
DWIDTH 8 0
BBX 7 13 1 0
BITMAP
1040
34D0
0000
2F80
75A0
D034
4024
0FF4
0028
4034
D034
75A0
2F80
ENDCHAR
STARTCHAR uni04ED
ENCODING 1261
SWIDTH 472 0
DWIDTH 7 0
BBX 6 11 0 0
BITMAP
1040
2490
0000
1F40
34D0
1060
0BE0
0060
60A0
35D0
1F40
ENDCHAR
STARTCHAR uni04EE
ENCODING 1262
SWIDTH 547 0
DWIDTH 8 0
BBX 7 12 0 0
BITMAP
0FF0
0000
741C
2828
1C34
0D70
0AA0
07D0
03C0
0280
0740
1E00
ENDCHAR
STARTCHAR uni04EF
ENCODING 1263
SWIDTH 416 0
DWIDTH 6 0
BBX 6 13 0 -3
BITMAP
3FC0
0000
A0D0
70C0
31C0
2680
2A40
1F00
0E00
0A00
0900
1C00
7400
ENDCHAR
STARTCHAR uni04F0
ENCODING 1264
SWIDTH 547 0
DWIDTH 8 0
BBX 7 13 0 0
BITMAP
0410
1C70
0000
741C
2828
1C34
0D70
0AA0
07D0
03C0
0280
0740
1E00
ENDCHAR
STARTCHAR uni04F1
ENCODING 1265
SWIDTH 416 0
DWIDTH 6 0
BBX 6 14 0 -3
BITMAP
1040
34C0
0000
A0D0
70C0
31C0
2680
2A40
1F00
0E00
0A00
0900
1C00
7400
ENDCHAR
STARTCHAR uni04F2
ENCODING 1266
SWIDTH 547 0
DWIDTH 8 0
BBX 7 13 0 0
BITMAP
0374
0690
0000
741C
2828
1C34
0D70
0AA0
07D0
03C0
0280
0740
1E00
ENDCHAR
STARTCHAR uni04F3
ENCODING 1267
SWIDTH 416 0
DWIDTH 6 0
BBX 6 14 0 -3
BITMAP
09D0
1980
0000
A0D0
70C0
31C0
2680
2A40
1F00
0E00
0A00
0900
1C00
7400
ENDCHAR
STARTCHAR uni04F4
ENCODING 1268
SWIDTH 600 0
DWIDTH 8 0
BBX 7 13 1 0
BITMAP
1040
34D0
0000
D034
D034
D034
D034
A074
6FF4
0034
0034
0034
0034
ENDCHAR
STARTCHAR uni04F5
ENCODING 1269
SWIDTH 479 0
DWIDTH 7 0
BBX 6 11 0 0
BITMAP
1040
34D0
0000
70A0
70A0
70A0
34A0
1FE0
00A0
00A0
00A0
ENDCHAR
STARTCHAR uni04F6
ENCODING 1270
SWIDTH 487 0
DWIDTH 7 0
BBX 6 13 1 -3
BITMAP
FFD0
D000
D000
D000
D000
D000
D000
D000
D000
F400
2400
2400
2400
ENDCHAR
STARTCHAR uni04F7
ENCODING 1271
SWIDTH 371 0
DWIDTH 5 0
BBX 4 11 1 -3
BITMAP
FF
D0
D0
D0
D0
D0
D0
F4
34
34
34
ENDCHAR
STARTCHAR uni04F8
ENCODING 1272
SWIDTH 755 0
DWIDTH 11 0
BBX 9 13 1 0
BITMAP
041000
092400
000000
D00340
D00340
D00340
D00340
FF9340
D0B340
D03740
D03740
D0B340
FF9340
ENDCHAR
STARTCHAR uni04F9
ENCODING 1273
SWIDTH 679 0
DWIDTH 10 0
BBX 8 11 1 0
BITMAP
0410
1860
0000
D00D
D00D
D00D
FF4D
D2CD
D1CD
D1CD
FF4D
ENDCHAR
STARTCHAR uni04FA
ENCODING 1274
SWIDTH 520 0
DWIDTH 7 0
BBX 7 13 0 -3
BITMAP
1FF8
1C00
1C00
1C00
1C00
7F40
1C00
1C00
1C00
1F00
0700
0A00
2D00
ENDCHAR
STARTCHAR uni04FB
ENCODING 1275
SWIDTH 410 0
DWIDTH 6 0
BBX 6 11 0 -3
BITMAP
1FE0
1800
1800
1800
7F40
1800
1800
1E00
0600
0A00
2D00
ENDCHAR
STARTCHAR uni04FC
ENCODING 1276
SWIDTH 570 0
DWIDTH 8 0
BBX 8 13 0 -3
BITMAP
741C
2834
1D70
0AD0
03C0
07C0
0AD0
1D70
2838
741E
000A
000A
0028
ENDCHAR
STARTCHAR uni04FD
ENCODING 1277
SWIDTH 476 0
DWIDTH 7 0
BBX 7 11 0 -3
BITMAP
70D0
25C0
1E40
0B00
0F00
1E40
35C0
70F4
0034
0070
01E0
ENDCHAR
STARTCHAR uni04FE
ENCODING 1278
SWIDTH 550 0
DWIDTH 8 0
BBX 7 10 0 0
BITMAP
741C
2834
0D60
06D0
0FE0
07C0
0AE0
1D70
2838
741C
ENDCHAR
STARTCHAR uni04FF
ENCODING 1279
SWIDTH 438 0
DWIDTH 6 0
BBX 6 8 0 0
BITMAP
70D0
25C0
1E40
2FC0
0F40
2E80
35C0
70E0
ENDCHAR
STARTCHAR uni0500
ENCODING 1280
SWIDTH 555 0
DWIDTH 8 0
BBX 7 10 0 0
BITMAP
0018
0018
0018
0018
1BF8
3828
7018
7018
3828
1BF8
ENDCHAR
STARTCHAR uni0501
ENCODING 1281
SWIDTH 496 0
DWIDTH 7 0
BBX 6 11 0 0
BITMAP
0070
0070
0070
1FB0
38B0
7070
7070
7070
7070
34B0
1FB0
ENDCHAR
STARTCHAR uni0502
ENCODING 1282
SWIDTH 723 0
DWIDTH 10 0
BBX 10 10 0 0
BITMAP
001800
001800
001800
001800
1BF800
3828A0
7018A0
7018A0
3828D0
1BFF80
ENDCHAR
STARTCHAR uni0503
ENCODING 1283
SWIDTH 743 0
DWIDTH 10 0
BBX 10 11 0 0
BITMAP
007000
007000
007000
1FB000
28B040
307090
7070A0
7070A0
707090
38B5C0
1F6F40
ENDCHAR
STARTCHAR uni0504
ENCODING 1284
SWIDTH 685 0
DWIDTH 10 0
BBX 9 10 0 0
BITMAP
BE4000
01C000
00D000
00D140
01C280
1F4280
01C280
00D280
00A740
007D00
ENDCHAR
STARTCHAR uni0505
ENCODING 1285
SWIDTH 562 0
DWIDTH 8 0
BBX 8 8 0 0
BITMAP
BD00
0740
0244
034D
3E0D
034D
029C
01F4
ENDCHAR
STARTCHAR uni0506
ENCODING 1286
SWIDTH 470 0
DWIDTH 7 0
BBX 6 12 0 -2
BITMAP
7E00
0280
01C0
01C0
0280
3F00
0280
01C0
01D0
00F0
0070
0090
ENDCHAR
STARTCHAR uni0507
ENCODING 1287
SWIDTH 443 0
DWIDTH 6 0
BBX 5 10 1 -2
BITMAP
F800
0A00
0700
0A00
BD00
0A00
0740
07C0
0180
0240
ENDCHAR
STARTCHAR uni0508
ENCODING 1288
SWIDTH 834 0
DWIDTH 12 0
BBX 11 10 0 0
BITMAP
0BFD00
0A0D00
090D00
090D14
090D1C
0D0D1C
0D0D0C
0C0D1C
2C0A28
7407E0
ENDCHAR
STARTCHAR uni0509
ENCODING 1289
SWIDTH 698 0
DWIDTH 10 0
BBX 10 8 0 0
BITMAP
0FF000
0C7000
0C70C0
1C70D0
1C70D0
1870D0
2835C0
701F40
ENDCHAR
STARTCHAR uni050A
ENCODING 1290
SWIDTH 864 0
DWIDTH 12 0
BBX 11 10 1 0
BITMAP
D02800
D02800
D02800
D02810
FFF870
D02834
D02834
D02870
D028A0
D00B80
ENDCHAR
STARTCHAR uni050B
ENCODING 1291
SWIDTH 716 0
DWIDTH 10 0
BBX 9 8 1 0
BITMAP
C0C000
C0C000
C0C340
FFC240
D0C240
C0C240
C0D700
C07D00
ENDCHAR
STARTCHAR uni050C
ENCODING 1292
SWIDTH 541 0
DWIDTH 8 0
BBX 7 10 0 0
BITMAP
07E0
1D10
3400
7000
7014
7018
701C
341C
1D28
07E0
ENDCHAR
STARTCHAR uni050D
ENCODING 1293
SWIDTH 452 0
DWIDTH 6 0
BBX 6 8 0 0
BITMAP
0B80
2840
3000
7000
7050
30A0
28A0
0B80
ENDCHAR
STARTCHAR uni050E
ENCODING 1294
SWIDTH 616 0
DWIDTH 9 0
BBX 8 10 0 0
BITMAP
BFFC
0340
0340
0345
0346
0347
0347
0346
039D
01F8
ENDCHAR
STARTCHAR uni050F
ENCODING 1295
SWIDTH 558 0
DWIDTH 8 0
BBX 7 8 0 0
BITMAP
7FE0
0600
0604
061C
060C
060C
0728
02E0
ENDCHAR
STARTCHAR uni0510
ENCODING 1296
SWIDTH 589 0
DWIDTH 8 0
BBX 7 10 1 0
BITMAP
2F90
B4B0
9024
A000
2F40
A400
D000
D024
B474
2F90
ENDCHAR
STARTCHAR uni0511
ENCODING 1297
SWIDTH 470 0
DWIDTH 7 0
BBX 6 8 0 0
BITMAP
1F80
34A0
3060
3400
1F40
7410
74A0
1F80
ENDCHAR
STARTCHAR uni0512
ENCODING 1298
SWIDTH 664 0
DWIDTH 9 0
BBX 9 13 0 -3
BITMAP
0BFD00
090900
0D0900
0D0900
0D0900
0D0900
0D0900
1C0900
280900
B40B80
000280
000280
000A00
ENDCHAR
STARTCHAR uni0513
ENCODING 1299
SWIDTH 553 0
DWIDTH 8 0
BBX 8 11 0 -3
BITMAP
1FF0
1C30
1C30
1C30
1830
1830
2430
A03D
000D
001D
0038
ENDCHAR
STARTCHAR uni1E00
ENCODING 7680
SWIDTH 576 0
DWIDTH 8 0
BBX 8 14 0 -4
BITMAP
0280
03C0
0690
0960
0C30
1C24
2FF8
341C
700D
A00A
0000
0280
0280
0280
ENDCHAR
STARTCHAR uni1E01
ENCODING 7681
SWIDTH 479 0
DWIDTH 7 0
BBX 6 12 0 -4
BITMAP
1B80
34A0
0060
1BE0
3860
7060
35E0
1EB0
0000
0A00
0A00
0A00
ENDCHAR
STARTCHAR uni1E3E
ENCODING 7742
SWIDTH 755 0
DWIDTH 11 0
BBX 9 13 1 0
BITMAP
00B000
008000
000000
F00780
F00B80
F40F80
E81E80
DC2A80
D93680
D67280
D3A280
D2D280
D1C280
ENDCHAR
STARTCHAR uni1E3F
ENCODING 7743
SWIDTH 752 0
DWIDTH 11 0
BBX 9 11 1 0
BITMAP
007000
009000
000000
EF6E00
E2D340
C1C280
C1C280
C1C280
C1C280
C1C280
C1C280
ENDCHAR
STARTCHAR Wgrave
ENCODING 7808
SWIDTH 761 0
DWIDTH 11 0
BBX 11 13 0 0
BITMAP
01D000
006000
000000
607034
707470
34B460
24D8A0
28CC90
198CD0
1E49C0
0F4780
0B0380
0A0340
ENDCHAR
STARTCHAR wgrave
ENCODING 7809
SWIDTH 649 0
DWIDTH 9 0
BBX 9 11 0 0
BITMAP
074000
018000
000000
A0C280
71D240
32E340
367300
2B3600
1E2D00
1D1D00
0D0C00
ENDCHAR
STARTCHAR Wacute
ENCODING 7810
SWIDTH 761 0
DWIDTH 11 0
BBX 11 13 0 0
BITMAP
001D00
002400
000000
607034
707470
34B460
24D8A0
28CC90
198CD0
1E49C0
0F4780
0B0380
0A0340
ENDCHAR
STARTCHAR wacute
ENCODING 7811
SWIDTH 649 0
DWIDTH 9 0
BBX 9 11 0 0
BITMAP
007400
009000
000000
A0C280
71D240
32E340
367300
2B3600
1E2D00
1D1D00
0D0C00
ENDCHAR
STARTCHAR Wdieresis
ENCODING 7812
SWIDTH 761 0
DWIDTH 11 0
BBX 11 13 0 0
BITMAP
014400
028A00
000000
607034
707470
34B460
24D8A0
28CC90
198CD0
1E49C0
0F4780
0B0380
0A0340
ENDCHAR
STARTCHAR wdieresis
ENCODING 7813
SWIDTH 649 0
DWIDTH 9 0
BBX 9 11 0 0
BITMAP
011400
0A2800
000000
A0C280
71D240
32E340
367300
2B3600
1E2D00
1D1D00
0D0C00
ENDCHAR
STARTCHAR uni1EA0
ENCODING 7840
SWIDTH 576 0
DWIDTH 8 0
BBX 8 13 0 -3
BITMAP
0280
03C0
0690
0960
0C30
1C24
2FF8
341C
700D
A00A
0000
0280
0140
ENDCHAR
STARTCHAR uni1EA1
ENCODING 7841
SWIDTH 479 0
DWIDTH 7 0
BBX 6 11 0 -3
BITMAP
1B80
34A0
0060
1BE0
3860
7060
35E0
1EB0
0000
0A00
0500
ENDCHAR
STARTCHAR uni1EA2
ENCODING 7842
SWIDTH 576 0
DWIDTH 8 0
BBX 8 14 0 0
BITMAP
0180
0090
0180
0000
0280
03C0
0690
0960
0C30
1C24
2FF8
341C
700D
A00A
ENDCHAR
STARTCHAR uni1EA3
ENCODING 7843
SWIDTH 479 0
DWIDTH 7 0
BBX 6 12 0 0
BITMAP
0340
0180
0340
0000
1B80
34A0
0060
1BE0
3860
7060
35E0
1EB0
ENDCHAR
STARTCHAR uni1EA4
ENCODING 7844
SWIDTH 576 0
DWIDTH 8 0
BBX 8 14 0 0
BITMAP
000A
03D8
0A60
0000
0280
03C0
0690
0960
0C30
1C24
2FF8
341C
700D
A00A
ENDCHAR
STARTCHAR uni1EA5
ENCODING 7845
SWIDTH 479 0
DWIDTH 7 0
BBX 7 12 0 0
BITMAP
001C
0B94
1890
0000
1B80
34A0
0060
1BE0
3860
7060
35E0
1EB0
ENDCHAR
STARTCHAR uni1EA6
ENCODING 7846
SWIDTH 576 0
DWIDTH 8 0
BBX 8 14 0 0
BITMAP
6000
27D0
0A60
0000
0280
03C0
0690
0960
0C30
1C24
2FF8
341C
700D
A00A
ENDCHAR
STARTCHAR uni1EA7
ENCODING 7847
SWIDTH 479 0
DWIDTH 7 0
BBX 6 12 0 0
BITMAP
D000
5B80
1890
0000
1B80
34A0
0060
1BE0
3860
7060
35E0
1EB0
ENDCHAR
STARTCHAR uni1EA8
ENCODING 7848
SWIDTH 576 0
DWIDTH 8 0
BBX 8 15 0 0
BITMAP
0018
0008
07E8
0960
0000
0280
03C0
0690
0960
0C30
1C24
2FF8
341C
700D
A00A
ENDCHAR
STARTCHAR uni1EA9
ENCODING 7849
SWIDTH 479 0
DWIDTH 7 0
BBX 7 13 0 0
BITMAP
0024
0014
0BA0
1890
0000
1B80
34A0
0060
1BE0
3860
7060
35E0
1EB0
ENDCHAR
STARTCHAR uni1EAA
ENCODING 7850
SWIDTH 576 0
DWIDTH 8 0
BBX 8 16 0 0
BITMAP
0750
05D0
0000
02D0
0960
0000
0280
03C0
0690
0960
0C30
1C24
2FF8
341C
700D
A00A
ENDCHAR
STARTCHAR uni1EAB
ENCODING 7851
SWIDTH 479 0
DWIDTH 7 0
BBX 6 14 0 0
BITMAP
0980
0680
0000
0B40
1890
0000
1B80
34A0
0060
1BE0
3860
7060
35E0
1EB0
ENDCHAR
STARTCHAR uni1EAC
ENCODING 7852
SWIDTH 576 0
DWIDTH 8 0
BBX 8 16 0 -3
BITMAP
0280
0660
0000
0280
03C0
0690
0960
0C30
1C24
2FF8
341C
700D
A00A
0000
0280
0140
ENDCHAR
STARTCHAR uni1EAD
ENCODING 7853
SWIDTH 479 0
DWIDTH 7 0
BBX 6 14 0 -3
BITMAP
0740
0980
0000
1B80
34A0
0060
1BE0
3860
7060
35E0
1EB0
0000
0A00
0500
ENDCHAR
STARTCHAR uni1EAE
ENCODING 7854
SWIDTH 576 0
DWIDTH 8 0
BBX 8 15 0 0
BITMAP
00C0
0080
0960
07D0
0000
0280
03C0
0690
0960
0C30
1C24
2FF8
341C
700D
A00A
ENDCHAR
STARTCHAR uni1EAF
ENCODING 7855
SWIDTH 479 0
DWIDTH 7 0
BBX 6 13 0 0
BITMAP
0140
0200
18C0
0B80
0000
1B80
34A0
0060
1BE0
3860
7060
35E0
1EB0
ENDCHAR
STARTCHAR uni1EB0
ENCODING 7856
SWIDTH 576 0
DWIDTH 8 0
BBX 8 15 0 0
BITMAP
0300
0140
0960
07D0
0000
0280
03C0
0690
0960
0C30
1C24
2FF8
341C
700D
A00A
ENDCHAR
STARTCHAR uni1EB1
ENCODING 7857
SWIDTH 479 0
DWIDTH 7 0
BBX 6 13 0 0
BITMAP
0500
0200
18C0
0B80
0000
1B80
34A0
0060
1BE0
3860
7060
35E0
1EB0
ENDCHAR
STARTCHAR uni1EB2
ENCODING 7858
SWIDTH 576 0
DWIDTH 8 0
BBX 8 16 0 0
BITMAP
0180
0090
0180
0960
07C0
0000
0280
03C0
0690
0960
0C30
1C24
2FF8
341C
700D
A00A
ENDCHAR
STARTCHAR uni1EB3
ENCODING 7859
SWIDTH 479 0
DWIDTH 7 0
BBX 6 14 0 0
BITMAP
0240
0280
0300
18C0
0B40
0000
1B80
34A0
0060
1BE0
3860
7060
35E0
1EB0
ENDCHAR
STARTCHAR uni1EB4
ENCODING 7860
SWIDTH 576 0
DWIDTH 8 0
BBX 8 16 0 0
BITMAP
0760
05D0
0000
0960
07D0
0000
0280
03C0
0690
0960
0C30
1C24
2FF8
341C
700D
A00A
ENDCHAR
STARTCHAR uni1EB5
ENCODING 7861
SWIDTH 479 0
DWIDTH 7 0
BBX 6 14 0 0
BITMAP
0A80
0680
0000
18C0
0B80
0000
1B80
34A0
0060
1BE0
3860
7060
35E0
1EB0
ENDCHAR
STARTCHAR uni1EB6
ENCODING 7862
SWIDTH 576 0
DWIDTH 8 0
BBX 8 16 0 -3
BITMAP
0D30
07D0
0000
0280
03C0
0690
0960
0C30
1C24
2FF8
341C
700D
A00A
0000
0280
0140
ENDCHAR
STARTCHAR uni1EB7
ENCODING 7863
SWIDTH 479 0
DWIDTH 7 0
BBX 6 14 0 -3
BITMAP
1890
0B80
0000
1B80
34A0
0060
1BE0
3860
7060
35E0
1EB0
0000
0A00
0500
ENDCHAR
STARTCHAR uni1EB8
ENCODING 7864
SWIDTH 496 0
DWIDTH 7 0
BBX 6 13 1 -3
BITMAP
FFD0
D000
D000
D000
FFC0
D000
D000
D000
D000
FFD0
0000
0D00
0400
ENDCHAR
STARTCHAR uni1EB9
ENCODING 7865
SWIDTH 468 0
DWIDTH 7 0
BBX 6 11 0 -3
BITMAP
0B80
34A0
7070
7FF0
7000
7000
3860
1BD0
0000
0700
0100
ENDCHAR
STARTCHAR uni1EBA
ENCODING 7866
SWIDTH 496 0
DWIDTH 7 0
BBX 6 14 1 0
BITMAP
0A00
0300
0900
0000
FFD0
D000
D000
D000
FFC0
D000
D000
D000
D000
FFD0
ENDCHAR
STARTCHAR uni1EBB
ENCODING 7867
SWIDTH 468 0
DWIDTH 7 0
BBX 6 12 0 0
BITMAP
0340
0180
0300
0000
0B80
34A0
7070
7FF0
7000
7000
3860
1BD0
ENDCHAR
STARTCHAR uni1EBC
ENCODING 7868
SWIDTH 496 0
DWIDTH 7 0
BBX 6 13 1 0
BITMAP
2980
6740
0000
FFD0
D000
D000
D000
FFC0
D000
D000
D000
D000
FFD0
ENDCHAR
STARTCHAR uni1EBD
ENCODING 7869
SWIDTH 468 0
DWIDTH 7 0
BBX 6 11 0 0
BITMAP
1D50
26C0
0000
0B80
34A0
7070
7FF0
7000
7000
3860
1BD0
ENDCHAR
STARTCHAR uni1EBE
ENCODING 7870
SWIDTH 496 0
DWIDTH 7 0
BBX 7 14 1 0
BITMAP
0034
1E60
3640
0000
FFD0
D000
D000
D000
FFC0
D000
D000
D000
D000
FFD0
ENDCHAR
STARTCHAR uni1EBF
ENCODING 7871
SWIDTH 468 0
DWIDTH 7 0
BBX 7 12 0 0
BITMAP
001C
0B64
18D0
0000
0B80
34A0
7070
7FF0
7000
7000
3860
1BD0
ENDCHAR
STARTCHAR uni1EC0
ENCODING 7872
SWIDTH 496 0
DWIDTH 7 0
BBX 7 14 0 0
BITMAP
9000
6780
0D90
0000
3FF4
3400
3400
3400
3FF0
3400
3400
3400
3400
3FF4
ENDCHAR
STARTCHAR uni1EC1
ENCODING 7873
SWIDTH 468 0
DWIDTH 7 0
BBX 7 12 -1 0
BITMAP
7000
26D0
0674
0000
02E0
0D28
1C1C
1FFC
1C00
1C00
0E18
06F4
ENDCHAR
STARTCHAR uni1EC2
ENCODING 7874
SWIDTH 496 0
DWIDTH 7 0
BBX 6 15 1 0
BITMAP
0090
0060
1E90
6240
0000
FFD0
D000
D000
D000
FFC0
D000
D000
D000
D000
FFD0
ENDCHAR
STARTCHAR uni1EC3
ENCODING 7875
SWIDTH 468 0
DWIDTH 7 0
BBX 7 13 0 0
BITMAP
0024
0024
0B70
1890
0000
0B80
34A0
7070
7FF0
7000
7000
3860
1BD0
ENDCHAR
STARTCHAR uni1EC4
ENCODING 7876
SWIDTH 496 0
DWIDTH 7 0
BBX 6 16 1 0
BITMAP
2900
2600
0000
1E00
2240
0000
FFD0
D000
D000
D000
FFC0
D000
D000
D000
D000
FFD0
ENDCHAR
STARTCHAR uni1EC5
ENCODING 7877
SWIDTH 468 0
DWIDTH 7 0
BBX 6 14 0 0
BITMAP
0980
0640
0000
0B40
1890
0000
0B80
34A0
7070
7FF0
7000
7000
3860
1BD0
ENDCHAR
STARTCHAR uni1EC6
ENCODING 7878
SWIDTH 496 0
DWIDTH 7 0
BBX 6 16 1 -3
BITMAP
1E00
2640
0000
FFD0
D000
D000
D000
FFC0
D000
D000
D000
D000
FFD0
0000
0D00
0400
ENDCHAR
STARTCHAR uni1EC7
ENCODING 7879
SWIDTH 468 0
DWIDTH 7 0
BBX 6 14 0 -3
BITMAP
0740
0980
0000
0B80
34A0
7070
7FF0
7000
7000
3860
1BD0
0000
0700
0100
ENDCHAR
STARTCHAR uni1EC8
ENCODING 7880
SWIDTH 250 0
DWIDTH 4 0
BBX 2 14 1 0
BITMAP
A0
30
90
00
D0
D0
D0
D0
D0
D0
D0
D0
D0
D0
ENDCHAR
STARTCHAR uni1EC9
ENCODING 7881
SWIDTH 234 0
DWIDTH 3 0
BBX 2 12 1 0
BITMAP
A0
70
90
00
D0
D0
D0
D0
D0
D0
D0
D0
ENDCHAR
STARTCHAR uni1ECA
ENCODING 7882
SWIDTH 250 0
DWIDTH 4 0
BBX 2 13 1 -3
BITMAP
D0
D0
D0
D0
D0
D0
D0
D0
D0
D0
00
D0
40
ENDCHAR
STARTCHAR uni1ECB
ENCODING 7883
SWIDTH 229 0
DWIDTH 3 0
BBX 2 14 1 -3
BITMAP
40
D0
00
D0
D0
D0
D0
D0
D0
D0
D0
00
D0
40
ENDCHAR
STARTCHAR uni1ECC
ENCODING 7884
SWIDTH 600 0
DWIDTH 8 0
BBX 7 13 1 -3
BITMAP
2F80
75B0
D034
C024
C028
C028
C024
D034
75B0
2F80
0000
0600
0100
ENDCHAR
STARTCHAR uni1ECD
ENCODING 7885
SWIDTH 501 0
DWIDTH 7 0
BBX 7 11 0 -3
BITMAP
0B80
28B0
7034
7034
7034
7034
3870
0B80
0000
0300
0100
ENDCHAR
STARTCHAR uni1ECE
ENCODING 7886
SWIDTH 600 0
DWIDTH 8 0
BBX 7 14 1 0
BITMAP
0740
0240
0600
0000
2F80
75B0
D034
C024
C028
C028
C024
D034
75B0
2F80
ENDCHAR
STARTCHAR uni1ECF
ENCODING 7887
SWIDTH 501 0
DWIDTH 7 0
BBX 7 12 0 0
BITMAP
0340
0180
0340
0000
0B80
28B0
7034
7034
7034
7034
3870
0B80
ENDCHAR
STARTCHAR uni1ED0
ENCODING 7888
SWIDTH 600 0
DWIDTH 8 0
BBX 7 14 1 0
BITMAP
0018
0B64
29C0
0000
2F80
75B0
D034
C024
C028
C028
C024
D034
75B0
2F80
ENDCHAR
STARTCHAR uni1ED1
ENCODING 7889
SWIDTH 501 0
DWIDTH 7 0
BBX 7 12 0 0
BITMAP
001C
0BA4
1890
0000
0B80
28B0
7034
7034
7034
7034
3870
0B80
ENDCHAR
STARTCHAR uni1ED2
ENCODING 7890
SWIDTH 600 0
DWIDTH 8 0
BBX 8 14 0 0
BITMAP
7000
26D0
0A60
0000
0BE0
1D6C
340D
3009
300A
300A
3009
340D
1D6C
0BE0
ENDCHAR
STARTCHAR uni1ED3
ENCODING 7891
SWIDTH 501 0
DWIDTH 7 0
BBX 7 12 0 0
BITMAP
C000
5B40
18D0
0000
0B80
28B0
7034
7034
7034
7034
3870
0B80
ENDCHAR
STARTCHAR uni1ED4
ENCODING 7892
SWIDTH 600 0
DWIDTH 8 0
BBX 7 15 1 0
BITMAP
0020
0024
0BA0
2480
0000
2F80
75B0
D034
C024
C028
C028
C024
D034
75B0
2F80
ENDCHAR
STARTCHAR uni1ED5
ENCODING 7893
SWIDTH 501 0
DWIDTH 7 0
BBX 7 13 0 0
BITMAP
0024
0014
0BA0
1890
0000
0B80
28B0
7034
7034
7034
7034
3870
0B80
ENDCHAR
STARTCHAR uni1ED6
ENCODING 7894
SWIDTH 600 0
DWIDTH 8 0
BBX 7 16 1 0
BITMAP
0D80
1640
0000
0B40
2880
0000
2F80
75B0
D034
C024
C028
C028
C024
D034
75B0
2F80
ENDCHAR
STARTCHAR uni1ED7
ENCODING 7895
SWIDTH 501 0
DWIDTH 7 0
BBX 7 14 0 0
BITMAP
0980
0680
0000
0B40
1890
0000
0B80
28B0
7034
7034
7034
7034
3870
0B80
ENDCHAR
STARTCHAR uni1ED8
ENCODING 7896
SWIDTH 600 0
DWIDTH 8 0
BBX 7 16 1 -3
BITMAP
0B00
1980
0000
2F80
75B0
D034
C024
C028
C028
C024
D034
75B0
2F80
0000
0600
0100
ENDCHAR
STARTCHAR uni1ED9
ENCODING 7897
SWIDTH 501 0
DWIDTH 7 0
BBX 7 14 0 -3
BITMAP
0740
0980
0000
0B80
28B0
7034
7034
7034
7034
3870
0B80
0000
0300
0100
ENDCHAR
STARTCHAR uni1EDA
ENCODING 7898
SWIDTH 592 0
DWIDTH 8 0
BBX 9 13 0 0
BITMAP
00A000
018000
000240
0BE300
2D6E00
341C00
700D00
700900
700900
700D00
341C00
2D6800
0BE000
ENDCHAR
STARTCHAR uni1EDB
ENCODING 7899
SWIDTH 502 0
DWIDTH 7 0
BBX 7 11 0 0
BITMAP
01D0
0240
0008
0B9C
28B8
3030
7034
7034
3034
28A0
0B80
ENDCHAR
STARTCHAR uni1EDC
ENCODING 7900
SWIDTH 592 0
DWIDTH 8 0
BBX 9 13 0 0
BITMAP
0B0000
024000
000240
0BE300
2D6E00
341C00
700D00
700900
700900
700D00
341C00
2D6800
0BE000
ENDCHAR
STARTCHAR uni1EDD
ENCODING 7901
SWIDTH 502 0
DWIDTH 7 0
BBX 7 11 0 0
BITMAP
1D00
0600
0008
0B9C
28B8
3030
7034
7034
3034
28A0
0B80
ENDCHAR
STARTCHAR uni1EDE
ENCODING 7902
SWIDTH 592 0
DWIDTH 8 0
BBX 9 14 0 0
BITMAP
01C000
009000
018000
000240
0BE300
2D6E00
341C00
700D00
700900
700900
700D00
341C00
2D6800
0BE000
ENDCHAR
STARTCHAR uni1EDF
ENCODING 7903
SWIDTH 502 0
DWIDTH 7 0
BBX 7 12 0 0
BITMAP
0340
0180
0340
0008
0B9C
28B8
3030
7034
7034
3034
28A0
0B80
ENDCHAR
STARTCHAR uni1EE0
ENCODING 7904
SWIDTH 592 0
DWIDTH 8 0
BBX 9 13 0 0
BITMAP
076000
08A000
000240
0BE300
2D6E00
341C00
700D00
700900
700900
700D00
341C00
2D6800
0BE000
ENDCHAR
STARTCHAR uni1EE1
ENCODING 7905
SWIDTH 502 0
DWIDTH 7 0
BBX 7 11 0 0
BITMAP
1D50
26C0
0008
0B9C
28B8
3030
7034
7034
3034
28A0
0B80
ENDCHAR
STARTCHAR uni1EE2
ENCODING 7906
SWIDTH 592 0
DWIDTH 8 0
BBX 9 14 0 -3
BITMAP
000240
0BE300
2D6E00
341C00
700D00
700900
700900
700D00
341C00
2D6800
0BE000
000000
028000
014000
ENDCHAR
STARTCHAR uni1EE3
ENCODING 7907
SWIDTH 502 0
DWIDTH 7 0
BBX 7 12 0 -3
BITMAP
0008
0B9C
28B8
3030
7034
7034
3034
28A0
0B80
0000
0700
0100
ENDCHAR
STARTCHAR uni1EE4
ENCODING 7908
SWIDTH 561 0
DWIDTH 8 0
BBX 6 13 1 -3
BITMAP
C070
C070
C070
C070
C070
C070
C070
D070
A0A0
2F80
0000
0900
0400
ENDCHAR
STARTCHAR uni1EE5
ENCODING 7909
SWIDTH 483 0
DWIDTH 7 0
BBX 5 11 1 -3
BITMAP
C1C0
C1C0
C1C0
C1C0
C1C0
C1C0
D2C0
7EC0
0000
2800
1400
ENDCHAR
STARTCHAR uni1EE6
ENCODING 7910
SWIDTH 561 0
DWIDTH 8 0
BBX 6 14 1 0
BITMAP
0A00
0300
0600
0000
C070
C070
C070
C070
C070
C070
C070
D070
A0A0
2F80
ENDCHAR
STARTCHAR uni1EE7
ENCODING 7911
SWIDTH 483 0
DWIDTH 7 0
BBX 5 12 1 0
BITMAP
0D00
0600
0C00
0000
C1C0
C1C0
C1C0
C1C0
C1C0
C1C0
D2C0
7EC0
ENDCHAR
STARTCHAR uni1EE8
ENCODING 7912
SWIDTH 608 0
DWIDTH 9 0
BBX 9 13 1 0
BITMAP
028000
060000
000340
C07700
C07D00
C07000
C07000
C07000
C07000
C07000
D07000
A1D000
2F8000
ENDCHAR
STARTCHAR uni1EE9
ENCODING 7913
SWIDTH 549 0
DWIDTH 8 0
BBX 7 11 1 0
BITMAP
0740
0900
0004
C1D8
C1F0
C1C0
C1C0
C1C0
C1C0
D2C0
7EC0
ENDCHAR
STARTCHAR uni1EEA
ENCODING 7914
SWIDTH 608 0
DWIDTH 9 0
BBX 9 13 1 0
BITMAP
2C0000
0A0000
000340
C07700
C07D00
C07000
C07000
C07000
C07000
C07000
D07000
A1D000
2F8000
ENDCHAR
STARTCHAR uni1EEB
ENCODING 7915
SWIDTH 549 0
DWIDTH 8 0
BBX 7 11 1 0
BITMAP
7400
1800
0004
C1D8
C1F0
C1C0
C1C0
C1C0
C1C0
D2C0
7EC0
ENDCHAR
STARTCHAR uni1EEC
ENCODING 7916
SWIDTH 608 0
DWIDTH 9 0
BBX 9 14 1 0
BITMAP
070000
024000
060000
000340
C07700
C07D00
C07000
C07000
C07000
C07000
C07000
D07000
A1D000
2F8000
ENDCHAR
STARTCHAR uni1EED
ENCODING 7917
SWIDTH 549 0
DWIDTH 8 0
BBX 7 12 1 0
BITMAP
0D00
0600
0D00
0004
C1D8
C1F0
C1C0
C1C0
C1C0
C1C0
D2C0
7EC0
ENDCHAR
STARTCHAR uni1EEE
ENCODING 7918
SWIDTH 608 0
DWIDTH 9 0
BBX 9 13 1 0
BITMAP
1D8000
228000
000340
C07700
C07D00
C07000
C07000
C07000
C07000
C07000
D07000
A1D000
2F8000
ENDCHAR
STARTCHAR uni1EEF
ENCODING 7919
SWIDTH 549 0
DWIDTH 8 0
BBX 7 11 1 0
BITMAP
7540
9B00
0004
C1D8
C1F0
C1C0
C1C0
C1C0
C1C0
D2C0
7EC0
ENDCHAR
STARTCHAR uni1EF0
ENCODING 7920
SWIDTH 608 0
DWIDTH 9 0
BBX 9 14 1 -3
BITMAP
000340
C07700
C07D00
C07000
C07000
C07000
C07000
C07000
D07000
A1D000
2F8000
000000
060000
010000
ENDCHAR
STARTCHAR uni1EF1
ENCODING 7921
SWIDTH 549 0
DWIDTH 8 0
BBX 7 12 1 -3
BITMAP
0004
C1D8
C1F0
C1C0
C1C0
C1C0
C1C0
D2C0
7EC0
0000
1C00
0400
ENDCHAR
STARTCHAR Ygrave
ENCODING 7922
SWIDTH 524 0
DWIDTH 7 0
BBX 7 13 0 0
BITMAP
0E00
0700
0000
A02C
3434
2870
1CA0
0AC0
0780
0340
0340
0340
0340
ENDCHAR
STARTCHAR ygrave
ENCODING 7923
SWIDTH 416 0
DWIDTH 6 0
BBX 6 14 0 -3
BITMAP
2800
0900
0000
A0D0
70C0
31C0
2680
2A40
1F00
0E00
0A00
0900
1C00
7400
ENDCHAR
STARTCHAR uni1EF4
ENCODING 7924
SWIDTH 524 0
DWIDTH 7 0
BBX 7 13 0 -3
BITMAP
A02C
3434
2870
1CA0
0AC0
0780
0340
0340
0340
0340
0000
0340
0100
ENDCHAR
STARTCHAR uni1EF5
ENCODING 7925
SWIDTH 416 0
DWIDTH 6 0
BBX 6 12 0 -4
BITMAP
A0D0
70C0
31C0
2680
2A40
1F00
0E00
0A00
0900
1C00
7580
0040
ENDCHAR
STARTCHAR uni1EF6
ENCODING 7926
SWIDTH 524 0
DWIDTH 7 0
BBX 7 14 0 0
BITMAP
0280
00C0
0240
0000
A02C
3434
2870
1CA0
0AC0
0780
0340
0340
0340
0340
ENDCHAR
STARTCHAR uni1EF7
ENCODING 7927
SWIDTH 416 0
DWIDTH 6 0
BBX 6 15 0 -3
BITMAP
0600
0240
0600
0000
A0D0
70C0
31C0
2680
2A40
1F00
0E00
0A00
0900
1C00
7400
ENDCHAR
STARTCHAR uni1EF8
ENCODING 7928
SWIDTH 524 0
DWIDTH 7 0
BBX 7 13 0 0
BITMAP
0A60
19D0
0000
A02C
3434
2870
1CA0
0AC0
0780
0340
0340
0340
0340
ENDCHAR
STARTCHAR uni1EF9
ENCODING 7929
SWIDTH 416 0
DWIDTH 6 0
BBX 6 14 0 -3
BITMAP
2C80
2380
0000
A0D0
70C0
31C0
2680
2A40
1F00
0E00
0A00
0900
1C00
7400
ENDCHAR
STARTCHAR uni1F4D
ENCODING 8013
SWIDTH 634 0
DWIDTH 9 0
BBX 11 10 -3 0
BITMAP
9A1BD0
683974
007018
00A01C
00A01C
00A01C
00A01C
007018
003974
001BD0
ENDCHAR
STARTCHAR uni2000
ENCODING 8192
SWIDTH 447 0
DWIDTH 6 0
BBX 1 1 0 0
BITMAP
00
ENDCHAR
STARTCHAR uni2001
ENCODING 8193
SWIDTH 876 0
DWIDTH 12 0
BBX 1 1 0 0
BITMAP
00
ENDCHAR
STARTCHAR uni2002
ENCODING 8194
SWIDTH 447 0
DWIDTH 6 0
BBX 1 1 0 0
BITMAP
00
ENDCHAR
STARTCHAR uni2003
ENCODING 8195
SWIDTH 876 0
DWIDTH 12 0
BBX 1 1 0 0
BITMAP
00
ENDCHAR
STARTCHAR uni2004
ENCODING 8196
SWIDTH 305 0
DWIDTH 4 0
BBX 1 1 0 0
BITMAP
00
ENDCHAR
STARTCHAR uni2005
ENCODING 8197
SWIDTH 233 0
DWIDTH 3 0
BBX 1 1 0 0
BITMAP
00
ENDCHAR
STARTCHAR uni2006
ENCODING 8198
SWIDTH 162 0
DWIDTH 2 0
BBX 1 1 0 0
BITMAP
00
ENDCHAR
STARTCHAR uni2007
ENCODING 8199
SWIDTH 491 0
DWIDTH 7 0
BBX 1 1 0 0
BITMAP
00
ENDCHAR
STARTCHAR uni2008
ENCODING 8200
SWIDTH 249 0
DWIDTH 3 0
BBX 1 1 0 0
BITMAP
00
ENDCHAR
STARTCHAR uni2009
ENCODING 8201
SWIDTH 190 0
DWIDTH 3 0
BBX 1 1 0 0
BITMAP
00
ENDCHAR
STARTCHAR uni200A
ENCODING 8202
SWIDTH 105 0
DWIDTH 1 0
BBX 1 1 0 0
BITMAP
00
ENDCHAR
STARTCHAR uni200B
ENCODING 8203
SWIDTH 0 0
DWIDTH 0 0
BBX 1 1 0 0
BITMAP
00
ENDCHAR
STARTCHAR uni2010
ENCODING 8208
SWIDTH 248 0
DWIDTH 3 0
BBX 3 1 0 4
BITMAP
BC
ENDCHAR
STARTCHAR uni2011
ENCODING 8209
SWIDTH 248 0
DWIDTH 3 0
BBX 3 1 0 4
BITMAP
BC
ENDCHAR
STARTCHAR endash
ENCODING 8211
SWIDTH 572 0
DWIDTH 8 0
BBX 6 1 1 4
BITMAP
FFF0
ENDCHAR
STARTCHAR emdash
ENCODING 8212
SWIDTH 678 0
DWIDTH 10 0
BBX 8 1 1 4
BITMAP
FFFE
ENDCHAR
STARTCHAR uni2015
ENCODING 8213
SWIDTH 678 0
DWIDTH 10 0
BBX 8 1 1 4
BITMAP
FFFE
ENDCHAR
STARTCHAR underscoredbl
ENCODING 8215
SWIDTH 402 0
DWIDTH 6 0
BBX 6 3 0 -3
BITMAP
FFD0
0000
FFD0
ENDCHAR
STARTCHAR quoteleft
ENCODING 8216
SWIDTH 194 0
DWIDTH 3 0
BBX 3 3 0 8
BITMAP
24
70
70
ENDCHAR
STARTCHAR quoteright
ENCODING 8217
SWIDTH 194 0
DWIDTH 3 0
BBX 2 4 0 7
BITMAP
30
30
70
50
ENDCHAR
STARTCHAR quotesinglbase
ENCODING 8218
SWIDTH 194 0
DWIDTH 3 0
BBX 2 4 0 -2
BITMAP
10
30
70
50
ENDCHAR
STARTCHAR quotereversed
ENCODING 8219
SWIDTH 194 0
DWIDTH 3 0
BBX 2 3 0 8
BITMAP
60
70
20
ENDCHAR
STARTCHAR quotedblleft
ENCODING 8220
SWIDTH 333 0
DWIDTH 5 0
BBX 5 3 0 8
BITMAP
2640
3700
7700
ENDCHAR
STARTCHAR quotedblright
ENCODING 8221
SWIDTH 337 0
DWIDTH 5 0
BBX 4 4 0 7
BITMAP
37
37
77
55
ENDCHAR
STARTCHAR quotedblbase
ENCODING 8222
SWIDTH 326 0
DWIDTH 5 0
BBX 4 4 0 -2
BITMAP
26
37
76
59
ENDCHAR
STARTCHAR dagger
ENCODING 8224
SWIDTH 482 0
DWIDTH 7 0
BBX 7 10 0 0
BITMAP
0700
0700
7FF4
0700
0700
0700
0700
0700
0700
0700
ENDCHAR
STARTCHAR daggerdbl
ENCODING 8225
SWIDTH 500 0
DWIDTH 7 0
BBX 7 13 0 -3
BITMAP
0300
0300
7FF4
0700
0300
0300
0300
0300
0300
7FF4
0300
0300
0300
ENDCHAR
STARTCHAR bullet
ENCODING 8226
SWIDTH 336 0
DWIDTH 5 0
BBX 3 3 1 4
BITMAP
B4
F8
B4
ENDCHAR
STARTCHAR twodotenleader
ENCODING 8229
SWIDTH 420 0
DWIDTH 6 0
BBX 4 2 1 0
BITMAP
41
D7
ENDCHAR
STARTCHAR ellipsis
ENCODING 8230
SWIDTH 590 0
DWIDTH 8 0
BBX 7 2 1 0
BITMAP
4110
D734
ENDCHAR
STARTCHAR uni2027
ENCODING 8231
SWIDTH 181 0
DWIDTH 3 0
BBX 2 2 0 3
BITMAP
60
10
ENDCHAR
STARTCHAR perthousand
ENCODING 8240
SWIDTH 818 0
DWIDTH 11 0
BBX 11 10 0 0
BITMAP
2D0000
671400
932000
676000
2D8000
016EB4
023298
05624C
083298
002EB4
ENDCHAR
STARTCHAR minute
ENCODING 8242
SWIDTH 174 0
DWIDTH 2 0
BBX 2 3 0 8
BITMAP
60
60
60
ENDCHAR
STARTCHAR second
ENCODING 8243
SWIDTH 319 0
DWIDTH 4 0
BBX 3 4 1 7
BITMAP
D8
D8
98
98
ENDCHAR
STARTCHAR guilsinglleft
ENCODING 8249
SWIDTH 271 0
DWIDTH 4 0
BBX 2 5 1 1
BITMAP
20
90
C0
90
20
ENDCHAR
STARTCHAR guilsinglright
ENCODING 8250
SWIDTH 271 0
DWIDTH 4 0
BBX 2 5 1 1
BITMAP
80
A0
30
A0
80
ENDCHAR
STARTCHAR exclamdbl
ENCODING 8252
SWIDTH 491 0
DWIDTH 7 0
BBX 5 10 1 0
BITMAP
D180
D180
D180
D180
D180
D180
9180
0000
4040
9180
ENDCHAR
STARTCHAR fraction
ENCODING 8260
SWIDTH 403 0
DWIDTH 6 0
BBX 5 8 0 1
BITMAP
0080
0180
0200
0600
0800
1400
2000
5000
ENDCHAR
STARTCHAR uni2074
ENCODING 8308
SWIDTH 329 0
DWIDTH 5 0
BBX 4 5 0 5
BITMAP
0A
1E
26
BF
06
ENDCHAR
STARTCHAR uni207F
ENCODING 8319
SWIDTH 374 0
DWIDTH 5 0
BBX 5 5 0 5
BITMAP
6B00
7240
7280
7280
7280
ENDCHAR
STARTCHAR franc
ENCODING 8355
SWIDTH 480 0
DWIDTH 7 0
BBX 7 10 0 0
BITMAP
3FF4
3400
3400
3400
3FE0
3400
3400
3400
BF00
3400
ENDCHAR
STARTCHAR lira
ENCODING 8356
SWIDTH 510 0
DWIDTH 7 0
BBX 7 10 0 0
BITMAP
07E0
1D74
1814
2800
7F80
1800
7F80
1C00
2800
7FF8
ENDCHAR
STARTCHAR uni20A6
ENCODING 8358
SWIDTH 691 0
DWIDTH 10 0
BBX 10 10 0 0
BITMAP
1C0700
1E0700
1F0700
1A4700
BFFFD0
1C9700
BFFFD0
1C2B00
180F00
180700
ENDCHAR
STARTCHAR peseta
ENCODING 8359
SWIDTH 709 0
DWIDTH 10 0
BBX 8 10 1 0
BITMAP
FE1C
D29C
D1FF
D19C
D29C
FE1C
D01C
D01C
D01D
D00B
ENDCHAR
STARTCHAR uni20A8
ENCODING 8360
SWIDTH 911 0
DWIDTH 13 0
BBX 11 10 1 0
BITMAP
FF8000
D1D000
D0A2E4
D06A28
D1DA04
FF8790
D280B8
D1C41C
D0AA1C
D076F4
ENDCHAR
STARTCHAR uni20A9
ENCODING 8361
SWIDTH 634 0
DWIDTH 9 0
BBX 9 10 0 0
BITMAP
61C340
71D340
71D300
32D700
BFFF80
266A00
BFFF80
1E3D00
0E2C00
0D2800
ENDCHAR
STARTCHAR uni20AA
ENCODING 8362
SWIDTH 669 0
DWIDTH 9 0
BBX 8 8 1 0
BITMAP
FF49
C1C9
C0D9
CDD9
CDD9
CD09
CD1D
CFF8
ENDCHAR
STARTCHAR dong
ENCODING 8363
SWIDTH 510 0
DWIDTH 7 0
BBX 7 13 0 -2
BITMAP
0070
0070
02FC
1FB0
38B0
7070
7070
7070
7070
34B0
1FB0
0000
3FF4
ENDCHAR
STARTCHAR Euro
ENCODING 8364
SWIDTH 493 0
DWIDTH 7 0
BBX 6 10 0 0
BITMAP
02F0
0E10
1C00
7FC0
1C00
7FC0
1C00
0D00
0A10
02F0
ENDCHAR
STARTCHAR uni20B1
ENCODING 8369
SWIDTH 648 0
DWIDTH 9 0
BBX 9 10 0 0
BITMAP
2FE400
282C00
BFFF80
280A00
BFFF80
281D00
2FF400
280000
280000
280000
ENDCHAR
STARTCHAR uni20B9
ENCODING 8377
SWIDTH 462 0
DWIDTH 6 0
BBX 6 10 0 0
BITMAP
7FF0
0280
7FF0
02C0
BF40
7400
2C00
0E00
0700
0280
ENDCHAR
STARTCHAR uni20BA
ENCODING 8378
SWIDTH 500 0
DWIDTH 7 0
BBX 7 10 0 0
BITMAP
1C00
1E40
2E00
BE40
6E00
BC34
1C34
1C70
1DA0
1F80
ENDCHAR
STARTCHAR uni20BC
ENCODING 8380
SWIDTH 575 0
DWIDTH 8 0
BBX 8 8 0 0
BITMAP
0280
0BE0
1EA4
369C
328D
728D
7289
7289
ENDCHAR
STARTCHAR uni20BD
ENCODING 8381
SWIDTH 583 0
DWIDTH 8 0
BBX 8 10 0 0
BITMAP
2FF4
281D
280A
280A
281D
BFF8
2800
BF80
2800
2800
ENDCHAR
STARTCHAR uni2105
ENCODING 8453
SWIDTH 640 0
DWIDTH 9 0
BBX 8 10 1 0
BITMAP
B800
C820
8090
C980
BA40
06B8
09CC
1989
20CC
00B8
ENDCHAR
STARTCHAR uni2113
ENCODING 8467
SWIDTH 422 0
DWIDTH 6 0
BBX 6 11 0 0
BITMAP
0780
0DC0
0CD0
0CC0
0DC0
0E80
1F00
7D00
0C00
0E00
0740
ENDCHAR
STARTCHAR uni2116
ENCODING 8470
SWIDTH 886 0
DWIDTH 12 0
BBX 11 10 1 0
BITMAP
E062E0
F06728
F46618
D86728
DD62E0
D66000
D367F4
D2E000
D1E000
D0A000
ENDCHAR
STARTCHAR trademark
ENCODING 8482
SWIDTH 547 0
DWIDTH 8 0
BBX 7 4 0 6
BITMAP
7E54
1264
1264
1254
ENDCHAR
STARTCHAR Omega
ENCODING 8486
SWIDTH 581 0
DWIDTH 8 0
BBX 8 10 0 0
BITMAP
0BE0
2D74
341C
300C
700D
700D
300C
2418
1D74
7EBD
ENDCHAR
STARTCHAR estimated
ENCODING 8494
SWIDTH 636 0
DWIDTH 9 0
BBX 7 8 1 0
BITMAP
0B90
3460
A028
E02C
FFFC
A000
6410
1BE0
ENDCHAR
STARTCHAR oneeighth
ENCODING 8539
SWIDTH 666 0
DWIDTH 9 0
BBX 9 10 0 0
BITMAP
180000
681400
182000
185000
188000
025F00
022640
091F00
082640
001F40
ENDCHAR
STARTCHAR threeeighths
ENCODING 8540
SWIDTH 736 0
DWIDTH 10 0
BBX 9 10 1 0
BITMAP
B80000
4C1400
782000
4C6000
B88000
015E00
022640
091F00
083640
002F00
ENDCHAR
STARTCHAR fiveeighths
ENCODING 8541
SWIDTH 736 0
DWIDTH 10 0
BBX 9 10 1 0
BITMAP
FC0000
C01400
F82000
4C9000
B88000
025E00
062640
082F00
083640
002F00
ENDCHAR
STARTCHAR seveneighths
ENCODING 8542
SWIDTH 692 0
DWIDTH 10 0
BBX 9 10 0 0
BITMAP
7F4000
020800
092400
0C2000
249000
018B40
021980
060F80
0819C0
000F80
ENDCHAR
STARTCHAR partialdiff
ENCODING 8706
SWIDTH 497 0
DWIDTH 7 0
BBX 7 10 0 0
BITMAP
1F80
11E0
0070
0BB0
2874
3034
7034
3030
28A0
0B80
ENDCHAR
STARTCHAR Delta
ENCODING 8710
SWIDTH 614 0
DWIDTH 9 0
BBX 8 10 0 0
BITMAP
01C0
02D0
03A0
0630
0924
0C28
181C
340D
740A
BFFF
ENDCHAR
STARTCHAR product
ENCODING 8719
SWIDTH 614 0
DWIDTH 9 0
BBX 7 11 1 -1
BITMAP
FFF8
D028
D028
D028
D028
D028
D028
D028
D028
D028
D028
ENDCHAR
STARTCHAR summation
ENCODING 8721
SWIDTH 513 0
DWIDTH 7 0
BBX 7 12 0 -2
BITMAP
7FF8
3400
1C00
0A00
0340
01C0
01C0
0340
0A00
1C00
3400
7FFC
ENDCHAR
STARTCHAR minus
ENCODING 8722
SWIDTH 499 0
DWIDTH 7 0
BBX 5 1 1 4
BITMAP
FFC0
ENDCHAR
STARTCHAR radical
ENCODING 8730
SWIDTH 536 0
DWIDTH 8 0
BBX 7 10 0 0
BITMAP
001C
0028
0034
0070
0060
B890
1CC0
0E80
0B40
0300
ENDCHAR
STARTCHAR infinity
ENCODING 8734
SWIDTH 874 0
DWIDTH 12 0
BBX 12 8 0 0
BITMAP
0B82E4
28A61C
303D0D
702C09
702C09
303D0D
28A61C
0B82E4
ENDCHAR
STARTCHAR integral
ENCODING 8747
SWIDTH 235 0
DWIDTH 3 0
BBX 4 14 0 -3
BITMAP
1F
28
34
34
34
34
34
34
34
34
34
34
34
E0
ENDCHAR
STARTCHAR approxequal
ENCODING 8776
SWIDTH 492 0
DWIDTH 7 0
BBX 6 5 0 2
BITMAP
2D10
56F0
0000
2D10
56F0
ENDCHAR
STARTCHAR notequal
ENCODING 8800
SWIDTH 479 0
DWIDTH 7 0
BBX 5 8 1 1
BITMAP
0140
0200
FF80
0800
1800
FF80
6000
4000
ENDCHAR
STARTCHAR lessequal
ENCODING 8804
SWIDTH 445 0
DWIDTH 6 0
BBX 6 8 0 0
BITMAP
0190
1B40
7400
2E00
02D0
0000
0000
BFD0
ENDCHAR
STARTCHAR greaterequal
ENCODING 8805
SWIDTH 460 0
DWIDTH 6 0
BBX 5 8 1 0
BITMAP
9000
6900
0680
1A40
E400
0000
0000
FF80
ENDCHAR
STARTCHAR lozenge
ENCODING 9674
SWIDTH 442 0
DWIDTH 6 0
BBX 6 10 0 0
BITMAP
0A00
0F40
2980
34C0
60A0
60A0
34C0
1980
0F40
0A00
ENDCHAR
STARTCHAR uniEE01
ENCODING 60929
SWIDTH 271 0
DWIDTH 4 0
BBX 2 8 1 1
BITMAP
50
A0
00
00
00
00
50
A0
ENDCHAR
STARTCHAR uniEE02
ENCODING 60930
SWIDTH 298 0
DWIDTH 4 0
BBX 4 3 0 5
BITMAP
66
66
66
ENDCHAR
STARTCHAR uniF6C3
ENCODING 63171
SWIDTH 235 0
DWIDTH 3 0
BBX 3 3 0 -2
BITMAP
34
30
60
ENDCHAR
STARTCHAR uniFB01
ENCODING 64257
SWIDTH 489 0
DWIDTH 7 0
BBX 6 11 0 0
BITMAP
0B80
2940
2400
BE60
2460
2460
2460
2460
2460
2460
2460
ENDCHAR
STARTCHAR uniFB02
ENCODING 64258
SWIDTH 503 0
DWIDTH 7 0
BBX 6 11 0 0
BITMAP
0BE0
1C70
2870
BF70
2870
2870
2870
2870
2870
2870
2870
ENDCHAR
STARTCHAR uniFB03
ENCODING 64259
SWIDTH 744 0
DWIDTH 10 0
BBX 10 11 0 0
BITMAP
0B5F80
1C3540
287000
BFFD90
287090
287090
287090
287090
287090
287090
287090
ENDCHAR
STARTCHAR uniFB04
ENCODING 64260
SWIDTH 744 0
DWIDTH 10 0
BBX 10 11 0 0
BITMAP
0B5F90
1C34D0
287090
BFFD90
287090
287090
287090
287090
287090
287090
287090
ENDCHAR
STARTCHAR uniFEFF
ENCODING 65279
SWIDTH 0 0
DWIDTH 0 0
BBX 1 1 0 0
BITMAP
00
ENDCHAR
STARTCHAR uniFFFC
ENCODING 65532
SWIDTH 1024 0
DWIDTH 14 0
BBX 14 13 0 -3
BITMAP
79DB7DF0
50000020
00000000
50000020
50000020
03DF8100
552F8120
05289600
53DF8E20
50000020
00000000
50000020
79DB7DF0
ENDCHAR
STARTCHAR uniFFFD
ENCODING 65533
SWIDTH 1025 0
DWIDTH 14 0
BBX 13 14 1 -3
BITMAP
00180000
007E0000
01FF8000
07FFD000
0F81F400
3F68BD00
BFF4FF40
FFD3FF40
3FFFFD00
0FD7F400
07FFD000
01FF8000
007E0000
00180000
ENDCHAR
STARTCHAR .notdef
ENCODING -1
SWIDTH 392 0
DWIDTH 5 0
BBX 5 10 0 0
BITMAP
7F80
4040
5140
4540
4440
4440
4540
5140
4040
7F80
ENDCHAR
STARTCHAR glyph369
ENCODING -1
SWIDTH 364 0
DWIDTH 5 0
BBX 4 2 1 8
BITMAP
CD
94
ENDCHAR
STARTCHAR uni2009.locl
ENCODING -1
SWIDTH 124 0
DWIDTH 2 0
BBX 1 1 0 0
BITMAP
00
ENDCHAR
STARTCHAR f_f.dlig
ENCODING -1
SWIDTH 546 0
DWIDTH 8 0
BBX 8 11 0 0
BITMAP
0B6D
1C74
2870
BFFC
2870
2870
2870
2870
2870
2870
2870
ENDCHAR
STARTCHAR longs_t.dlig
ENCODING -1
SWIDTH 544 0
DWIDTH 8 0
BBX 7 11 0 0
BITMAP
0B90
1C70
2870
B9FC
2870
2870
2870
2870
2870
2874
142C
ENDCHAR
STARTCHAR s_t.dlig
ENCODING -1
SWIDTH 710 0
DWIDTH 10 0
BBX 9 11 1 0
BITMAP
01F400
035C00
030D00
7F7F40
D28D00
D00D00
7D0D00
074D00
828D00
D24D00
7E0740
ENDCHAR
STARTCHAR two.dnom
ENCODING -1
SWIDTH 329 0
DWIDTH 5 0
BBX 4 5 0 0
BITMAP
2D
57
09
24
7F
ENDCHAR
STARTCHAR one.dnom
ENCODING -1
SWIDTH 329 0
DWIDTH 5 0
BBX 2 5 1 0
BITMAP
60
B0
30
30
30
ENDCHAR
STARTCHAR zero.dnom
ENCODING -1
SWIDTH 329 0
DWIDTH 5 0
BBX 4 5 0 0
BITMAP
2D
63
63
67
2D
ENDCHAR
STARTCHAR nine.c2sc
ENCODING -1
SWIDTH 447 0
DWIDTH 6 0
BBX 6 8 0 0
BITMAP
1F40
35C0
7090
75D0
2ED0
00D0
0280
1E00
ENDCHAR
STARTCHAR eight.c2sc
ENCODING -1
SWIDTH 447 0
DWIDTH 6 0
BBX 6 8 0 0
BITMAP
1F80
34D0
34D0
1F80
34D0
70A0
34D0
1F80
ENDCHAR
STARTCHAR seven.c2sc
ENCODING -1
SWIDTH 447 0
DWIDTH 6 0
BBX 6 8 0 0
BITMAP
7FE0
0090
01C0
0280
0300
0A00
0D00
1C00
ENDCHAR
STARTCHAR six.c2sc
ENCODING -1
SWIDTH 447 0
DWIDTH 6 0
BBX 6 8 0 0
BITMAP
0B80
2D00
3400
7B80
7490
30A0
34D0
1F80
ENDCHAR
STARTCHAR five.c2sc
ENCODING -1
SWIDTH 447 0
DWIDTH 6 0
BBX 5 8 1 0
BITMAP
BF40
9000
9000
BE00
0280
4280
D280
7E00
ENDCHAR
STARTCHAR four.c2sc
ENCODING -1
SWIDTH 447 0
DWIDTH 6 0
BBX 6 8 0 0
BITMAP
02C0
07C0
0EC0
29C0
31C0
BFF0
01C0
01C0
ENDCHAR
STARTCHAR three.c2sc
ENCODING -1
SWIDTH 447 0
DWIDTH 6 0
BBX 6 8 0 0
BITMAP
1F80
74D0
00D0
0F80
01D0
1090
75D0
2F40
ENDCHAR
STARTCHAR two.c2sc
ENCODING -1
SWIDTH 447 0
DWIDTH 6 0
BBX 6 8 0 0
BITMAP
1F80
75D0
50D0
01C0
0340
0A00
2800
7FE0
ENDCHAR
STARTCHAR one.c2sc
ENCODING -1
SWIDTH 447 0
DWIDTH 6 0
BBX 3 8 1 0
BITMAP
6C
EC
0C
0C
0C
0C
0C
0C
ENDCHAR
STARTCHAR zero.c2sc
ENCODING -1
SWIDTH 447 0
DWIDTH 6 0
BBX 6 8 0 0
BITMAP
1F40
35D0
7090
70A0
70A0
7090
35D0
1F40
ENDCHAR
STARTCHAR Z.c2sc
ENCODING -1
SWIDTH 454 0
DWIDTH 6 0
BBX 6 8 0 0
BITMAP
7FE0
00D0
0280
0700
0900
1C00
3400
7FF0
ENDCHAR
STARTCHAR Y.c2sc
ENCODING -1
SWIDTH 458 0
DWIDTH 6 0
BBX 6 8 0 0
BITMAP
A070
34A0
29C0
1E80
0B00
0600
0600
0600
ENDCHAR
STARTCHAR X.c2sc
ENCODING -1
SWIDTH 478 0
DWIDTH 7 0
BBX 6 8 0 0
BITMAP
7070
28D0
1EC0
0B40
0B40
1DC0
28E0
7070
ENDCHAR
STARTCHAR W.c2sc
ENCODING -1
SWIDTH 655 0
DWIDTH 9 0
BBX 9 8 0 0
BITMAP
60D180
71E280
31A240
367300
272700
1A2A00
1E1D00
0D0D00
ENDCHAR
STARTCHAR V.c2sc
ENCODING -1
SWIDTH 487 0
DWIDTH 7 0
BBX 7 8 0 0
BITMAP
A034
7030
3460
2890
1CC0
0D80
0B40
0700
ENDCHAR
STARTCHAR U.c2sc
ENCODING -1
SWIDTH 488 0
DWIDTH 7 0
BBX 6 8 0 0
BITMAP
7030
7030
7030
7030
7030
7030
34A0
1B80
ENDCHAR
STARTCHAR T.c2sc
ENCODING -1
SWIDTH 456 0
DWIDTH 6 0
BBX 6 8 0 0
BITMAP
BFF0
0600
0600
0600
0600
0600
0600
0600
ENDCHAR
STARTCHAR S.c2sc
ENCODING -1
SWIDTH 453 0
DWIDTH 6 0
BBX 6 8 0 0
BITMAP
1F80
34A0
7050
2E40
06D0
5060
74A0
1F80
ENDCHAR
STARTCHAR R.c2sc
ENCODING -1
SWIDTH 465 0
DWIDTH 7 0
BBX 5 8 1 0
BITMAP
FE00
C280
C1C0
C280
FF00
C700
C280
C1C0
ENDCHAR
STARTCHAR Q.c2sc
ENCODING -1
SWIDTH 519 0
DWIDTH 7 0
BBX 7 9 0 -1
BITMAP
0B90
2870
7024
7028
7028
7024
2870
0BE0
0074
ENDCHAR
STARTCHAR P.c2sc
ENCODING -1
SWIDTH 481 0
DWIDTH 7 0
BBX 6 8 1 0
BITMAP
FF40
C1C0
C0D0
C1C0
FF40
C000
C000
C000
ENDCHAR
STARTCHAR O.c2sc
ENCODING -1
SWIDTH 519 0
DWIDTH 7 0
BBX 7 8 0 0
BITMAP
0BD0
2870
3024
7028
7028
3024
2870
0BD0
ENDCHAR
STARTCHAR N.c2sc
ENCODING -1
SWIDTH 533 0
DWIDTH 7 0
BBX 6 8 1 0
BITMAP
D0A0
F0A0
E4A0
DCA0
CAA0
C3A0
C1E0
C0E0
ENDCHAR
STARTCHAR M.c2sc
ENCODING -1
SWIDTH 652 0
DWIDTH 9 0
BBX 8 8 1 0
BITMAP
E01D
F03D
E47D
D8AD
DCDD
C9CD
C78D
C34D
ENDCHAR
STARTCHAR L.c2sc
ENCODING -1
SWIDTH 411 0
DWIDTH 6 0
BBX 5 8 1 0
BITMAP
C000
C000
C000
C000
C000
C000
C000
FF40
ENDCHAR
STARTCHAR K.c2sc
ENCODING -1
SWIDTH 473 0
DWIDTH 7 0
BBX 6 8 1 0
BITMAP
C1C0
C740
DD00
EC00
FD00
C700
C280
C1D0
ENDCHAR
STARTCHAR J.c2sc
ENCODING -1
SWIDTH 419 0
DWIDTH 6 0
BBX 5 8 0 0
BITMAP
01C0
01C0
01C0
01C0
01C0
51C0
61C0
2F40
ENDCHAR
STARTCHAR I.c2sc
ENCODING -1
SWIDTH 221 0
DWIDTH 3 0
BBX 1 8 1 0
BITMAP
C0
C0
C0
C0
C0
C0
C0
C0
ENDCHAR
STARTCHAR H.c2sc
ENCODING -1
SWIDTH 533 0
DWIDTH 7 0
BBX 6 8 1 0
BITMAP
C0A0
C0A0
C0A0
FFE0
C0A0
C0A0
C0A0
C0A0
ENDCHAR
STARTCHAR G.c2sc
ENCODING -1
SWIDTH 509 0
DWIDTH 7 0
BBX 7 8 0 0
BITMAP
0BD0
2870
7010
7000
71F4
7034
2834
0BE0
ENDCHAR
STARTCHAR F.c2sc
ENCODING -1
SWIDTH 415 0
DWIDTH 6 0
BBX 5 8 1 0
BITMAP
FF40
C000
C000
C000
FF00
C000
C000
C000
ENDCHAR
STARTCHAR dollar.c2sc
ENCODING -1
SWIDTH 453 0
DWIDTH 6 0
BBX 6 12 0 -2
BITMAP
0100
0600
1F80
34A0
7010
2E40
06D0
5060
74A0
1F80
0600
0100
ENDCHAR
STARTCHAR sterling.c2sc
ENCODING -1
SWIDTH 467 0
DWIDTH 7 0
BBX 6 8 0 0
BITMAP
0B80
18A0
2860
2400
BF80
2400
3400
7FF0
ENDCHAR
STARTCHAR yen.c2sc
ENCODING -1
SWIDTH 400 0
DWIDTH 6 0
BBX 6 8 0 0
BITMAP
A0D0
7180
2640
1B00
7FC0
0900
7FC0
0900
ENDCHAR
STARTCHAR Gamma.c2sc
ENCODING -1
SWIDTH 405 0
DWIDTH 6 0
BBX 5 8 1 0
BITMAP
FF40
C000
C000
C000
C000
C000
C000
C000
ENDCHAR
STARTCHAR Delta.c2sc
ENCODING -1
SWIDTH 487 0
DWIDTH 7 0
BBX 7 8 0 0
BITMAP
0700
0B40
0D80
1CC0
2890
3460
7070
BFF4
ENDCHAR
STARTCHAR Theta.c2sc
ENCODING -1
SWIDTH 519 0
DWIDTH 7 0
BBX 7 8 0 0
BITMAP
0BD0
2870
3024
7BE8
7028
3024
2870
0BD0
ENDCHAR
STARTCHAR Lambda.c2sc
ENCODING -1
SWIDTH 487 0
DWIDTH 7 0
BBX 7 8 0 0
BITMAP
0700
0B40
0D80
1CC0
2890
3460
7030
A034
ENDCHAR
STARTCHAR Xi.c2sc
ENCODING -1
SWIDTH 389 0
DWIDTH 5 0
BBX 5 8 0 0
BITMAP
BFC0
0000
0000
7F80
0000
0000
0000
BFC0
ENDCHAR
STARTCHAR Pi.c2sc
ENCODING -1
SWIDTH 525 0
DWIDTH 7 0
BBX 6 8 1 0
BITMAP
FFD0
C090
C090
C090
C090
C090
C090
C090
ENDCHAR
STARTCHAR Sigma.c2sc
ENCODING -1
SWIDTH 435 0
DWIDTH 6 0
BBX 6 8 0 0
BITMAP
7FD0
7400
2C00
0E00
0E00
2C00
7400
7FE0
ENDCHAR
STARTCHAR Phi.c2sc
ENCODING -1
SWIDTH 587 0
DWIDTH 8 0
BBX 8 8 0 0
BITMAP
0180
0BE4
369C
7189
7189
369D
1BF4
0180
ENDCHAR
STARTCHAR Psi.c2sc
ENCODING -1
SWIDTH 560 0
DWIDTH 8 0
BBX 8 8 0 0
BITMAP
728D
728D
728C
329C
2AA8
0BE0
0280
0280
ENDCHAR
STARTCHAR Omega.c2sc
ENCODING -1
SWIDTH 540 0
DWIDTH 8 0
BBX 7 8 0 0
BITMAP
0BD0
2874
3028
7018
7018
3428
2870
7DF8
ENDCHAR
STARTCHAR uni0402.c2sc
ENCODING -1
SWIDTH 596 0
DWIDTH 8 0
BBX 8 8 0 0
BITMAP
BFE0
0A00
0A00
0BF8
0A0A
0A06
0A0A
0A38
ENDCHAR
STARTCHAR uni0404.c2sc
ENCODING -1
SWIDTH 490 0
DWIDTH 7 0
BBX 7 8 0 0
BITMAP
0BD0
2470
7024
7F40
7000
7020
2870
0B90
ENDCHAR
STARTCHAR uni0409.c2sc
ENCODING -1
SWIDTH 782 0
DWIDTH 11 0
BBX 11 8 0 0
BITMAP
1FF400
1C2400
1C2400
1C2FD0
1C2474
182424
282474
A02FD0
ENDCHAR
STARTCHAR uni040A.c2sc
ENCODING -1
SWIDTH 788 0
DWIDTH 11 0
BBX 10 8 1 0
BITMAP
C09000
C09000
C09000
FFFF80
C0A1D0
C09090
C0A1D0
C0BF40
ENDCHAR
STARTCHAR uni040B.c2sc
ENCODING -1
SWIDTH 596 0
DWIDTH 8 0
BBX 8 8 0 0
BITMAP
BFE0
0A00
0A00
0BF8
0A0A
0A06
0A06
0A06
ENDCHAR
STARTCHAR uni040F.c2sc
ENCODING -1
SWIDTH 524 0
DWIDTH 7 0
BBX 6 10 1 -2
BITMAP
C090
C090
C090
C090
C090
C090
C090
FFD0
0D00
0D00
ENDCHAR
STARTCHAR uni0411.c2sc
ENCODING -1
SWIDTH 479 0
DWIDTH 7 0
BBX 5 8 1 0
BITMAP
FF40
C000
C000
FE40
C1C0
C0C0
C1C0
FE40
ENDCHAR
STARTCHAR uni0414.c2sc
ENCODING -1
SWIDTH 563 0
DWIDTH 8 0
BBX 8 10 0 -2
BITMAP
0FF8
0D28
0C28
0C28
0C28
1828
2428
BFFD
A009
A009
ENDCHAR
STARTCHAR uni0416.c2sc
ENCODING -1
SWIDTH 651 0
DWIDTH 9 0
BBX 9 8 0 0
BITMAP
74D340
28DA00
0DDD00
0BF800
0DDD00
2CDA00
34D700
70D380
ENDCHAR
STARTCHAR uni0417.c2sc
ENCODING -1
SWIDTH 466 0
DWIDTH 7 0
BBX 6 8 0 0
BITMAP
1F80
74A0
00A0
0B80
00A0
1060
74A0
2F80
ENDCHAR
STARTCHAR uni0418.c2sc
ENCODING -1
SWIDTH 537 0
DWIDTH 8 0
BBX 6 8 1 0
BITMAP
C0E0
C1E0
C3A0
CAA0
DCA0
E8A0
F0A0
D0A0
ENDCHAR
STARTCHAR uni041A.c2sc
ENCODING -1
SWIDTH 473 0
DWIDTH 7 0
BBX 5 8 1 0
BITMAP
C280
C700
DD00
F800
DD00
CA00
C340
C2C0
ENDCHAR
STARTCHAR uni041B.c2sc
ENCODING -1
SWIDTH 521 0
DWIDTH 7 0
BBX 7 8 0 0
BITMAP
1FF4
1C24
1C24
1C24
1C24
1824
2424
A024
ENDCHAR
STARTCHAR uni0423.c2sc
ENCODING -1
SWIDTH 454 0
DWIDTH 6 0
BBX 6 8 0 0
BITMAP
7070
34A0
28D0
1980
0F40
0B00
0A00
2C00
ENDCHAR
STARTCHAR uni0426.c2sc
ENCODING -1
SWIDTH 564 0
DWIDTH 8 0
BBX 7 10 1 -2
BITMAP
C090
C090
C090
C090
C090
C090
C090
FFF4
0024
0024
ENDCHAR
STARTCHAR uni0427.c2sc
ENCODING -1
SWIDTH 487 0
DWIDTH 7 0
BBX 6 8 0 0
BITMAP
A070
A070
A070
7070
2FF0
0070
0070
0070
ENDCHAR
STARTCHAR uni0428.c2sc
ENCODING -1
SWIDTH 691 0
DWIDTH 10 0
BBX 8 8 1 0
BITMAP
C246
C246
C246
C246
C246
C246
C246
FFFE
ENDCHAR
STARTCHAR uni0429.c2sc
ENCODING -1
SWIDTH 731 0
DWIDTH 10 0
BBX 9 10 1 -2
BITMAP
C24600
C24600
C24600
C24600
C24600
C24600
C24600
FFFF80
000180
000180
ENDCHAR
STARTCHAR uni042A.c2sc
ENCODING -1
SWIDTH 559 0
DWIDTH 8 0
BBX 8 8 0 0
BITMAP
BD00
0D00
0D00
0FF4
0D1C
0D0D
0D1C
0FF4
ENDCHAR
STARTCHAR uni042B.c2sc
ENCODING -1
SWIDTH 658 0
DWIDTH 9 0
BBX 8 8 1 0
BITMAP
C00D
C00D
C00D
FE4D
C1CD
C0CD
C1CD
FE4D
ENDCHAR
STARTCHAR uni042C.c2sc
ENCODING -1
SWIDTH 475 0
DWIDTH 7 0
BBX 5 8 1 0
BITMAP
C000
C000
C000
FE40
C1C0
C0C0
C1C0
FE40
ENDCHAR
STARTCHAR uni042D.c2sc
ENCODING -1
SWIDTH 491 0
DWIDTH 7 0
BBX 7 8 0 0
BITMAP
1F80
34A0
6030
07F4
0034
6070
34A0
1F80
ENDCHAR
STARTCHAR uni042E.c2sc
ENCODING -1
SWIDTH 705 0
DWIDTH 10 0
BBX 8 8 1 0
BITMAP
C1F8
C74A
CA07
FD03
C903
C607
C34A
C1F8
ENDCHAR
STARTCHAR uni042F.c2sc
ENCODING -1
SWIDTH 499 0
DWIDTH 7 0
BBX 5 8 1 0
BITMAP
6FC0
E0C0
D0C0
D0C0
7FC0
30C0
A0C0
C0C0
ENDCHAR
STARTCHAR uni0492.c2sc
ENCODING -1
SWIDTH 444 0
DWIDTH 6 0
BBX 6 8 0 0
BITMAP
2FF0
2800
2800
BF00
2800
2800
2800
2800
ENDCHAR
STARTCHAR uni0496.c2sc
ENCODING -1
SWIDTH 676 0
DWIDTH 9 0
BBX 10 11 0 -3
BITMAP
74D340
28DA00
0DDD00
0BF800
0DDD00
2CDA00
34D700
70D3D0
0000D0
0000D0
000040
ENDCHAR
STARTCHAR uni049A.c2sc
ENCODING -1
SWIDTH 492 0
DWIDTH 7 0
BBX 6 10 1 -2
BITMAP
C280
C700
DD00
F800
DD00
CA00
C340
C2E0
00A0
00A0
ENDCHAR
STARTCHAR uni049C.c2sc
ENCODING -1
SWIDTH 562 0
DWIDTH 8 0
BBX 7 8 1 0
BITMAP
C070
D4D0
EA40
FF00
EB40
D5C0
C0A0
C074
ENDCHAR
STARTCHAR uni04A0.c2sc
ENCODING -1
SWIDTH 571 0
DWIDTH 8 0
BBX 8 8 0 0
BITMAP
BD1D
0934
09A0
0BC0
09A0
0974
0928
090D
ENDCHAR
STARTCHAR uni04A8.c2sc
ENCODING -1
SWIDTH 625 0
DWIDTH 9 0
BBX 8 8 0 0
BITMAP
19B8
35DA
7286
7287
7286
31CA
29AD
0BFE
ENDCHAR
STARTCHAR uni04B0.c2sc
ENCODING -1
SWIDTH 480 0
DWIDTH 7 0
BBX 6 8 0 0
BITMAP
A070
34A0
29C0
1E80
0B00
2FC0
0600
0600
ENDCHAR
STARTCHAR uni04B2.c2sc
ENCODING -1
SWIDTH 514 0
DWIDTH 7 0
BBX 7 10 0 -2
BITMAP
7070
28D0
1EC0
0B40
0B40
1DC0
28E0
7078
0018
0018
ENDCHAR
STARTCHAR uni04B4.c2sc
ENCODING -1
SWIDTH 695 0
DWIDTH 10 0
BBX 9 10 0 -2
BITMAP
BFE700
0A0700
0A0700
0A0700
0A0700
0A0700
0A0700
0BFFC0
0001C0
0001C0
ENDCHAR
STARTCHAR uni04B8.c2sc
ENCODING -1
SWIDTH 487 0
DWIDTH 7 0
BBX 6 8 0 0
BITMAP
A070
A070
A570
7670
2FF0
0670
0170
0070
ENDCHAR
STARTCHAR uni04BA.c2sc
ENCODING -1
SWIDTH 487 0
DWIDTH 7 0
BBX 6 8 1 0
BITMAP
C000
C000
C000
EF40
D1C0
C0D0
C0D0
C0D0
ENDCHAR
STARTCHAR uni04BC.c2sc
ENCODING -1
SWIDTH 632 0
DWIDTH 9 0
BBX 9 8 0 0
BITMAP
01F800
474A00
990300
2FFF40
090000
0A0000
074400
01F900
ENDCHAR
STARTCHAR uni04D8.c2sc
ENCODING -1
SWIDTH 527 0
DWIDTH 7 0
BBX 7 8 0 0
BITMAP
1B90
1470
0028
0028
7FF8
7028
3474
1BD0
ENDCHAR
STARTCHAR uni04E0.c2sc
ENCODING -1
SWIDTH 466 0
DWIDTH 7 0
BBX 6 8 0 0
BITMAP
7FE0
01C0
0740
0B80
01A0
1060
74A0
2F80
ENDCHAR
STARTCHAR uni04E8.c2sc
ENCODING -1
SWIDTH 519 0
DWIDTH 7 0
BBX 7 8 0 0
BITMAP
0BD0
2870
3024
7FF8
7028
3034
2870
0BD0
ENDCHAR
STARTCHAR lira.c2sc
ENCODING -1
SWIDTH 467 0
DWIDTH 7 0
BBX 6 8 0 0
BITMAP
0B80
28A0
2410
BF80
2800
BF80
3400
7FF0
ENDCHAR
STARTCHAR Euro.c2sc
ENCODING -1
SWIDTH 433 0
DWIDTH 6 0
BBX 6 8 0 0
BITMAP
0BD0
1C00
7FC0
2800
7FC0
2800
1D00
07D0
ENDCHAR
STARTCHAR uni2116.c2sc
ENCODING -1
SWIDTH 884 0
DWIDTH 12 0
BBX 11 8 1 0
BITMAP
D0A2E0
F0A624
E4A628
DCA624
CAA2E0
C3A000
C1E3F0
C0E000
ENDCHAR
STARTCHAR uni20BD.c2sc
ENCODING -1
SWIDTH 512 0
DWIDTH 7 0
BBX 7 8 0 0
BITMAP
2FE0
2834
2828
2824
BFE0
2800
BF00
2800
ENDCHAR
STARTCHAR three.dnom
ENCODING -1
SWIDTH 329 0
DWIDTH 5 0
BBX 4 5 0 0
BITMAP
3D
17
1D
57
7E
ENDCHAR
STARTCHAR four.dnom
ENCODING -1
SWIDTH 329 0
DWIDTH 5 0
BBX 4 5 0 0
BITMAP
0A
1E
26
BF
06
ENDCHAR
STARTCHAR five.dnom
ENCODING -1
SWIDTH 329 0
DWIDTH 5 0
BBX 4 5 0 0
BITMAP
3E
20
7E
13
2E
ENDCHAR
STARTCHAR six.dnom
ENCODING -1
SWIDTH 329 0
DWIDTH 5 0
BBX 4 5 0 0
BITMAP
1D
34
7E
63
2E
ENDCHAR
STARTCHAR seven.dnom
ENCODING -1
SWIDTH 329 0
DWIDTH 5 0
BBX 4 5 0 0
BITMAP
BF
06
09
18
24
ENDCHAR
STARTCHAR eight.dnom
ENCODING -1
SWIDTH 329 0
DWIDTH 5 0
BBX 4 5 0 0
BITMAP
2D
77
3E
67
3E
ENDCHAR
STARTCHAR nine.dnom
ENCODING -1
SWIDTH 329 0
DWIDTH 5 0
BBX 4 5 0 0
BITMAP
2D
67
3F
06
29
ENDCHAR
STARTCHAR glyph550
ENCODING -1
SWIDTH 404 0
DWIDTH 6 0
BBX 4 1 1 4
BITMAP
FE
ENDCHAR
STARTCHAR glyph551
ENCODING -1
SWIDTH 306 0
DWIDTH 4 0
BBX 3 4 1 7
BITMAP
24
20
A0
A0
ENDCHAR
STARTCHAR E.c2sc
ENCODING -1
SWIDTH 428 0
DWIDTH 6 0
BBX 5 8 1 0
BITMAP
FF80
C000
C000
FF00
C000
C000
C000
FF80
ENDCHAR
STARTCHAR g.ss01
ENCODING -1
SWIDTH 463 0
DWIDTH 7 0
BBX 7 11 0 -3
BITMAP
1FF4
74D0
70A0
34D0
2F80
3000
3FD0
6070
9070
A0A0
2F80
ENDCHAR
STARTCHAR alpha.ss02
ENCODING -1
SWIDTH 523 0
DWIDTH 7 0
BBX 7 8 0 0
BITMAP
1F64
28B4
3074
7030
7030
7074
38B4
1F68
ENDCHAR
STARTCHAR R.ss03
ENCODING -1
SWIDTH 577 0
DWIDTH 8 0
BBX 7 10 1 0
BITMAP
FF80
D0A0
D070
D070
D0A0
FFC0
D0A0
D070
D070
D034
ENDCHAR
STARTCHAR K.ss04
ENCODING -1
SWIDTH 560 0
DWIDTH 8 0
BBX 7 10 1 0
BITMAP
D074
D0D0
D280
D700
FE00
D700
D280
D1D0
D0A0
D034
ENDCHAR
STARTCHAR k.ss04
ENCODING -1
SWIDTH 453 0
DWIDTH 6 0
BBX 5 11 1 0
BITMAP
C000
C000
C000
C280
C700
C900
FC00
DD00
C700
C340
C1C0
ENDCHAR
STARTCHAR K.ss05
ENCODING -1
SWIDTH 572 0
DWIDTH 8 0
BBX 7 10 1 0
BITMAP
D0B0
D1D0
D340
DA00
FC00
EC00
DB00
D380
D0D0
D074
ENDCHAR
STARTCHAR k.ss05
ENCODING -1
SWIDTH 454 0
DWIDTH 6 0
BBX 5 11 1 0
BITMAP
C000
C000
C000
C340
CA00
DC00
F400
F800
DD00
C700
C280
ENDCHAR
STARTCHAR D.c2sc
ENCODING -1
SWIDTH 492 0
DWIDTH 7 0
BBX 6 8 1 0
BITMAP
FE00
C280
C1C0
C0D0
C0D0
C1C0
C280
FE00
ENDCHAR
STARTCHAR C.c2sc
ENCODING -1
SWIDTH 490 0
DWIDTH 7 0
BBX 7 8 0 0
BITMAP
0B90
2870
7024
7000
7000
7024
2870
0B90
ENDCHAR
STARTCHAR B.c2sc
ENCODING -1
SWIDTH 475 0
DWIDTH 7 0
BBX 5 8 1 0
BITMAP
FE40
C280
C280
FF00
C280
C1C0
C280
FE40
ENDCHAR
STARTCHAR A.c2sc
ENCODING -1
SWIDTH 501 0
DWIDTH 7 0
BBX 7 8 0 0
BITMAP
0740
0B80
0DC0
1CD0
28A0
3FF0
7034
A028
ENDCHAR
STARTCHAR glyph564
ENCODING -1
SWIDTH 236 0
DWIDTH 3 0
BBX 2 3 1 8
BITMAP
50
D0
D0
ENDCHAR
STARTCHAR glyph565
ENCODING -1
SWIDTH 402 0
DWIDTH 6 0
BBX 4 4 1 9
BITMAP
60
20
C9
B8
ENDCHAR
STARTCHAR glyph566
ENCODING -1
SWIDTH 0 0
DWIDTH 0 0
BBX 4 4 -5 8
BITMAP
0C
14
65
9C
ENDCHAR
STARTCHAR glyph567
ENCODING -1
SWIDTH 455 0
DWIDTH 6 0
BBX 6 3 1 9
BITMAP
00A0
3D80
9600
ENDCHAR
STARTCHAR glyph568
ENCODING -1
SWIDTH 454 0
DWIDTH 6 0
BBX 6 3 -1 8
BITMAP
A000
27C0
09A0
ENDCHAR
STARTCHAR glyph569
ENCODING -1
SWIDTH 446 0
DWIDTH 6 0
BBX 5 4 1 9
BITMAP
0180
00C0
7E40
9600
ENDCHAR
STARTCHAR glyph570
ENCODING -1
SWIDTH 453 0
DWIDTH 6 0
BBX 4 5 1 9
BITMAP
65
5C
00
78
96
ENDCHAR
STARTCHAR uni0490.c2sc
ENCODING -1
SWIDTH 405 0
DWIDTH 6 0
BBX 5 10 1 0
BITMAP
0340
0340
FF40
C000
C000
C000
C000
C000
C000
C000
ENDCHAR
STARTCHAR glyph572
ENCODING -1
SWIDTH 404 0
DWIDTH 6 0
BBX 4 4 1 9
BITMAP
18
14
C9
B8
ENDCHAR
STARTCHAR glyph573
ENCODING -1
SWIDTH 404 0
DWIDTH 6 0
BBX 4 5 1 9
BITMAP
24
18
24
CD
B8
ENDCHAR
STARTCHAR zero.numr
ENCODING -1
SWIDTH 329 0
DWIDTH 5 0
BBX 4 5 0 5
BITMAP
2D
63
63
67
2D
ENDCHAR
STARTCHAR four.numr
ENCODING -1
SWIDTH 329 0
DWIDTH 5 0
BBX 4 5 0 5
BITMAP
0A
1E
26
BF
06
ENDCHAR
STARTCHAR five.numr
ENCODING -1
SWIDTH 329 0
DWIDTH 5 0
BBX 4 5 0 5
BITMAP
3E
20
7E
13
2E
ENDCHAR
STARTCHAR six.numr
ENCODING -1
SWIDTH 329 0
DWIDTH 5 0
BBX 4 5 0 5
BITMAP
1D
34
7E
63
2E
ENDCHAR
STARTCHAR seven.numr
ENCODING -1
SWIDTH 329 0
DWIDTH 5 0
BBX 4 5 0 5
BITMAP
BF
06
09
18
24
ENDCHAR
STARTCHAR eight.numr
ENCODING -1
SWIDTH 329 0
DWIDTH 5 0
BBX 4 5 0 5
BITMAP
2D
77
3E
67
3E
ENDCHAR
STARTCHAR nine.numr
ENCODING -1
SWIDTH 329 0
DWIDTH 5 0
BBX 4 5 0 5
BITMAP
2D
67
3F
06
29
ENDCHAR
STARTCHAR C.ss06
ENCODING -1
SWIDTH 603 0
DWIDTH 8 0
BBX 7 10 1 0
BITMAP
1B90
7470
A028
D014
C000
C000
D014
A028
7470
1B90
ENDCHAR
STARTCHAR G.ss06
ENCODING -1
SWIDTH 618 0
DWIDTH 9 0
BBX 7 10 1 0
BITMAP
1B90
7474
A028
D000
C000
C1F8
D028
A028
7468
1BE0
ENDCHAR
STARTCHAR D.ss06
ENCODING -1
SWIDTH 608 0
DWIDTH 9 0
BBX 7 10 1 0
BITMAP
FF40
D1E0
D074
D024
D028
D028
D024
D074
D1E0
FF40
ENDCHAR
STARTCHAR O.ss06
ENCODING -1
SWIDTH 643 0
DWIDTH 9 0
BBX 7 10 1 0
BITMAP
1B90
7574
A028
D01C
C00C
C00C
D01C
A028
7474
1B90
ENDCHAR
STARTCHAR Q.ss06
ENCODING -1
SWIDTH 644 0
DWIDTH 9 0
BBX 7 12 1 -2
BITMAP
1B90
3574
A028
D01C
C00C
C00C
D01C
A028
7474
1BE0
0074
0010
ENDCHAR
STARTCHAR one.oldstyle.pnum
ENCODING -1
SWIDTH 421 0
DWIDTH 6 0
BBX 4 8 1 0
BITMAP
19
ED
09
09
09
09
09
09
ENDCHAR
STARTCHAR two.oldstyle.pnum
ENCODING -1
SWIDTH 492 0
DWIDTH 7 0
BBX 6 8 1 0
BITMAP
2E00
A280
81C0
0280
0A00
1C00
7400
FFD0
ENDCHAR
STARTCHAR three.oldstyle.pnum
ENCODING -1
SWIDTH 474 0
DWIDTH 7 0
BBX 6 10 0 -2
BITMAP
7FE0
01C0
0740
0B80
01D0
00A0
0060
00A0
51D0
6F40
ENDCHAR
STARTCHAR four.oldstyle.pnum
ENCODING -1
SWIDTH 524 0
DWIDTH 7 0
BBX 7 10 0 -2
BITMAP
00A0
01E0
03A0
0660
0D60
2860
3460
7FFC
0060
0060
ENDCHAR
STARTCHAR five.oldstyle.pnum
ENCODING -1
SWIDTH 483 0
DWIDTH 7 0
BBX 5 10 1 -2
BITMAP
BFC0
9540
9000
EE00
D780
01C0
01C0
01C0
4780
BE00
ENDCHAR
STARTCHAR seven.oldstyle.pnum
ENCODING -1
SWIDTH 458 0
DWIDTH 6 0
BBX 6 10 0 -2
BITMAP
7FF0
00A0
00D0
01C0
0280
0300
0600
0900
0C00
2800
ENDCHAR
STARTCHAR glyph592
ENCODING -1
SWIDTH 402 0
DWIDTH 6 0
BBX 4 5 1 8
BITMAP
A5
9C
00
C9
B8
ENDCHAR
STARTCHAR glyph593
ENCODING -1
SWIDTH 183 0
DWIDTH 3 0
BBX 2 4 0 -3
BITMAP
70
70
70
70
ENDCHAR
STARTCHAR OE.c2sc
ENCODING -1
SWIDTH 714 0
DWIDTH 10 0
BBX 10 8 0 0
BITMAP
0BFFE0
287000
303000
703FC0
703000
303000
283000
0BFFE0
ENDCHAR
STARTCHAR nine.oldstyle.pnum
ENCODING -1
SWIDTH 520 0
DWIDTH 7 0
BBX 6 10 1 -2
BITMAP
2E40
A1C0
D0D0
C090
D090
A1D0
2ED0
00C0
0280
7E00
ENDCHAR
STARTCHAR glyph596
ENCODING -1
SWIDTH 234 0
DWIDTH 3 0
BBX 3 4 0 -3
BITMAP
34
34
74
E0
ENDCHAR
STARTCHAR three.oldstyle
ENCODING -1
SWIDTH 494 0
DWIDTH 7 0
BBX 6 10 0 -2
BITMAP
3FF0
00D0
0240
0B80
00A0
0070
0070
0070
51D0
6F80
ENDCHAR
STARTCHAR five.oldstyle
ENCODING -1
SWIDTH 494 0
DWIDTH 7 0
BBX 5 10 1 -2
BITMAP
7FC0
A540
9000
EE00
D680
01C0
00C0
01C0
4280
BE00
ENDCHAR
STARTCHAR four.oldstyle
ENCODING -1
SWIDTH 494 0
DWIDTH 7 0
BBX 7 10 0 -2
BITMAP
00E0
01E0
03A0
0AA0
0CA0
28A0
70A0
BFF8
00A0
00A0
ENDCHAR
STARTCHAR two.oldstyle
ENCODING -1
SWIDTH 494 0
DWIDTH 7 0
BBX 5 8 1 0
BITMAP
2E00
E280
8180
0280
0A00
2C00
7400
FFC0
ENDCHAR
STARTCHAR seven.oldstyle
ENCODING -1
SWIDTH 494 0
DWIDTH 7 0
BBX 6 10 1 -2
BITMAP
FFD0
01C0
0280
0340
0600
0900
0C00
2800
3400
7000
ENDCHAR
STARTCHAR zero.oldstyle
ENCODING -1
SWIDTH 494 0
DWIDTH 7 0
BBX 7 8 0 0
BITMAP
1B90
34B0
7034
6024
6024
7034
34B0
1B90
ENDCHAR
STARTCHAR six.oldstyle
ENCODING -1
SWIDTH 494 0
DWIDTH 7 0
BBX 5 10 1 0
BITMAP
1B00
7400
A000
EE00
E280
C0C0
C0C0
D0C0
A280
2E00
ENDCHAR
STARTCHAR nine.oldstyle
ENCODING -1
SWIDTH 494 0
DWIDTH 7 0
BBX 7 10 0 -2
BITMAP
0B80
38A0
7030
7034
7034
38B4
1BB0
0070
11D0
2F40
ENDCHAR
STARTCHAR eight.oldstyle
ENCODING -1
SWIDTH 494 0
DWIDTH 7 0
BBX 5 10 1 0
BITMAP
6E00
A280
D1C0
A280
3F00
A280
C1C0
C0C0
E280
6E00
ENDCHAR
STARTCHAR one.oldstyle
ENCODING -1
SWIDTH 494 0
DWIDTH 7 0
BBX 4 8 1 0
BITMAP
1A
AA
06
06
06
06
06
06
ENDCHAR
STARTCHAR glyph607
ENCODING -1
SWIDTH 237 0
DWIDTH 3 0
BBX 3 11 0 -3
BITMAP
34
34
34
34
34
34
34
34
34
30
E0
ENDCHAR
STARTCHAR glyph608
ENCODING -1
SWIDTH 238 0
DWIDTH 3 0
BBX 3 11 0 -3
BITMAP
34
34
34
34
34
34
34
34
34
30
E0
ENDCHAR
STARTCHAR glyph609
ENCODING -1
SWIDTH 235 0
DWIDTH 3 0
BBX 2 8 1 0
BITMAP
D0
D0
D0
D0
D0
D0
D0
D0
ENDCHAR
STARTCHAR glyph610
ENCODING -1
SWIDTH 235 0
DWIDTH 3 0
BBX 3 11 0 -3
BITMAP
34
34
34
34
34
34
34
34
60
D0
B0
ENDCHAR
STARTCHAR glyph611
ENCODING -1
SWIDTH 235 0
DWIDTH 3 0
BBX 2 8 1 0
BITMAP
D0
D0
D0
D0
D0
D0
D0
D0
ENDCHAR
STARTCHAR germandbls.sc
ENCODING -1
SWIDTH 475 0
DWIDTH 7 0
BBX 5 8 1 0
BITMAP
7E00
D740
C900
DE40
C2C0
C1C0
D280
DE40
ENDCHAR
STARTCHAR zero.oldstyle.pnum
ENCODING -1
SWIDTH 545 0
DWIDTH 8 0
BBX 6 8 1 0
BITMAP
2F40
A1D0
D0A0
C060
C060
D0A0
A1D0
2F40
ENDCHAR
STARTCHAR seven.pnum
ENCODING -1
SWIDTH 458 0
DWIDTH 6 0
BBX 6 10 0 0
BITMAP
BFE0
00A0
00D0
01C0
0240
0300
0600
0900
0C00
1800
ENDCHAR
STARTCHAR b.ss06
ENCODING -1
SWIDTH 493 0
DWIDTH 7 0
BBX 6 11 1 0
BITMAP
C000
C000
C000
EF40
E2C0
C0D0
C0D0
C0D0
C0D0
E2C0
DF40
ENDCHAR
STARTCHAR c.ss06
ENCODING -1
SWIDTH 460 0
DWIDTH 6 0
BBX 6 8 0 0
BITMAP
0B80
28A0
7060
7000
7000
3020
28A0
0B80
ENDCHAR
STARTCHAR d.ss06
ENCODING -1
SWIDTH 503 0
DWIDTH 7 0
BBX 6 11 0 0
BITMAP
0030
0030
0030
0BB0
28B0
7030
7030
7030
3030
28B0
0BB0
ENDCHAR
STARTCHAR g.ss06
ENCODING -1
SWIDTH 500 0
DWIDTH 7 0
BBX 6 11 0 -3
BITMAP
0B70
28B0
7030
7030
7030
3030
28B0
0BB0
0070
14A0
1F80
ENDCHAR
STARTCHAR o.ss06
ENCODING -1
SWIDTH 508 0
DWIDTH 7 0
BBX 7 8 0 0
BITMAP
0B80
28B0
3034
7024
7024
3034
28B0
0B80
ENDCHAR
STARTCHAR p.ss06
ENCODING -1
SWIDTH 500 0
DWIDTH 7 0
BBX 6 11 1 -3
BITMAP
DE40
E2C0
C0D0
C0D0
C0D0
C0D0
E280
EF40
C000
C000
C000
ENDCHAR
STARTCHAR q.ss06
ENCODING -1
SWIDTH 508 0
DWIDTH 7 0
BBX 6 11 0 -3
BITMAP
1BB0
28B0
3030
7030
7030
3030
28B0
1BB0
0030
0030
0030
ENDCHAR
STARTCHAR e.ss07
ENCODING -1
SWIDTH 468 0
DWIDTH 7 0
BBX 6 8 0 0
BITMAP
0B80
28A0
3070
7FF0
7000
3400
2810
0BD0
ENDCHAR
STARTCHAR g.ss07
ENCODING -1
SWIDTH 492 0
DWIDTH 7 0
BBX 6 11 0 -3
BITMAP
1F70
38B0
7070
7070
7070
3070
28B0
1FB0
0070
14A0
1F80
ENDCHAR
STARTCHAR one.pnum
ENCODING -1
SWIDTH 382 0
DWIDTH 5 0
BBX 4 10 0 0
BITMAP
1A
6B
07
07
07
07
07
07
07
07
ENDCHAR
STARTCHAR ampersand.c2sc
ENCODING -1
SWIDTH 526 0
DWIDTH 7 0
BBX 7 8 0 0
BITMAP
1F40
29C0
2A80
0F00
2B24
71F4
74F0
2FA4
ENDCHAR
STARTCHAR Lslash.c2sc
ENCODING -1
SWIDTH 411 0
DWIDTH 6 0
BBX 6 8 0 0
BITMAP
3000
3000
3000
3900
B400
7000
3000
3FD0
ENDCHAR
STARTCHAR AE.c2sc
ENCODING -1
SWIDTH 676 0
DWIDTH 9 0
BBX 9 8 0 0
BITMAP
01FF80
02A000
076000
097F40
1C6000
2FF000
347000
A07FC0
ENDCHAR
STARTCHAR Thorn.c2sc
ENCODING -1
SWIDTH 440 0
DWIDTH 6 0
BBX 5 8 1 0
BITMAP
C000
FE00
C340
C280
C240
FE00
C000
C000
ENDCHAR
STARTCHAR Oslash.c2sc
ENCODING -1
SWIDTH 519 0
DWIDTH 7 0
BBX 7 9 0 -1
BITMAP
0BA4
28B0
30A4
7268
7228
3924
2C70
2BD0
1000
ENDCHAR
STARTCHAR Hbar.c2sc
ENCODING -1
SWIDTH 533 0
DWIDTH 7 0
BBX 7 8 0 0
BITMAP
3028
BFFC
3028
3028
3FF8
3028
3028
3028
ENDCHAR
STARTCHAR Eng.c2sc
ENCODING -1
SWIDTH 533 0
DWIDTH 7 0
BBX 6 11 1 -3
BITMAP
D0A0
F0A0
E4A0
DCA0
CAA0
C3A0
C1E0
C0E0
00A0
0090
0380
ENDCHAR
STARTCHAR Dcroat.c2sc
ENCODING -1
SWIDTH 492 0
DWIDTH 7 0
BBX 8 8 -1 0
BITMAP
0FE0
0C28
0C1C
7F4D
0C0D
0C1C
0C28
0FE0
ENDCHAR
STARTCHAR Eth.c2sc
ENCODING -1
SWIDTH 492 0
DWIDTH 7 0
BBX 8 8 -1 0
BITMAP
0FE0
0C28
0C1C
7F4D
0C0D
0C1C
0C28
0FE0
ENDCHAR
STARTCHAR Tbar.c2sc
ENCODING -1
SWIDTH 456 0
DWIDTH 6 0
BBX 6 8 0 0
BITMAP
BFF0
0600
0600
2FC0
0600
0600
0600
0600
ENDCHAR
STARTCHAR Agrave.c2sc
ENCODING -1
SWIDTH 501 0
DWIDTH 7 0
BBX 7 11 0 0
BITMAP
1D00
0600
0000
0740
0B80
0DC0
1CD0
28A0
3FF0
7034
A028
ENDCHAR
STARTCHAR Aacute.c2sc
ENCODING -1
SWIDTH 501 0
DWIDTH 7 0
BBX 7 11 0 0
BITMAP
01D0
0240
0000
0740
0B80
0DC0
1CD0
28A0
3FF0
7034
A028
ENDCHAR
STARTCHAR Acircumflex.c2sc
ENCODING -1
SWIDTH 501 0
DWIDTH 7 0
BBX 7 11 0 0
BITMAP
0740
0980
0000
0740
0B80
0DC0
1CD0
28A0
3FF0
7034
A028
ENDCHAR
STARTCHAR Atilde.c2sc
ENCODING -1
SWIDTH 501 0
DWIDTH 7 0
BBX 7 11 0 0
BITMAP
0D60
15D0
0000
0740
0B80
0DC0
1CD0
28A0
3FF0
7034
A028
ENDCHAR
STARTCHAR Adieresis.c2sc
ENCODING -1
SWIDTH 501 0
DWIDTH 7 0
BBX 7 11 0 0
BITMAP
0450
28A0
0000
0740
0B80
0DC0
1CD0
28A0
3FF0
7034
A028
ENDCHAR
STARTCHAR Aring.c2sc
ENCODING -1
SWIDTH 501 0
DWIDTH 7 0
BBX 7 12 0 0
BITMAP
0680
0880
0680
0000
0740
0B80
0DC0
1CD0
28A0
3FF0
7034
A028
ENDCHAR
STARTCHAR Aringacute.c2sc
ENCODING -1
SWIDTH 501 0
DWIDTH 7 0
BBX 7 11 0 0
BITMAP
01C0
0140
0740
0780
0B80
0DC0
1CD0
28A0
3FF0
7034
A028
ENDCHAR
STARTCHAR Ccedilla.c2sc
ENCODING -1
SWIDTH 490 0
DWIDTH 7 0
BBX 7 11 0 -3
BITMAP
0B90
2870
7024
7000
7000
7024
2870
0B90
0300
0180
0340
ENDCHAR
STARTCHAR Egrave.c2sc
ENCODING -1
SWIDTH 428 0
DWIDTH 6 0
BBX 5 11 1 0
BITMAP
7000
2800
0000
FF80
C000
C000
FF00
C000
C000
C000
FF80
ENDCHAR
STARTCHAR Eacute.c2sc
ENCODING -1
SWIDTH 428 0
DWIDTH 6 0
BBX 5 11 1 0
BITMAP
0B00
1800
0000
FF80
C000
C000
FF00
C000
C000
C000
FF80
ENDCHAR
STARTCHAR Ecircumflex.c2sc
ENCODING -1
SWIDTH 428 0
DWIDTH 6 0
BBX 5 11 1 0
BITMAP
2C00
6600
0000
FF80
C000
C000
FF00
C000
C000
C000
FF80
ENDCHAR
STARTCHAR Edieresis.c2sc
ENCODING -1
SWIDTH 428 0
DWIDTH 6 0
BBX 5 11 1 0
BITMAP
4100
9340
0000
FF80
C000
C000
FF00
C000
C000
C000
FF80
ENDCHAR
STARTCHAR Igrave.c2sc
ENCODING -1
SWIDTH 221 0
DWIDTH 3 0
BBX 3 11 -1 0
BITMAP
74
18
00
0C
0C
0C
0C
0C
0C
0C
0C
ENDCHAR
STARTCHAR Iacute.c2sc
ENCODING -1
SWIDTH 221 0
DWIDTH 3 0
BBX 3 11 1 0
BITMAP
74
90
00
C0
C0
C0
C0
C0
C0
C0
C0
ENDCHAR
STARTCHAR Icircumflex.c2sc
ENCODING -1
SWIDTH 221 0
DWIDTH 3 0
BBX 3 11 0 0
BITMAP
74
98
00
30
30
30
30
30
30
30
30
ENDCHAR
STARTCHAR Idieresis.c2sc
ENCODING -1
SWIDTH 221 0
DWIDTH 3 0
BBX 5 11 -1 0
BITMAP
1140
6280
0000
0C00
0C00
0C00
0C00
0C00
0C00
0C00
0C00
ENDCHAR
STARTCHAR Ntilde.c2sc
ENCODING -1
SWIDTH 533 0
DWIDTH 7 0
BBX 6 11 1 0
BITMAP
2980
6740
0000
D0A0
F0A0
E4A0
DCA0
CAA0
C3A0
C1E0
C0E0
ENDCHAR
STARTCHAR Ograve.c2sc
ENCODING -1
SWIDTH 519 0
DWIDTH 7 0
BBX 7 11 0 0
BITMAP
0D00
0700
0000
0BD0
2870
3024
7028
7028
3024
2870
0BD0
ENDCHAR
STARTCHAR Oacute.c2sc
ENCODING -1
SWIDTH 519 0
DWIDTH 7 0
BBX 7 11 0 0
BITMAP
01D0
0240
0000
0BD0
2870
3024
7028
7028
3024
2870
0BD0
ENDCHAR
STARTCHAR Ocircumflex.c2sc
ENCODING -1
SWIDTH 519 0
DWIDTH 7 0
BBX 7 11 0 0
BITMAP
0740
0980
0000
0BD0
2870
3024
7028
7028
3024
2870
0BD0
ENDCHAR
STARTCHAR Otilde.c2sc
ENCODING -1
SWIDTH 519 0
DWIDTH 7 0
BBX 7 11 0 0
BITMAP
0E60
19D0
0000
0BD0
2870
3024
7028
7028
3024
2870
0BD0
ENDCHAR
STARTCHAR Odieresis.c2sc
ENCODING -1
SWIDTH 519 0
DWIDTH 7 0
BBX 7 11 0 0
BITMAP
0410
1860
0000
0BD0
2870
3024
7028
7028
3024
2870
0BD0
ENDCHAR
STARTCHAR Ugrave.c2sc
ENCODING -1
SWIDTH 488 0
DWIDTH 7 0
BBX 6 11 0 0
BITMAP
1D00
0600
0000
7030
7030
7030
7030
7030
7030
34A0
1B80
ENDCHAR
STARTCHAR Uacute.c2sc
ENCODING -1
SWIDTH 488 0
DWIDTH 7 0
BBX 6 11 0 0
BITMAP
01D0
0240
0000
7030
7030
7030
7030
7030
7030
34A0
1B80
ENDCHAR
STARTCHAR Ucircumflex.c2sc
ENCODING -1
SWIDTH 488 0
DWIDTH 7 0
BBX 6 11 0 0
BITMAP
0740
0980
0000
7030
7030
7030
7030
7030
7030
34A0
1B80
ENDCHAR
STARTCHAR Udieresis.c2sc
ENCODING -1
SWIDTH 488 0
DWIDTH 7 0
BBX 6 11 0 0
BITMAP
1440
2890
0000
7030
7030
7030
7030
7030
7030
34A0
1B80
ENDCHAR
STARTCHAR Yacute.c2sc
ENCODING -1
SWIDTH 458 0
DWIDTH 6 0
BBX 6 11 0 0
BITMAP
0280
0600
0000
A070
34A0
29C0
1E80
0B00
0600
0600
0600
ENDCHAR
STARTCHAR Amacron.c2sc
ENCODING -1
SWIDTH 501 0
DWIDTH 7 0
BBX 7 10 0 0
BITMAP
1FE0
0000
0740
0B80
0DC0
1CD0
28A0
3FF0
7034
A028
ENDCHAR
STARTCHAR Abreve.c2sc
ENCODING -1
SWIDTH 501 0
DWIDTH 7 0
BBX 7 11 0 0
BITMAP
1890
0B80
0000
0740
0B80
0DC0
1CD0
28A0
3FF0
7034
A028
ENDCHAR
STARTCHAR Aogonek.c2sc
ENCODING -1
SWIDTH 501 0
DWIDTH 7 0
BBX 7 11 0 -3
BITMAP
0740
0B80
0DC0
1CD0
28A0
3FF0
7034
A028
0020
0060
0078
ENDCHAR
STARTCHAR Cacute.c2sc
ENCODING -1
SWIDTH 490 0
DWIDTH 7 0
BBX 7 11 0 0
BITMAP
01D0
0240
0000
0B90
2870
7024
7000
7000
7024
2870
0B90
ENDCHAR
STARTCHAR Ccircumflex.c2sc
ENCODING -1
SWIDTH 490 0
DWIDTH 7 0
BBX 7 11 0 0
BITMAP
0740
0980
0000
0B90
2870
7024
7000
7000
7024
2870
0B90
ENDCHAR
STARTCHAR Cdotaccent.c2sc
ENCODING -1
SWIDTH 490 0
DWIDTH 7 0
BBX 7 11 0 0
BITMAP
0100
0300
0000
0B90
2870
7024
7000
7000
7024
2870
0B90
ENDCHAR
STARTCHAR Ccaron.c2sc
ENCODING -1
SWIDTH 490 0
DWIDTH 7 0
BBX 7 11 0 0
BITMAP
0DC0
0740
0000
0B90
2870
7024
7000
7000
7024
2870
0B90
ENDCHAR
STARTCHAR Dcaron.c2sc
ENCODING -1
SWIDTH 492 0
DWIDTH 7 0
BBX 6 11 1 0
BITMAP
AA00
2800
0000
FE00
C280
C1C0
C0D0
C0D0
C1C0
C280
FE00
ENDCHAR
STARTCHAR Emacron.c2sc
ENCODING -1
SWIDTH 428 0
DWIDTH 6 0
BBX 5 10 1 0
BITMAP
BF40
0000
FF80
C000
C000
FF00
C000
C000
C000
FF80
ENDCHAR
STARTCHAR Ebreve.c2sc
ENCODING -1
SWIDTH 428 0
DWIDTH 6 0
BBX 5 11 1 0
BITMAP
9340
7E00
0000
FF80
C000
C000
FF00
C000
C000
C000
FF80
ENDCHAR
STARTCHAR Edotaccent.c2sc
ENCODING -1
SWIDTH 428 0
DWIDTH 6 0
BBX 5 11 1 0
BITMAP
0400
1800
0000
FF80
C000
C000
FF00
C000
C000
C000
FF80
ENDCHAR
STARTCHAR Eogonek.c2sc
ENCODING -1
SWIDTH 428 0
DWIDTH 6 0
BBX 5 11 1 -3
BITMAP
FF80
C000
C000
FF00
C000
C000
C000
FF80
0600
0900
0B40
ENDCHAR
STARTCHAR Ecaron.c2sc
ENCODING -1
SWIDTH 428 0
DWIDTH 6 0
BBX 5 11 1 0
BITMAP
6600
2C00
0000
FF80
C000
C000
FF00
C000
C000
C000
FF80
ENDCHAR
STARTCHAR Gcircumflex.c2sc
ENCODING -1
SWIDTH 509 0
DWIDTH 7 0
BBX 7 11 0 0
BITMAP
0740
0980
0000
0BD0
2870
7010
7000
71F4
7034
2834
0BE0
ENDCHAR
STARTCHAR Gbreve.c2sc
ENCODING -1
SWIDTH 509 0
DWIDTH 7 0
BBX 7 11 0 0
BITMAP
1890
0B80
0000
0BD0
2870
7010
7000
71F4
7034
2834
0BE0
ENDCHAR
STARTCHAR Gdotaccent.c2sc
ENCODING -1
SWIDTH 509 0
DWIDTH 7 0
BBX 7 11 0 0
BITMAP
0100
0300
0000
0BD0
2870
7010
7000
71F4
7034
2834
0BE0
ENDCHAR
STARTCHAR uni0122.c2sc
ENCODING -1
SWIDTH 509 0
DWIDTH 7 0
BBX 7 12 0 -4
BITMAP
0BD0
2870
7010
7000
71F4
7034
2834
0BE0
0000
0300
0700
0600
ENDCHAR
STARTCHAR Hcircumflex.c2sc
ENCODING -1
SWIDTH 533 0
DWIDTH 7 0
BBX 6 11 1 0
BITMAP
1E00
2640
0000
C0A0
C0A0
C0A0
FFE0
C0A0
C0A0
C0A0
C0A0
ENDCHAR
STARTCHAR Itilde.c2sc
ENCODING -1
SWIDTH 221 0
DWIDTH 3 0
BBX 5 11 -1 0
BITMAP
3980
5740
0000
0C00
0C00
0C00
0C00
0C00
0C00
0C00
0C00
ENDCHAR
STARTCHAR Imacron.c2sc
ENCODING -1
SWIDTH 221 0
DWIDTH 3 0
BBX 5 10 -1 0
BITMAP
7F80
0000
0C00
0C00
0C00
0C00
0C00
0C00
0C00
0C00
ENDCHAR
STARTCHAR Ibreve.c2sc
ENCODING -1
SWIDTH 221 0
DWIDTH 3 0
BBX 5 11 -1 0
BITMAP
6280
2E00
0000
0C00
0C00
0C00
0C00
0C00
0C00
0C00
0C00
ENDCHAR
STARTCHAR Iogonek.c2sc
ENCODING -1
SWIDTH 221 0
DWIDTH 3 0
BBX 3 11 0 -3
BITMAP
30
30
30
30
30
30
30
34
60
90
B4
ENDCHAR
STARTCHAR Idotaccent.c2sc
ENCODING -1
SWIDTH 221 0
DWIDTH 3 0
BBX 2 11 1 0
BITMAP
40
D0
00
C0
C0
C0
C0
C0
C0
C0
C0
ENDCHAR
STARTCHAR Jcircumflex.c2sc
ENCODING -1
SWIDTH 419 0
DWIDTH 6 0
BBX 6 11 0 0
BITMAP
02D0
0660
0000
01C0
01C0
01C0
01C0
01C0
51C0
61C0
2F40
ENDCHAR
STARTCHAR uni0136.c2sc
ENCODING -1
SWIDTH 473 0
DWIDTH 7 0
BBX 6 12 1 -4
BITMAP
C1C0
C740
DD00
EC00
FD00
C700
C280
C1D0
0000
1800
2800
2400
ENDCHAR
STARTCHAR Lacute.c2sc
ENCODING -1
SWIDTH 411 0
DWIDTH 6 0
BBX 5 11 1 0
BITMAP
7400
9000
0000
C000
C000
C000
C000
C000
C000
C000
FF40
ENDCHAR
STARTCHAR uni013B.c2sc
ENCODING -1
SWIDTH 411 0
DWIDTH 6 0
BBX 5 12 1 -4
BITMAP
C000
C000
C000
C000
C000
C000
C000
FF40
0000
1800
2800
2400
ENDCHAR
STARTCHAR Lcaron.c2sc
ENCODING -1
SWIDTH 411 0
DWIDTH 6 0
BBX 5 8 1 0
BITMAP
C900
C900
C800
C000
C000
C000
C000
FF40
ENDCHAR
STARTCHAR Ldot.c2sc
ENCODING -1
SWIDTH 411 0
DWIDTH 6 0
BBX 5 8 1 0
BITMAP
C000
C000
C400
CD00
C000
C000
C000
FF40
ENDCHAR
STARTCHAR Nacute.c2sc
ENCODING -1
SWIDTH 533 0
DWIDTH 7 0
BBX 6 11 1 0
BITMAP
0340
0A00
0000
D0A0
F0A0
E4A0
DCA0
CAA0
C3A0
C1E0
C0E0
ENDCHAR
STARTCHAR uni0145.c2sc
ENCODING -1
SWIDTH 533 0
DWIDTH 7 0
BBX 6 12 1 -4
BITMAP
D0A0
F0A0
E4A0
DCA0
CAA0
C3A0
C1E0
C0E0
0000
0D00
0C00
0800
ENDCHAR
STARTCHAR Ncaron.c2sc
ENCODING -1
SWIDTH 533 0
DWIDTH 7 0
BBX 6 11 1 0
BITMAP
2640
0D00
0000
D0A0
F0A0
E4A0
DCA0
CAA0
C3A0
C1E0
C0E0
ENDCHAR
STARTCHAR Omacron.c2sc
ENCODING -1
SWIDTH 519 0
DWIDTH 7 0
BBX 7 10 0 0
BITMAP
1FE0
0000
0BD0
2870
3024
7028
7028
3024
2870
0BD0
ENDCHAR
STARTCHAR Obreve.c2sc
ENCODING -1
SWIDTH 519 0
DWIDTH 7 0
BBX 7 11 0 0
BITMAP
18A0
0B80
0000
0BD0
2870
3024
7028
7028
3024
2870
0BD0
ENDCHAR
STARTCHAR Ohungarumlaut.c2sc
ENCODING -1
SWIDTH 519 0
DWIDTH 7 0
BBX 7 11 0 0
BITMAP
0770
0990
0000
0BD0
2870
3024
7028
7028
3024
2870
0BD0
ENDCHAR
STARTCHAR Racute.c2sc
ENCODING -1
SWIDTH 465 0
DWIDTH 7 0
BBX 5 11 1 0
BITMAP
0A00
1800
0000
FE00
C280
C1C0
C280
FF00
C700
C280
C1C0
ENDCHAR
STARTCHAR uni0156.c2sc
ENCODING -1
SWIDTH 465 0
DWIDTH 7 0
BBX 5 12 1 -4
BITMAP
FE00
C280
C1C0
C280
FF00
C700
C280
C1C0
0000
1800
2800
2400
ENDCHAR
STARTCHAR Rcaron.c2sc
ENCODING -1
SWIDTH 465 0
DWIDTH 7 0
BBX 5 11 1 0
BITMAP
6600
2800
0000
FE00
C280
C1C0
C280
FF00
C700
C280
C1C0
ENDCHAR
STARTCHAR Sacute.c2sc
ENCODING -1
SWIDTH 453 0
DWIDTH 6 0
BBX 6 11 0 0
BITMAP
02C0
0200
0000
1F80
34A0
7050
2E40
06D0
5060
74A0
1F80
ENDCHAR
STARTCHAR Scircumflex.c2sc
ENCODING -1
SWIDTH 453 0
DWIDTH 6 0
BBX 6 11 0 0
BITMAP
0B40
1980
0000
1F80
34A0
7050
2E40
06D0
5060
74A0
1F80
ENDCHAR
STARTCHAR Scedilla.c2sc
ENCODING -1
SWIDTH 453 0
DWIDTH 6 0
BBX 6 11 0 -3
BITMAP
1F80
34A0
7050
2E40
06D0
5060
74A0
1F80
0200
0240
0740
ENDCHAR
STARTCHAR Scaron.c2sc
ENCODING -1
SWIDTH 453 0
DWIDTH 6 0
BBX 6 11 0 0
BITMAP
1980
0700
0000
1F80
34A0
7050
2E40
06D0
5060
74A0
1F80
ENDCHAR
STARTCHAR uni021A.c2sc
ENCODING -1
SWIDTH 456 0
DWIDTH 6 0
BBX 6 12 0 -4
BITMAP
BFF0
0600
0600
0600
0600
0600
0600
0600
0000
0600
0A00
0900
ENDCHAR
STARTCHAR Tcaron.c2sc
ENCODING -1
SWIDTH 456 0
DWIDTH 6 0
BBX 6 11 0 0
BITMAP
1980
0A00
0000
BFF0
0600
0600
0600
0600
0600
0600
0600
ENDCHAR
STARTCHAR uni0162.c2sc
ENCODING -1
SWIDTH 456 0
DWIDTH 6 0
BBX 6 11 0 -3
BITMAP
BFF0
0600
0600
0600
0600
0600
0600
0600
0600
0240
0740
ENDCHAR
STARTCHAR Utilde.c2sc
ENCODING -1
SWIDTH 488 0
DWIDTH 7 0
BBX 6 11 0 0
BITMAP
1D50
26C0
0000
7030
7030
7030
7030
7030
7030
34A0
1B80
ENDCHAR
STARTCHAR Umacron.c2sc
ENCODING -1
SWIDTH 488 0
DWIDTH 7 0
BBX 6 10 0 0
BITMAP
2FD0
0000
7030
7030
7030
7030
7030
7030
34A0
1B80
ENDCHAR
STARTCHAR Ubreve.c2sc
ENCODING -1
SWIDTH 488 0
DWIDTH 7 0
BBX 6 11 0 0
BITMAP
2890
0B80
0000
7030
7030
7030
7030
7030
7030
34A0
1B80
ENDCHAR
STARTCHAR Uring.c2sc
ENCODING -1
SWIDTH 488 0
DWIDTH 7 0
BBX 6 12 0 0
BITMAP
0A40
0880
0A40
0000
7030
7030
7030
7030
7030
7030
34A0
1B80
ENDCHAR
STARTCHAR Uhungarumlaut.c2sc
ENCODING -1
SWIDTH 488 0
DWIDTH 7 0
BBX 6 11 0 0
BITMAP
06A0
0980
0000
7030
7030
7030
7030
7030
7030
34A0
1B80
ENDCHAR
STARTCHAR Uogonek.c2sc
ENCODING -1
SWIDTH 488 0
DWIDTH 7 0
BBX 6 11 0 -3
BITMAP
7030
7030
7030
7030
7030
7030
34A0
1BD0
0340
0300
0280
ENDCHAR
STARTCHAR Wcircumflex.c2sc
ENCODING -1
SWIDTH 655 0
DWIDTH 9 0
BBX 9 11 0 0
BITMAP
01D000
026000
000000
60D180
71E280
31A240
367300
272700
1A2A00
1E1D00
0D0D00
ENDCHAR
STARTCHAR Ycircumflex.c2sc
ENCODING -1
SWIDTH 458 0
DWIDTH 6 0
BBX 6 11 0 0
BITMAP
0B00
1980
0000
A070
34A0
29C0
1E80
0B00
0600
0600
0600
ENDCHAR
STARTCHAR Ydieresis.c2sc
ENCODING -1
SWIDTH 458 0
DWIDTH 6 0
BBX 6 11 0 0
BITMAP
1040
24D0
0000
A070
34A0
29C0
1E80
0B00
0600
0600
0600
ENDCHAR
STARTCHAR Zacute.c2sc
ENCODING -1
SWIDTH 454 0
DWIDTH 6 0
BBX 6 11 0 0
BITMAP
0280
0600
0000
7FE0
00D0
0280
0700
0900
1C00
3400
7FF0
ENDCHAR
STARTCHAR Zdotaccent.c2sc
ENCODING -1
SWIDTH 454 0
DWIDTH 6 0
BBX 6 11 0 0
BITMAP
0100
0600
0000
7FE0
00D0
0280
0700
0900
1C00
3400
7FF0
ENDCHAR
STARTCHAR Zcaron.c2sc
ENCODING -1
SWIDTH 454 0
DWIDTH 6 0
BBX 6 11 0 0
BITMAP
1980
0B00
0000
7FE0
00D0
0280
0700
0900
1C00
3400
7FF0
ENDCHAR
STARTCHAR two.pnum
ENCODING -1
SWIDTH 493 0
DWIDTH 7 0
BBX 7 10 0 0
BITMAP
1B80
34A0
7070
0070
0090
01C0
0740
0D00
2800
7FF4
ENDCHAR
STARTCHAR three.pnum
ENCODING -1
SWIDTH 493 0
DWIDTH 7 0
BBX 6 10 0 0
BITMAP
1B80
34A0
2070
00A0
0BC0
00A0
0070
6070
34A0
1F80
ENDCHAR
STARTCHAR four.pnum
ENCODING -1
SWIDTH 493 0
DWIDTH 7 0
BBX 7 10 0 0
BITMAP
00D0
02D0
07D0
0990
1C90
2490
7090
BFF4
00D0
0090
ENDCHAR
STARTCHAR five.pnum
ENCODING -1
SWIDTH 493 0
DWIDTH 7 0
BBX 6 10 1 0
BITMAP
7FC0
6540
A000
BF40
66C0
00D0
00D0
80D0
A2C0
2E40
ENDCHAR
STARTCHAR six.pnum
ENCODING -1
SWIDTH 503 0
DWIDTH 7 0
BBX 6 10 1 0
BITMAP
0B00
3900
A000
AF40
E1C0
D0D0
D0D0
90D0
71C0
2E40
ENDCHAR
STARTCHAR eight.pnum
ENCODING -1
SWIDTH 513 0
DWIDTH 7 0
BBX 6 10 1 0
BITMAP
2E40
A2C0
D1C0
A280
3F00
A280
D0D0
D0D0
A1C0
2E40
ENDCHAR
STARTCHAR nine.pnum
ENCODING -1
SWIDTH 503 0
DWIDTH 7 0
BBX 6 10 0 0
BITMAP
0B80
28D0
3060
7070
7070
34B0
1FB0
00A0
01D0
0E40
ENDCHAR
STARTCHAR zero.pnum
ENCODING -1
SWIDTH 513 0
DWIDTH 7 0
BBX 6 10 1 0
BITMAP
2E00
A280
D0C0
C0D0
C0D0
C0D0
C0D0
D0C0
A280
2E40
ENDCHAR
STARTCHAR G_acutecomb.ccmp
ENCODING -1
SWIDTH 590 0
DWIDTH 8 0
BBX 7 13 1 0
BITMAP
0280
0600
0000
2F80
B4B0
D034
C000
C000
C2F4
D034
D034
7474
2FD0
ENDCHAR
STARTCHAR g_acutecomb.ccmp
ENCODING -1
SWIDTH 492 0
DWIDTH 7 0
BBX 6 14 0 -3
BITMAP
02C0
0240
0000
1F70
38B0
7070
7070
7070
7070
34B0
1FB0
0070
24A0
1F80
ENDCHAR
STARTCHAR N_gravecomb.ccmp
ENCODING -1
SWIDTH 619 0
DWIDTH 9 0
BBX 7 13 1 0
BITMAP
1D00
0600
0000
E028
F028
F828
DC28
DA28
D368
D2A8
D0F8
D078
D038
ENDCHAR
STARTCHAR n_gravecomb.ccmp
ENCODING -1
SWIDTH 483 0
DWIDTH 7 0
BBX 5 11 1 0
BITMAP
7400
1800
0000
DF40
E280
C180
C1C0
C1C0
C1C0
C1C0
C1C0
ENDCHAR
STARTCHAR A_uni030F.ccmp
ENCODING -1
SWIDTH 576 0
DWIDTH 8 0
BBX 8 13 0 0
BITMAP
2A80
0AC0
0000
0280
03C0
0690
0960
0C30
1C24
2FF8
341C
700D
A00A
ENDCHAR
STARTCHAR a_uni030F.ccmp
ENCODING -1
SWIDTH 479 0
DWIDTH 7 0
BBX 6 11 0 0
BITMAP
7700
1A40
0000
1B80
34A0
0060
1BE0
3860
7060
35E0
1EB0
ENDCHAR
STARTCHAR E_uni030F.ccmp
ENCODING -1
SWIDTH 496 0
DWIDTH 7 0
BBX 6 13 1 0
BITMAP
ED00
7600
0000
FFD0
D000
D000
D000
FFC0
D000
D000
D000
D000
FFD0
ENDCHAR
STARTCHAR e_uni030F.ccmp
ENCODING -1
SWIDTH 468 0
DWIDTH 7 0
BBX 6 11 0 0
BITMAP
7B00
1A40
0000
0B80
34A0
7070
7FF0
7000
7000
3860
1BD0
ENDCHAR
STARTCHAR I_uni030F.ccmp
ENCODING -1
SWIDTH 250 0
DWIDTH 4 0
BBX 4 13 -1 0
BITMAP
ED
36
00
0D
0D
0D
0D
0D
0D
0D
0D
0D
0D
ENDCHAR
STARTCHAR dotlessi_uni030F.ccmp
ENCODING -1
SWIDTH 234 0
DWIDTH 3 0
BBX 4 11 -1 0
BITMAP
DC
7A
00
0D
0D
0D
0D
0D
0D
0D
0D
ENDCHAR
STARTCHAR O_uni030F.ccmp
ENCODING -1
SWIDTH 600 0
DWIDTH 8 0
BBX 7 13 1 0
BITMAP
7A00
2A40
0000
2F80
75B0
D034
C024
C028
C028
C024
D034
75B0
2F80
ENDCHAR
STARTCHAR o_uni030F.ccmp
ENCODING -1
SWIDTH 501 0
DWIDTH 7 0
BBX 7 11 0 0
BITMAP
7700
1A40
0000
0B80
28B0
7034
7034
7034
7034
3870
0B80
ENDCHAR
STARTCHAR R_uni030F.ccmp
ENCODING -1
SWIDTH 530 0
DWIDTH 7 0
BBX 6 13 1 0
BITMAP
DC00
7A00
0000
FF80
D1D0
D0A0
D060
D1D0
FF80
D280
D1C0
D0A0
D070
ENDCHAR
STARTCHAR r_uni030F.ccmp
ENCODING -1
SWIDTH 304 0
DWIDTH 4 0
BBX 5 11 -1 0
BITMAP
7700
1A40
0000
0EC0
0E40
0C00
0C00
0C00
0C00
0C00
0C00
ENDCHAR
STARTCHAR U_uni030F.ccmp
ENCODING -1
SWIDTH 561 0
DWIDTH 8 0
BBX 6 13 1 0
BITMAP
A900
2700
0000
C070
C070
C070
C070
C070
C070
C070
D070
A0A0
2F80
ENDCHAR
STARTCHAR u_uni030F.ccmp
ENCODING -1
SWIDTH 483 0
DWIDTH 7 0
BBX 6 11 0 0
BITMAP
7B00
1A40
0000
3070
3070
3070
3070
3070
3070
34B0
1FB0
ENDCHAR
STARTCHAR Upsilon1_acutecomb.ccmp
ENCODING -1
SWIDTH 514 0
DWIDTH 7 0
BBX 10 11 -2 0
BITMAP
600000
9741D0
028340
00D700
00AA00
007D00
003800
002800
002800
002800
002800
ENDCHAR
STARTCHAR B_dotbelowcomb.ccmp
ENCODING -1
SWIDTH 545 0
DWIDTH 8 0
BBX 6 13 1 -3
BITMAP
FF80
D1D0
D0A0
D0D0
FF80
D0D0
D060
D060
D1D0
FF80
0000
0D00
0400
ENDCHAR
STARTCHAR b_dotbelowcomb.ccmp
ENCODING -1
SWIDTH 493 0
DWIDTH 7 0
BBX 6 14 1 -3
BITMAP
C000
C000
C000
EF40
E2C0
C0C0
C0D0
C0D0
C0C0
E2C0
DF40
0000
0D00
0400
ENDCHAR
STARTCHAR D_dotbelowcomb.ccmp
ENCODING -1
SWIDTH 570 0
DWIDTH 8 0
BBX 6 13 1 -3
BITMAP
FF40
D1D0
D070
D070
D030
D030
D070
D070
D1D0
FF40
0000
0D00
0400
ENDCHAR
STARTCHAR d_dotbelowcomb.ccmp
ENCODING -1
SWIDTH 496 0
DWIDTH 7 0
BBX 6 14 0 -3
BITMAP
0070
0070
0070
1FB0
38B0
7070
7070
7070
7070
34B0
1FB0
0000
0340
0100
ENDCHAR
STARTCHAR D_uniF6C3.ccmp
ENCODING -1
SWIDTH 570 0
DWIDTH 8 0
BBX 6 14 1 -4
BITMAP
FF40
D1D0
D070
D070
D030
D030
D070
D070
D1D0
FF40
0000
0D00
0C00
0800
ENDCHAR
STARTCHAR d_uniF6C3.ccmp
ENCODING -1
SWIDTH 496 0
DWIDTH 7 0
BBX 6 15 0 -4
BITMAP
0070
0070
0070
1FB0
38B0
7070
7070
7070
7070
34B0
1FB0
0000
0340
0300
0200
ENDCHAR
STARTCHAR H_dotbelowcomb.ccmp
ENCODING -1
SWIDTH 620 0
DWIDTH 9 0
BBX 7 13 1 -3
BITMAP
D028
D028
D028
D028
FFF8
D028
D028
D028
D028
D028
0000
0600
0100
ENDCHAR
STARTCHAR h_dotbelowcomb.ccmp
ENCODING -1
SWIDTH 482 0
DWIDTH 7 0
BBX 5 14 1 -3
BITMAP
C000
C000
C000
EF40
E280
C180
C1C0
C1C0
C1C0
C1C0
C1C0
0000
0C00
0400
ENDCHAR
STARTCHAR K_acutecomb.ccmp
ENCODING -1
SWIDTH 544 0
DWIDTH 8 0
BBX 7 13 1 0
BITMAP
0740
0900
0000
D0B0
D1D0
D340
DA00
ED00
FA00
D340
D1C0
D0A0
D074
ENDCHAR
STARTCHAR k_acutecomb.ccmp
ENCODING -1
SWIDTH 450 0
DWIDTH 6 0
BBX 5 12 1 0
BITMAP
0B00
D800
C000
C000
C380
CA00
DC00
F800
ED00
CA00
C340
C2C0
ENDCHAR
STARTCHAR K_dotbelowcomb.ccmp
ENCODING -1
SWIDTH 544 0
DWIDTH 8 0
BBX 7 12 1 -2
BITMAP
D0B0
D1D0
D340
DA00
ED00
FA00
D340
D1C0
D0A0
D074
0A00
0500
ENDCHAR
STARTCHAR k_dotbelowcomb.ccmp
ENCODING -1
SWIDTH 450 0
DWIDTH 6 0
BBX 5 14 1 -3
BITMAP
C000
C000
C000
C380
CA00
DC00
F800
ED00
CA00
C340
C2C0
0000
1800
0400
ENDCHAR
STARTCHAR L_dotbelowcomb.ccmp
ENCODING -1
SWIDTH 475 0
DWIDTH 7 0
BBX 6 13 1 -3
BITMAP
D000
D000
D000
D000
D000
D000
D000
D000
D000
FFD0
0000
0D00
0400
ENDCHAR
STARTCHAR l_dotbelowcomb.ccmp
ENCODING -1
SWIDTH 229 0
DWIDTH 3 0
BBX 2 14 1 -3
BITMAP
D0
D0
D0
D0
D0
D0
D0
D0
D0
D0
D0
00
D0
40
ENDCHAR
STARTCHAR M_dotbelowcomb.ccmp
ENCODING -1
SWIDTH 755 0
DWIDTH 11 0
BBX 9 13 1 -3
BITMAP
F00780
F00B80
F40F80
E81E80
DC2A80
D93680
D67280
D3A280
D2D280
D1C280
000000
018000
004000
ENDCHAR
STARTCHAR m_dotbelowcomb.ccmp
ENCODING -1
SWIDTH 752 0
DWIDTH 11 0
BBX 9 11 1 -3
BITMAP
EF6E00
E2D340
C1C280
C1C280
C1C280
C1C280
C1C280
C1C280
000000
018000
004000
ENDCHAR
STARTCHAR N_dotbelowcomb.ccmp
ENCODING -1
SWIDTH 619 0
DWIDTH 9 0
BBX 7 13 1 -3
BITMAP
E028
F028
F828
DC28
DA28
D368
D2A8
D0F8
D078
D038
0000
0600
0100
ENDCHAR
STARTCHAR n_dotbelowcomb.ccmp
ENCODING -1
SWIDTH 483 0
DWIDTH 7 0
BBX 5 11 1 -3
BITMAP
DF40
E280
C180
C1C0
C1C0
C1C0
C1C0
C1C0
0000
1C00
0400
ENDCHAR
STARTCHAR O_tildecomb_acutecomb.ccmp
ENCODING -1
SWIDTH 600 0
DWIDTH 8 0
BBX 7 15 1 0
BITMAP
0240
0200
0D80
1640
0000
2F80
75B0
D034
C024
C028
C028
C024
D034
75B0
2F80
ENDCHAR
STARTCHAR P_acutecomb.ccmp
ENCODING -1
SWIDTH 554 0
DWIDTH 8 0
BBX 6 13 1 0
BITMAP
0740
0900
0000
FF80
D0A0
D030
D030
D0B0
FF90
D000
D000
D000
D000
ENDCHAR
STARTCHAR p_acutecomb.ccmp
ENCODING -1
SWIDTH 493 0
DWIDTH 7 0
BBX 6 14 1 -3
BITMAP
0340
0A00
0000
DF40
E2C0
C0C0
C0D0
C0D0
C0C0
E2C0
EF40
C000
C000
C000
ENDCHAR
STARTCHAR R_dotbelowcomb.ccmp
ENCODING -1
SWIDTH 530 0
DWIDTH 7 0
BBX 6 13 1 -3
BITMAP
FF80
D1D0
D0A0
D060
D1D0
FF80
D280
D1C0
D0A0
D070
0000
0D00
0400
ENDCHAR
STARTCHAR r_dotbelowcomb.ccmp
ENCODING -1
SWIDTH 304 0
DWIDTH 4 0
BBX 3 11 1 -3
BITMAP
EC
E4
C0
C0
C0
C0
C0
C0
00
D0
40
ENDCHAR
STARTCHAR S_dotbelowcomb.ccmp
ENCODING -1
SWIDTH 518 0
DWIDTH 7 0
BBX 7 13 0 -3
BITMAP
0BD0
3874
3028
3400
1E40
02E0
0038
7028
3874
1BE0
0000
0340
0100
ENDCHAR
STARTCHAR s_dotbelowcomb.ccmp
ENCODING -1
SWIDTH 455 0
DWIDTH 6 0
BBX 5 11 1 -3
BITMAP
7E00
D340
D140
B800
1B40
4280
D280
7E00
0000
1C00
0400
ENDCHAR
STARTCHAR T_dotbelowcomb.ccmp
ENCODING -1
SWIDTH 520 0
DWIDTH 7 0
BBX 7 13 0 -3
BITMAP
BFFC
0340
0340
0340
0340
0340
0340
0340
0340
0340
0000
0340
0100
ENDCHAR
STARTCHAR t_dotbelowcomb.ccmp
ENCODING -1
SWIDTH 295 0
DWIDTH 4 0
BBX 4 13 0 -3
BITMAP
24
24
FE
24
24
24
24
24
28
1E
00
0D
04
ENDCHAR
STARTCHAR U_tildecomb_acutecomb.ccmp
ENCODING -1
SWIDTH 561 0
DWIDTH 8 0
BBX 6 15 1 0
BITMAP
0300
0600
1D40
2740
0000
C070
C070
C070
C070
C070
C070
C070
D070
A0A0
2F80
ENDCHAR
STARTCHAR V_tildecomb.ccmp
ENCODING -1
SWIDTH 560 0
DWIDTH 8 0
BBX 8 13 0 0
BITMAP
0A30
09E0
0000
A00D
701C
3428
2824
1C34
0D70
09A0
06D0
03C0
0280
ENDCHAR
STARTCHAR v_tildecomb.ccmp
ENCODING -1
SWIDTH 427 0
DWIDTH 6 0
BBX 6 11 0 0
BITMAP
2C80
2380
0000
A0A0
70D0
31C0
2580
1A40
0F00
0F00
0A00
ENDCHAR
STARTCHAR V_dotbelowcomb.ccmp
ENCODING -1
SWIDTH 560 0
DWIDTH 8 0
BBX 8 13 0 -3
BITMAP
A00D
701C
3428
2824
1C34
0D70
09A0
06D0
03C0
0280
0000
0240
0140
ENDCHAR
STARTCHAR v_dotbelowcomb.ccmp
ENCODING -1
SWIDTH 427 0
DWIDTH 6 0
BBX 6 11 0 -3
BITMAP
A0A0
70D0
31C0
2580
1A40
0F00
0F00
0A00
0000
0A00
0500
ENDCHAR
STARTCHAR W_dotbelowcomb.ccmp
ENCODING -1
SWIDTH 761 0
DWIDTH 11 0
BBX 11 13 0 -3
BITMAP
607034
707470
34B460
24D8A0
28CC90
198CD0
1E49C0
0F4780
0B0380
0A0340
000000
007000
001000
ENDCHAR
STARTCHAR w_dotbelowcomb.ccmp
ENCODING -1
SWIDTH 649 0
DWIDTH 9 0
BBX 9 11 0 -3
BITMAP
A0C280
71D240
32E340
367300
2B3600
1E2D00
1D1D00
0D0C00
000000
00C000
004000
ENDCHAR
STARTCHAR Z_dotbelowcomb.ccmp
ENCODING -1
SWIDTH 522 0
DWIDTH 7 0
BBX 7 13 0 -3
BITMAP
7FF8
0074
00A0
01C0
0280
0700
0D00
2800
3400
7FF8
0000
0340
0100
ENDCHAR
STARTCHAR z_dotbelowcomb.ccmp
ENCODING -1
SWIDTH 438 0
DWIDTH 6 0
BBX 6 11 0 -3
BITMAP
7FD0
01C0
0280
0700
0D00
1C00
3400
7FE0
0000
0600
0500
ENDCHAR
STARTCHAR Alphatonos.c2sc
ENCODING -1
SWIDTH 501 0
DWIDTH 7 0
BBX 7 9 0 0
BITMAP
3400
2740
0B80
0DC0
1CD0
28A0
3FF0
7034
A028
ENDCHAR
STARTCHAR Epsilontonos.c2sc
ENCODING -1
SWIDTH 458 0
DWIDTH 6 0
BBX 7 9 -1 0
BITMAP
9000
8BFC
0A00
0A00
0BF4
0A00
0A00
0A00
0BFC
ENDCHAR
STARTCHAR Etatonos.c2sc
ENCODING -1
SWIDTH 562 0
DWIDTH 8 0
BBX 8 9 -1 0
BITMAP
A000
9A07
0A07
0A07
0BFF
0A07
0A07
0A07
0A07
ENDCHAR
STARTCHAR Iotatonos.c2sc
ENCODING -1
SWIDTH 250 0
DWIDTH 4 0
BBX 4 9 -1 0
BITMAP
A0
9A
0A
0A
0A
0A
0A
0A
0A
ENDCHAR
STARTCHAR Omicrontonos.c2sc
ENCODING -1
SWIDTH 523 0
DWIDTH 7 0
BBX 7 9 0 0
BITMAP
C000
8BD0
2870
3024
7028
7028
3024
2870
0BD0
ENDCHAR
STARTCHAR Upsilontonos.c2sc
ENCODING -1
SWIDTH 487 0
DWIDTH 7 0
BBX 9 9 -2 0
BITMAP
300000
674340
028700
01CD00
00AC00
007800
003400
003400
003400
ENDCHAR
STARTCHAR Omegatonos.c2sc
ENCODING -1
SWIDTH 545 0
DWIDTH 8 0
BBX 7 9 0 0
BITMAP
C000
8BD0
2874
3428
3018
3018
3428
1874
3EBC
ENDCHAR
STARTCHAR Alpha.c2sc
ENCODING -1
SWIDTH 501 0
DWIDTH 7 0
BBX 7 8 0 0
BITMAP
0740
0B80
0DC0
1CD0
28A0
3FF0
7034
A028
ENDCHAR
STARTCHAR Beta.c2sc
ENCODING -1
SWIDTH 475 0
DWIDTH 7 0
BBX 5 8 1 0
BITMAP
FE40
C280
C280
FF00
C280
C1C0
C280
FE40
ENDCHAR
STARTCHAR Epsilon.c2sc
ENCODING -1
SWIDTH 428 0
DWIDTH 6 0
BBX 5 8 1 0
BITMAP
FF80
C000
C000
FF00
C000
C000
C000
FF80
ENDCHAR
STARTCHAR Zeta.c2sc
ENCODING -1
SWIDTH 454 0
DWIDTH 6 0
BBX 6 8 0 0
BITMAP
7FE0
00D0
0280
0700
0900
1C00
3400
7FF0
ENDCHAR
STARTCHAR Eta.c2sc
ENCODING -1
SWIDTH 533 0
DWIDTH 7 0
BBX 6 8 1 0
BITMAP
C0A0
C0A0
C0A0
FFE0
C0A0
C0A0
C0A0
C0A0
ENDCHAR
STARTCHAR Iota.c2sc
ENCODING -1
SWIDTH 221 0
DWIDTH 3 0
BBX 1 8 1 0
BITMAP
C0
C0
C0
C0
C0
C0
C0
C0
ENDCHAR
STARTCHAR Kappa.c2sc
ENCODING -1
SWIDTH 473 0
DWIDTH 7 0
BBX 6 8 1 0
BITMAP
C1C0
C740
DD00
EC00
FD00
C700
C280
C1D0
ENDCHAR
STARTCHAR Mu.c2sc
ENCODING -1
SWIDTH 652 0
DWIDTH 9 0
BBX 8 8 1 0
BITMAP
E01D
F03D
E47D
D8AD
DCDD
C9CD
C78D
C34D
ENDCHAR
STARTCHAR Nu.c2sc
ENCODING -1
SWIDTH 533 0
DWIDTH 7 0
BBX 6 8 1 0
BITMAP
D0A0
F0A0
E4A0
DCA0
CAA0
C3A0
C1E0
C0E0
ENDCHAR
STARTCHAR Omicron.c2sc
ENCODING -1
SWIDTH 519 0
DWIDTH 7 0
BBX 7 8 0 0
BITMAP
0BD0
2870
3024
7028
7028
3024
2870
0BD0
ENDCHAR
STARTCHAR Rho.c2sc
ENCODING -1
SWIDTH 481 0
DWIDTH 7 0
BBX 6 8 1 0
BITMAP
FF40
C1C0
C0D0
C1C0
FF40
C000
C000
C000
ENDCHAR
STARTCHAR Tau.c2sc
ENCODING -1
SWIDTH 456 0
DWIDTH 6 0
BBX 6 8 0 0
BITMAP
BFF0
0600
0600
0600
0600
0600
0600
0600
ENDCHAR
STARTCHAR Upsilon.c2sc
ENCODING -1
SWIDTH 458 0
DWIDTH 6 0
BBX 6 8 0 0
BITMAP
A070
34A0
29C0
1E80
0B00
0600
0600
0600
ENDCHAR
STARTCHAR Chi.c2sc
ENCODING -1
SWIDTH 478 0
DWIDTH 7 0
BBX 6 8 0 0
BITMAP
7070
28D0
1EC0
0B40
0B40
1DC0
28E0
7070
ENDCHAR
STARTCHAR Iotadieresis.c2sc
ENCODING -1
SWIDTH 221 0
DWIDTH 3 0
BBX 5 11 -1 0
BITMAP
1140
6280
0000
0C00
0C00
0C00
0C00
0C00
0C00
0C00
0C00
ENDCHAR
STARTCHAR Upsilondieresis.c2sc
ENCODING -1
SWIDTH 458 0
DWIDTH 6 0
BBX 6 11 0 0
BITMAP
1040
24D0
0000
A070
34A0
29C0
1E80
0B00
0600
0600
0600
ENDCHAR
STARTCHAR uni0401.c2sc
ENCODING -1
SWIDTH 428 0
DWIDTH 6 0
BBX 5 11 1 0
BITMAP
4100
9340
0000
FF80
C000
C000
FF00
C000
C000
C000
FF80
ENDCHAR
STARTCHAR uni0403.c2sc
ENCODING -1
SWIDTH 405 0
DWIDTH 6 0
BBX 5 11 1 0
BITMAP
0B00
1800
0000
FF40
C000
C000
C000
C000
C000
C000
C000
ENDCHAR
STARTCHAR uni0405.c2sc
ENCODING -1
SWIDTH 453 0
DWIDTH 6 0
BBX 6 8 0 0
BITMAP
1F80
34A0
7050
2E40
06D0
5060
74A0
1F80
ENDCHAR
STARTCHAR uni0406.c2sc
ENCODING -1
SWIDTH 221 0
DWIDTH 3 0
BBX 1 8 1 0
BITMAP
C0
C0
C0
C0
C0
C0
C0
C0
ENDCHAR
STARTCHAR uni0407.c2sc
ENCODING -1
SWIDTH 221 0
DWIDTH 3 0
BBX 5 11 -1 0
BITMAP
1140
6280
0000
0C00
0C00
0C00
0C00
0C00
0C00
0C00
0C00
ENDCHAR
STARTCHAR uni0408.c2sc
ENCODING -1
SWIDTH 419 0
DWIDTH 6 0
BBX 5 8 0 0
BITMAP
01C0
01C0
01C0
01C0
01C0
51C0
61C0
2F40
ENDCHAR
STARTCHAR uni040C.c2sc
ENCODING -1
SWIDTH 473 0
DWIDTH 7 0
BBX 6 11 1 0
BITMAP
0A00
1800
0000
C1C0
C740
DD00
EC00
FD00
C700
C280
C1D0
ENDCHAR
STARTCHAR uni040E.c2sc
ENCODING -1
SWIDTH 454 0
DWIDTH 6 0
BBX 6 11 0 0
BITMAP
24C0
1F80
0000
7070
34A0
28D0
1980
0F40
0B00
0A00
2C00
ENDCHAR
STARTCHAR uni0410.c2sc
ENCODING -1
SWIDTH 501 0
DWIDTH 7 0
BBX 7 8 0 0
BITMAP
0740
0B80
0DC0
1CD0
28A0
3FF0
7034
A028
ENDCHAR
STARTCHAR uni0412.c2sc
ENCODING -1
SWIDTH 475 0
DWIDTH 7 0
BBX 5 8 1 0
BITMAP
FE40
C280
C280
FF00
C280
C1C0
C280
FE40
ENDCHAR
STARTCHAR uni0413.c2sc
ENCODING -1
SWIDTH 405 0
DWIDTH 6 0
BBX 5 8 1 0
BITMAP
FF40
C000
C000
C000
C000
C000
C000
C000
ENDCHAR
STARTCHAR uni0415.c2sc
ENCODING -1
SWIDTH 428 0
DWIDTH 6 0
BBX 5 8 1 0
BITMAP
FF80
C000
C000
FF00
C000
C000
C000
FF80
ENDCHAR
STARTCHAR uni0419.c2sc
ENCODING -1
SWIDTH 537 0
DWIDTH 8 0
BBX 6 11 1 0
BITMAP
7180
2F40
0000
C0E0
C1E0
C3A0
CAA0
DCA0
E8A0
F0A0
D0A0
ENDCHAR
STARTCHAR uni041C.c2sc
ENCODING -1
SWIDTH 652 0
DWIDTH 9 0
BBX 8 8 1 0
BITMAP
E01D
F03D
E47D
D8AD
DCDD
C9CD
C78D
C34D
ENDCHAR
STARTCHAR uni041D.c2sc
ENCODING -1
SWIDTH 533 0
DWIDTH 7 0
BBX 6 8 1 0
BITMAP
C0A0
C0A0
C0A0
FFE0
C0A0
C0A0
C0A0
C0A0
ENDCHAR
STARTCHAR uni041E.c2sc
ENCODING -1
SWIDTH 519 0
DWIDTH 7 0
BBX 7 8 0 0
BITMAP
0BD0
2870
3024
7028
7028
3024
2870
0BD0
ENDCHAR
STARTCHAR uni041F.c2sc
ENCODING -1
SWIDTH 525 0
DWIDTH 7 0
BBX 6 8 1 0
BITMAP
FFD0
C090
C090
C090
C090
C090
C090
C090
ENDCHAR
STARTCHAR uni0420.c2sc
ENCODING -1
SWIDTH 481 0
DWIDTH 7 0
BBX 6 8 1 0
BITMAP
FF40
C1C0
C0D0
C1C0
FF40
C000
C000
C000
ENDCHAR
STARTCHAR uni0421.c2sc
ENCODING -1
SWIDTH 490 0
DWIDTH 7 0
BBX 7 8 0 0
BITMAP
0B90
2870
7024
7000
7000
7024
2870
0B90
ENDCHAR
STARTCHAR uni0422.c2sc
ENCODING -1
SWIDTH 456 0
DWIDTH 6 0
BBX 6 8 0 0
BITMAP
BFF0
0600
0600
0600
0600
0600
0600
0600
ENDCHAR
STARTCHAR uni0425.c2sc
ENCODING -1
SWIDTH 478 0
DWIDTH 7 0
BBX 6 8 0 0
BITMAP
7070
28D0
1EC0
0B40
0B40
1DC0
28E0
7070
ENDCHAR
STARTCHAR uni0498.c2sc
ENCODING -1
SWIDTH 466 0
DWIDTH 7 0
BBX 6 11 0 -3
BITMAP
1F80
74A0
00A0
0B80
00A0
0060
70A0
2F80
0A00
0A00
0A00
ENDCHAR
STARTCHAR uni04A2.c2sc
ENCODING -1
SWIDTH 533 0
DWIDTH 7 0
BBX 7 10 1 -2
BITMAP
C0A0
C0A0
C0A0
FFE0
C0A0
C0A0
C0A0
C0B8
0028
0028
ENDCHAR
STARTCHAR uni04AA.c2sc
ENCODING -1
SWIDTH 490 0
DWIDTH 7 0
BBX 7 11 0 -3
BITMAP
0B90
2870
7024
7000
7000
7020
3870
1BD0
0300
0300
0300
ENDCHAR
STARTCHAR uni04AE.c2sc
ENCODING -1
SWIDTH 458 0
DWIDTH 6 0
BBX 6 8 0 0
BITMAP
A070
34A0
29C0
1E80
0B00
0600
0600
0600
ENDCHAR
STARTCHAR uni04BE.c2sc
ENCODING -1
SWIDTH 632 0
DWIDTH 9 0
BBX 9 11 0 -3
BITMAP
01F800
474A00
990300
2FFF40
090000
0A0000
074400
01F900
007000
007000
007000
ENDCHAR
STARTCHAR uni04E2.c2sc
ENCODING -1
SWIDTH 537 0
DWIDTH 8 0
BBX 6 10 1 0
BITMAP
7F80
0000
C0E0
C1E0
C3A0
CAA0
DCA0
E8A0
F0A0
D0A0
ENDCHAR
STARTCHAR uni04EE.c2sc
ENCODING -1
SWIDTH 454 0
DWIDTH 6 0
BBX 6 10 0 0
BITMAP
2FD0
0000
7070
34A0
28D0
1980
0F40
0B00
0A00
2C00
ENDCHAR
STARTCHAR uni0424.c2sc
ENCODING -1
SWIDTH 587 0
DWIDTH 8 0
BBX 8 8 0 0
BITMAP
0180
0BE4
369C
7189
7189
369D
1BF4
0180
ENDCHAR
STARTCHAR IJ.c2sc
ENCODING -1
SWIDTH 641 0
DWIDTH 9 0
BBX 7 8 1 0
BITMAP
C00C
C00C
C00C
C00C
C00C
C50C
C71C
C2F4
ENDCHAR
STARTCHAR AEacute.c2sc
ENCODING -1
SWIDTH 676 0
DWIDTH 9 0
BBX 9 10 0 0
BITMAP
002C00
002000
01FF80
02A000
076000
097F40
1C6000
2FF000
347000
A07FC0
ENDCHAR
STARTCHAR Oslashacute.c2sc
ENCODING -1
SWIDTH 519 0
DWIDTH 7 0
BBX 7 11 0 -1
BITMAP
01D0
0240
0BA4
28B0
30A4
7268
7228
3924
2C70
2BD0
1000
ENDCHAR
STARTCHAR uni0218.c2sc
ENCODING -1
SWIDTH 453 0
DWIDTH 6 0
BBX 6 12 0 -4
BITMAP
1F80
34A0
7050
2E40
06D0
5060
74A0
1F80
0000
0700
0600
0500
ENDCHAR
STARTCHAR Wgrave.c2sc
ENCODING -1
SWIDTH 655 0
DWIDTH 9 0
BBX 9 10 0 0
BITMAP
034000
01C000
60D180
71E280
31A240
367300
272700
1A2A00
1E1D00
0D0D00
ENDCHAR
STARTCHAR Wacute.c2sc
ENCODING -1
SWIDTH 655 0
DWIDTH 9 0
BBX 9 10 0 0
BITMAP
007400
009000
60D180
71E280
31A240
367300
272700
1A2A00
1E1D00
0D0D00
ENDCHAR
STARTCHAR Wdieresis.c2sc
ENCODING -1
SWIDTH 655 0
DWIDTH 9 0
BBX 9 11 0 0
BITMAP
010400
061800
000000
60D180
71E280
31A240
367300
272700
1A2A00
1E1D00
0D0D00
ENDCHAR
STARTCHAR Ygrave.c2sc
ENCODING -1
SWIDTH 458 0
DWIDTH 6 0
BBX 6 10 0 0
BITMAP
1C00
0A00
A070
34A0
29C0
1E80
0B00
0600
0600
0600
ENDCHAR
STARTCHAR Aogonek.locl
ENCODING -1
SWIDTH 576 0
DWIDTH 8 0
BBX 8 13 0 -3
BITMAP
0280
03C0
0690
0960
0C30
1C24
2FF8
341C
700D
A00A
0240
0600
0380
ENDCHAR
STARTCHAR aogonek.locl
ENCODING -1
SWIDTH 479 0
DWIDTH 7 0
BBX 6 11 0 -3
BITMAP
1B80
34A0
0060
1BE0
3860
7060
35E0
1FB0
0800
1800
1D00
ENDCHAR
STARTCHAR Eogonek.locl
ENCODING -1
SWIDTH 496 0
DWIDTH 7 0
BBX 6 13 1 -3
BITMAP
FFD0
D000
D000
D000
FFC0
D000
D000
D000
D000
FFD0
1800
2400
2D00
ENDCHAR
STARTCHAR eogonek.locl
ENCODING -1
SWIDTH 468 0
DWIDTH 7 0
BBX 6 11 0 -3
BITMAP
0B80
34A0
7070
7FF0
7000
7000
3860
1BD0
0900
0C00
0B00
ENDCHAR
STARTCHAR Aogonek.c2sc.locl
ENCODING -1
SWIDTH 501 0
DWIDTH 7 0
BBX 7 11 0 -3
BITMAP
0740
0B80
0DC0
1CD0
28A0
3FF0
7034
A128
0600
0D00
0B00
ENDCHAR
STARTCHAR Eogonek.c2sc.locl
ENCODING -1
SWIDTH 428 0
DWIDTH 6 0
BBX 5 11 1 -3
BITMAP
FF80
C000
C000
FF00
C000
C000
C000
FF80
2400
7000
3800
ENDCHAR
STARTCHAR glyph1293
ENCODING -1
SWIDTH 234 0
DWIDTH 3 0
BBX 2 11 1 -3
BITMAP
D0
D0
D0
D0
D0
D0
D0
D0
00
D0
40
ENDCHAR
ENDFONT
